<svg width="18" height="18" viewBox="0 0 18 18" fill="none" xmlns="http://www.w3.org/2000/svg">
<path fillRule="evenodd" clipRule="evenodd" d="M12.1187 6.17464C12.1187 7.9369 10.7139 9.34995 8.96177 9.34995C7.20969 9.34995 5.80481 7.9369 5.80481 6.17464C5.80481 4.4117 7.20969 3 8.96177 3C10.7139 3 12.1187 4.4117 12.1187 6.17464ZM8.96177 15C6.38838 15 4.19107 14.592 4.19107 12.9601C4.19107 11.3276 6.37428 10.9047 8.96177 10.9047C11.5352 10.9047 13.7325 11.3127 13.7325 12.9453C13.7325 14.5772 11.5493 15 8.96177 15ZM13.4678 6.23192C13.4678 7.13027 13.1999 7.96716 12.7298 8.66288C12.6814 8.73448 12.7244 8.83107 12.8097 8.84593C12.9272 8.86619 13.0488 8.87767 13.1723 8.88105C14.4046 8.91347 15.5107 8.11576 15.8162 6.9148C16.2689 5.13093 14.9399 3.52942 13.2476 3.52942C13.0635 3.52942 12.8876 3.54901 12.7164 3.58413C12.6928 3.58954 12.668 3.60034 12.6546 3.62128C12.6385 3.64695 12.6505 3.6814 12.6667 3.70369C13.175 4.42035 13.4678 5.29439 13.4678 6.23192ZM15.5087 10.1344C16.3367 10.2972 16.8813 10.6295 17.107 11.1125C17.2977 11.509 17.2977 11.969 17.107 12.3648C16.7618 13.1139 15.649 13.3543 15.2165 13.4165C15.1272 13.43 15.0554 13.3523 15.0648 13.2625C15.2857 11.1868 13.5283 10.2026 13.0736 9.97637C13.0541 9.96624 13.0501 9.9507 13.0521 9.94125C13.0535 9.93449 13.0615 9.92369 13.0763 9.92166C14.0601 9.90342 15.1178 10.0385 15.5087 10.1344ZM4.82783 8.88099C4.9514 8.87761 5.07228 8.8668 5.19047 8.84586C5.27576 8.831 5.31874 8.73441 5.27038 8.66281C4.8003 7.96709 4.53235 7.13021 4.53235 6.23185C4.53235 5.29432 4.82515 4.42028 5.33351 3.70362C5.34963 3.68133 5.36104 3.64688 5.3456 3.62122C5.33217 3.60095 5.30665 3.58947 5.28382 3.58407C5.1119 3.54894 4.93595 3.52935 4.75195 3.52935C3.05964 3.52935 1.73063 5.13086 2.18393 6.91474C2.48949 8.11569 3.59553 8.91341 4.82783 8.88099ZM4.9477 9.94084C4.94972 9.95097 4.94569 9.96583 4.92689 9.97664C4.47157 10.2029 2.71412 11.1871 2.93506 13.2621C2.94446 13.3526 2.87328 13.4296 2.78396 13.4167C2.35148 13.3546 1.23872 13.1141 0.893544 12.3651C0.702152 11.9686 0.702152 11.5092 0.893544 11.1128C1.11919 10.6298 1.66314 10.2975 2.49117 10.134C2.88268 10.0388 3.9397 9.90369 4.9242 9.92193C4.93897 9.92395 4.94636 9.93476 4.9477 9.94084Z" fill="#3F260A"/>
</svg>
