<svg width="60" height="60" viewBox="0 0 60 60" fill="none" xmlns="http://www.w3.org/2000/svg">
<rect x="0.5" y="0.500244" width="59" height="59" fill="#3F260A"/>
<path d="M33.84 30.0002C33.84 30.7597 33.6148 31.5021 33.1928 32.1336C32.7709 32.7651 32.1712 33.2573 31.4695 33.5479C30.7678 33.8386 29.9957 33.9146 29.2509 33.7665C28.506 33.6183 27.8217 33.2526 27.2847 32.7155C26.7477 32.1785 26.382 31.4943 26.2338 30.7494C26.0856 30.0045 26.1617 29.2324 26.4523 28.5307C26.7429 27.8291 27.2351 27.2293 27.8666 26.8074C28.4981 26.3855 29.2405 26.1602 30 26.1602C31.0175 26.1634 31.9923 26.569 32.7118 27.2885C33.4312 28.0079 33.8368 28.9828 33.84 30.0002ZM42 24.7202V35.2802C42 37.0625 41.292 38.7718 40.0318 40.032C38.7715 41.2922 37.0623 42.0002 35.28 42.0002H24.72C22.9377 42.0002 21.2285 41.2922 19.9682 40.032C18.708 38.7718 18 37.0625 18 35.2802V24.7202C18 22.938 18.708 21.2287 19.9682 19.9685C21.2285 18.7082 22.9377 18.0002 24.72 18.0002H35.28C37.0623 18.0002 38.7715 18.7082 40.0318 19.9685C41.292 21.2287 42 22.938 42 24.7202ZM35.76 30.0002C35.76 28.861 35.4222 27.7474 34.7893 26.8002C34.1563 25.8529 33.2568 25.1147 32.2043 24.6787C31.1518 24.2427 29.9936 24.1287 28.8763 24.3509C27.7589 24.5732 26.7326 25.1218 25.9271 25.9273C25.1215 26.7329 24.5729 27.7592 24.3507 28.8765C24.1284 29.9939 24.2425 31.152 24.6785 32.2045C25.1144 33.257 25.8527 34.1566 26.7999 34.7895C27.7471 35.4224 28.8608 35.7602 30 35.7602C31.5276 35.7602 32.9927 35.1534 34.0729 34.0732C35.1531 32.993 35.76 31.5279 35.76 30.0002ZM37.68 23.7602C37.68 23.4754 37.5955 23.197 37.4373 22.9602C37.2791 22.7234 37.0542 22.5388 36.7911 22.4299C36.5279 22.3209 36.2384 22.2924 35.9591 22.3479C35.6797 22.4035 35.4232 22.5406 35.2218 22.742C35.0204 22.9434 34.8832 23.2 34.8277 23.4793C34.7721 23.7586 34.8006 24.0482 34.9096 24.3113C35.0186 24.5744 35.2032 24.7993 35.44 24.9576C35.6768 25.1158 35.9552 25.2002 36.24 25.2002C36.6219 25.2002 36.9882 25.0485 37.2582 24.7785C37.5283 24.5084 37.68 24.1422 37.68 23.7602Z" fill="white"/>
<rect x="0.5" y="0.500244" width="59" height="59" stroke="white"/>
</svg>
