<svg width="60" height="60" viewBox="0 0 60 60" fill="none" xmlns="http://www.w3.org/2000/svg">
<rect x="0.5" y="0.500244" width="59" height="59" fill="#3F260A"/>
<path d="M43 30.0799C43 22.856 37.18 17.0002 30.0016 17.0002C22.82 17.0019 17 22.856 17 30.0815C17 36.6083 21.7542 42.0189 27.9674 43.0002V33.8608H24.669V30.0815H27.9706V27.1975C27.9706 23.9203 29.9123 22.1102 32.8808 22.1102C34.3041 22.1102 35.7908 22.3653 35.7908 22.3653V25.5824H34.1514C32.5379 25.5824 32.0342 26.5914 32.0342 27.6264V30.0799H35.638L35.0629 33.8591H32.0326V42.9986C38.2458 42.0172 43 36.6067 43 30.0799Z" fill="white"/>
<rect x="0.5" y="0.500244" width="59" height="59" stroke="white"/>
</svg>
