<svg width="18" height="18" viewBox="0 0 18 18" fill="none" xmlns="http://www.w3.org/2000/svg">
<path fillRule="evenodd" clipRule="evenodd" d="M1.49988 9.00012C1.49988 4.86012 4.85238 1.50012 8.99988 1.50012C13.1399 1.50012 16.4999 4.86012 16.4999 9.00012C16.4999 13.1476 13.1399 16.5001 8.99988 16.5001C4.85238 16.5001 1.49988 13.1476 1.49988 9.00012ZM10.6724 10.3726L11.8874 6.53262C11.9699 6.27012 11.7299 6.02262 11.4674 6.10512L7.62738 7.30512C7.46988 7.35762 7.34238 7.47762 7.29738 7.63512L6.09738 11.4826C6.01488 11.7376 6.26238 11.9851 6.51738 11.9026L10.3424 10.7026C10.4999 10.6576 10.6274 10.5301 10.6724 10.3726Z" fill="#3F260A"/>
</svg>
