<svg width="25" height="25" viewBox="0 0 25 25" fill="none" xmlns="http://www.w3.org/2000/svg">
<g clipPath="url(#clip0_0_2107)">
<path d="M24.5386 4.42391C24.3699 4.08598 24.1192 3.75991 23.5957 3.83816C23.1705 3.90169 22.7903 4.02003 22.1219 3.61004C20.1499 1.93833 16.6267 0.824585 12.6071 0.824585C8.58579 0.824585 5.06131 1.93916 3.09022 3.61167C2.42335 4.01964 2.0436 3.90169 1.61928 3.83816C1.09578 3.75995 0.845106 4.08598 0.676284 4.42391C0.441963 4.89295 -0.512067 6.556 0.361689 7.25527C1.03963 7.79803 1.37063 8.13799 1.53325 8.33873C2.23129 13.1117 6.1915 18.0223 12.6071 18.0223C19.0235 18.0223 22.9837 13.1117 23.6817 8.33873C23.8443 8.13799 24.1753 7.79803 24.8532 7.25527C25.727 6.556 24.773 4.89295 24.5386 4.42391ZM3.52153 6.69567C3.52153 4.89945 5.60944 3.35026 8.64429 2.60598L3.64357 7.40765C3.56989 7.17495 3.52153 6.93861 3.52153 6.69567ZM4.41292 8.66145C4.37731 8.62461 4.34619 8.5857 4.31216 8.54798L10.8899 2.23362C10.9735 2.22544 11.0534 2.21229 11.1381 2.20535C11.6403 2.15989 12.1544 2.13862 12.6771 2.13862C13.0122 2.13862 13.3403 2.15211 13.6659 2.17181L5.80643 9.70934C5.24939 9.39386 4.77666 9.04489 4.41292 8.66145ZM9.23093 10.921C8.4641 10.7678 7.75054 10.5605 7.10372 10.3155C7.08855 10.3098 7.07506 10.3032 7.06033 10.2971L15.3536 2.33482C15.372 2.33728 15.3913 2.33891 15.4094 2.34176C16.2011 2.46631 16.9434 2.64493 17.6279 2.86443C17.6361 2.86689 17.6438 2.87019 17.652 2.87305L9.2592 10.9259C9.25019 10.9242 9.24034 10.923 9.23093 10.921ZM13.6012 11.2319C13.299 11.2487 12.988 11.2569 12.6772 11.2569C12.0566 11.2569 11.4491 11.2249 10.8625 11.1643L18.9641 3.38961C19.6284 3.69805 20.2007 4.05973 20.6546 4.46528C20.6898 4.49562 20.7213 4.52758 20.7554 4.55871L13.8179 11.2151C13.745 11.2192 13.6746 11.2286 13.6012 11.2319ZM15.9562 10.9496L21.5496 5.58272C21.7311 5.93952 21.8318 6.31267 21.8318 6.69567C21.8318 8.64101 19.3942 10.2947 15.9562 10.9496Z" fill="#3F260A"/>
<path d="M18.6037 17.0695C17.9581 17.4639 17.258 17.7953 16.5068 18.0525L17.3642 20.1973H7.85055L8.73041 17.9952C7.96033 17.8018 7.24022 17.529 6.56883 17.1944L4.39498 23.6333C4.1971 24.1724 4.44206 24.7598 4.94306 24.9441C5.44445 25.1288 6.01134 24.8404 6.21001 24.3018L7.18699 21.8575H18.0277L19.0047 24.3018C19.2034 24.8404 19.7703 25.1288 20.2717 24.9441C20.7726 24.7598 21.0176 24.1724 20.8198 23.6333L18.6037 17.0695Z" fill="#3F260A"/>
</g>
<defs>
<clipPath id="clip0_0_2107">
<rect width="25" height="25" fill="white"/>
</clipPath>
</defs>
</svg>
