<svg width="66" height="96" viewBox="0 0 66 96" fill="none" xmlns="http://www.w3.org/2000/svg">
<path fillRule="evenodd" clipRule="evenodd" d="M36.7925 31.0415C39.495 31.0415 41.6846 33.2311 41.6846 35.9336C41.6846 38.6361 39.495 40.8257 36.7925 40.8257C34.09 40.8257 31.9004 38.6361 31.9004 35.9336C31.9004 33.2311 34.09 31.0415 36.7925 31.0415ZM32.8911 35.6238H35.7301L33.6735 33.569C33.2341 34.1483 32.9506 34.8554 32.8911 35.6238ZM34.2826 32.9318L36.3514 35.0007V32.0444C35.569 32.1319 34.8549 32.4505 34.2826 32.9318ZM37.2336 32.0444V35.0007L39.3025 32.9318C38.7283 32.4505 38.016 32.1319 37.2336 32.0444ZM39.9116 33.569L37.8549 35.6238H40.6939C40.6344 34.8554 40.3509 34.1483 39.9116 33.569ZM40.6642 36.5042H37.8549L39.796 38.4436C40.2476 37.9027 40.5574 37.2359 40.6642 36.5042ZM39.1572 39.0527L37.2336 37.1273V39.8228C37.9512 39.7423 38.6111 39.4675 39.1572 39.0527ZM36.3514 39.8228V37.1273L34.4278 39.0527C34.9739 39.4675 35.6338 39.7423 36.3514 39.8228ZM33.789 38.4436L35.7301 36.5042H32.9191C33.0276 37.2359 33.3356 37.9027 33.789 38.4436Z" fill="#FEFEFE" stroke="#3F260A" strokeWidth="0.45" strokeMiterlimit="22.9256"/>
<path fillRule="evenodd" clipRule="evenodd" d="M36.7924 30.5513C39.7644 30.5513 42.1746 32.9614 42.1746 35.9335C42.1746 38.9055 39.7644 41.3157 36.7924 41.3157C33.8203 41.3157 31.4102 38.9055 31.4102 35.9335C31.4102 32.9614 33.8203 30.5513 36.7924 30.5513ZM36.7924 31.0414C39.4948 31.0414 41.6845 33.231 41.6845 35.9335C41.6845 38.636 39.4948 40.8256 36.7924 40.8256C34.0899 40.8256 31.9002 38.636 31.9002 35.9335C31.9002 33.231 34.0899 31.0414 36.7924 31.0414ZM32.8909 35.6237H35.7299L33.6733 33.5688C33.234 34.1482 32.9504 34.8553 32.8909 35.6237ZM34.2824 32.9317L36.3513 35.0006V32.0443C35.5689 32.1318 34.8548 32.4504 34.2824 32.9317ZM37.2334 32.0443V35.0006L39.3023 32.9317C38.7282 32.4504 38.0158 32.1318 37.2334 32.0443ZM39.9114 33.5688L37.8548 35.6237H40.6938C40.6343 34.8553 40.3507 34.1482 39.9114 33.5688ZM40.664 36.5041H37.8548L39.7959 38.4434C40.2475 37.9026 40.5573 37.2357 40.664 36.5041ZM39.157 39.0525L37.2334 37.1272V39.8227C37.9511 39.7421 38.6109 39.4674 39.157 39.0525ZM36.3513 39.8227V37.1272L34.4277 39.0525C34.9738 39.4674 35.6337 39.7421 36.3513 39.8227ZM33.7888 38.4434L35.7299 36.5041H32.9189C33.0274 37.2357 33.3355 37.9026 33.7888 38.4434Z" fill="#3F260A" stroke="#3F260A" strokeWidth="0.45" strokeMiterlimit="22.9256"/>
<path fillRule="evenodd" clipRule="evenodd" d="M36.7905 28.395C40.9545 28.395 44.3291 31.7696 44.3291 35.9336C44.3291 40.0976 40.9545 43.4722 36.7905 43.4722C32.6266 43.4722 29.252 40.0976 29.252 35.9336C29.252 31.7696 32.6266 28.395 36.7905 28.395ZM36.7905 30.5514C39.7626 30.5514 42.1727 32.9616 42.1727 35.9336C42.1727 38.9056 39.7626 41.3158 36.7905 41.3158C33.8185 41.3158 31.4083 38.9056 31.4083 35.9336C31.4083 32.9616 33.8185 30.5514 36.7905 30.5514Z" fill="#FEFEFE" stroke="#3F260A" strokeWidth="0.45" strokeMiterlimit="22.9256"/>
<path fillRule="evenodd" clipRule="evenodd" d="M36.7912 27.8611C41.2492 27.8611 44.8636 31.4755 44.8636 35.9335C44.8636 40.3916 41.2492 44.0059 36.7912 44.0059C32.3331 44.0059 28.7188 40.3916 28.7188 35.9335C28.7188 31.4755 32.3331 27.8611 36.7912 27.8611ZM36.7912 28.3949C40.9552 28.3949 44.3298 31.7695 44.3298 35.9335C44.3298 40.0975 40.9552 43.4721 36.7912 43.4721C32.6272 43.4721 29.2526 40.0975 29.2526 35.9335C29.2526 31.7695 32.6272 28.3949 36.7912 28.3949Z" fill="#3F260A" stroke="#3F260A" strokeWidth="0.45" strokeMiterlimit="22.9256"/>
<path fillRule="evenodd" clipRule="evenodd" d="M32.3937 29.1635L23.8574 16.0204C25.6795 14.5641 27.8044 13.7712 30.1813 13.5332C30.3703 14.5414 31.6866 14.1773 31.5185 13.4579C32.1521 13.4492 32.8033 13.4754 33.4684 13.535L35.6073 27.947C34.4345 28.1203 33.3459 28.5439 32.3937 29.1635Z" fill="#FEFEFE" stroke="#3F260A" strokeWidth="0.45" strokeMiterlimit="22.9256"/>
<path fillRule="evenodd" clipRule="evenodd" d="M18.5195 5.87196C20.2331 7.24596 23.4029 8.51318 26.4624 7.35447C30.9415 5.39763 33.7367 5.18934 36.868 8.20338V5.00381C33.6002 2.54462 29.5972 2.79492 26.5185 4.9653C24.04 6.66485 21.054 6.73311 18.5195 5.87196Z" fill="#3F260A" stroke="#3F260A" strokeWidth="0.45" strokeMiterlimit="22.9256"/>
<path fillRule="evenodd" clipRule="evenodd" d="M35.1054 1.47521C35.4222 0.841597 36.5477 0.841597 36.8662 1.47521V5.00383C33.5984 2.54465 29.5955 2.79494 26.5167 4.96533C24.0382 6.66488 21.0522 6.73314 18.5177 5.87199C20.2313 7.24598 23.4011 8.51321 26.4607 7.3545C30.9397 5.39765 33.7349 5.18937 36.8662 8.2034V24.2205C36.5092 24.3028 36.2939 23.9527 36.2134 23.2053C35.8441 20.2298 36.0331 14.8318 35.1054 14.2787V9.41812C32.9508 7.42976 29.6882 7.44552 26.984 8.81076C24.5738 10.0622 20.4606 9.00504 17.9121 7.25823C15.1869 5.32239 13.16 5.74072 11.0982 7.83759C10.9862 7.74132 10.8759 7.64505 10.7656 7.54704C12.4722 3.65435 16.2528 2.98398 18.5335 4.2337C20.1805 5.09485 23.1526 5.14211 25.3265 3.73661C28.7256 1.25467 31.8919 0.355011 35.1054 1.88303V1.47521Z" fill="#FEFEFE" stroke="#3F260A" strokeWidth="0.45" strokeMiterlimit="22.9256"/>
<path fillRule="evenodd" clipRule="evenodd" d="M16.3188 45.1613C16.1648 45.5236 16.0073 45.7931 15.68 46.0154C15.5924 46.0714 15.4979 46.0364 15.5539 45.9874C15.89 45.6899 16.0773 45.3346 15.8375 45.072C16.016 45.1158 16.1858 45.1613 16.3188 45.1613Z" fill="#3F260A" stroke="#3F260A" strokeWidth="0.45" strokeMiterlimit="22.9256"/>
<path fillRule="evenodd" clipRule="evenodd" d="M25.9985 59.3701C25.7062 59.8725 25.3719 59.988 25.0166 59.9897C26.9559 55.3024 27.0399 52.4722 25.5557 51.2084C24.5317 50.4033 23.3293 50.1793 22.5941 50.8566C22.0918 51.331 22.1321 51.6653 22.4069 51.9541C22.7587 52.2551 22.5014 52.8677 21.9413 52.761C21.2341 52.6227 20.611 52.6489 20.4605 53.2283C20.3905 53.6081 20.4045 54.0807 20.0142 54.366C19.7516 54.5323 19.5101 54.52 19.1338 54.3152C18.824 54.0947 18.2709 54.1577 17.7878 54.3152C16.9126 54.569 16.7218 54.0474 16.4838 53.6116C16.3718 53.3963 16.1827 53.0043 16.5556 52.943C16.8776 52.887 16.9634 52.7732 16.9494 52.4827C16.9214 52.2569 16.9389 51.9891 17.0299 51.744C17.0632 51.6513 17.2137 51.6443 17.2539 51.7108C17.478 52.3969 17.8578 52.7785 18.4196 52.7872C18.6192 52.768 18.929 52.7487 18.9692 52.5754C18.9832 52.3269 19.006 52.0451 19.1163 51.8613C19.1355 51.849 19.3123 51.835 19.3176 51.8666C19.3526 52.1028 19.4506 52.4547 19.6729 52.4354C20.1332 52.3741 20.366 50.3578 21.4127 50.3805C22.2616 50.384 22.3543 49.8922 21.9518 49.3846C21.3672 48.597 20.52 47.9966 19.8076 47.8321C19.265 47.7148 19.0305 47.7656 18.6069 48.1226C18.3181 48.3554 18.3199 49.0433 18.1711 49.0643C17.9436 49.0346 17.5165 48.499 17.485 47.8268C17.478 47.7271 17.3537 47.6938 17.3029 47.7166C17.1664 47.7656 16.9074 48.0946 16.5976 48.1279C16.3193 48.1331 16.0725 47.8373 15.8362 48.0229C15.5404 48.4097 15.8257 49.4126 15.5719 49.3846C15.2481 49.3269 14.8753 48.7913 14.8105 48.1997C14.7965 48.1331 14.7475 48.0596 14.653 48.0824C14.3397 48.2347 14.2294 48.0071 13.9038 47.8986C13.7551 47.8583 13.7113 47.5678 13.9984 47.356C14.4499 47.0777 14.688 46.6699 14.6705 45.8962C14.6897 44.8128 15.3058 44.9406 15.8362 45.0718C16.076 45.3344 15.8887 45.6897 15.5526 45.9873C15.4966 46.0363 15.5911 46.0713 15.6787 46.0153C16.006 45.793 16.1635 45.5234 16.3175 45.1611C16.7936 44.1442 17.9278 44.0952 18.8152 44.6833C19.2703 44.629 19.8146 44.748 20.0772 45.0771C20.3887 44.8933 20.8666 44.8286 21.4547 45.0561C21.859 44.8391 21.81 44.5468 21.866 44.3752C21.9255 44.1879 22.1426 44.0322 22.4174 44.0059C22.6554 43.9727 22.7902 44.1144 22.96 44.1774C23.163 44.2562 23.408 44.384 23.6758 44.3525C23.9086 44.0462 24.0591 43.9849 24.4477 44.0059C24.5282 42.5094 26.3135 42.5514 27.1712 41.6255C27.2552 41.6307 27.4057 41.755 27.3812 41.8303C27.1064 42.6459 26.0457 43.4686 26.3223 44.2124C26.5428 44.2194 26.9699 44.3822 27.1922 44.5538C27.0627 43.1658 29.6076 43.1308 30.4845 42.0123C30.5966 41.8688 30.8591 41.902 30.8573 42.1576C30.6403 43.9692 29.6584 43.8764 29.5079 44.8286C29.4291 45.3186 29.2978 45.5917 28.883 45.884C30.3183 47.118 29.0755 48.7387 29.6146 50.1057C29.6706 50.2545 29.5569 50.3805 29.4081 50.3543C29.1771 50.265 28.6992 49.9552 28.4857 49.5824C28.0376 50.4891 28.0201 51.4902 28.6205 52.2849C28.5732 52.4232 28.2249 52.5089 28.0306 52.4512C27.8993 53.1215 27.9431 53.6851 28.1444 54.2732C28.659 53.8041 29.5499 54.4973 29.2471 55.2937C29.0843 55.7067 28.6695 56.0673 28.1024 55.8888C27.8153 55.7925 27.649 55.7067 27.5073 55.516C27.1642 56.995 26.5008 58.2849 25.9985 59.3701Z" fill="#FEFEFE" stroke="#3F260A" strokeWidth="0.45" strokeMiterlimit="22.9256"/>
<path fillRule="evenodd" clipRule="evenodd" d="M23.3082 44.3105C23.534 44.482 23.5095 44.8548 23.0597 44.9704C22.9739 45.0019 22.9967 45.1401 23.1122 45.1576C23.359 45.1979 23.611 44.7288 23.9401 44.5625C24.1974 44.377 24.6402 44.2807 25.0113 44.5205C25.2371 44.6693 25.5013 44.9669 25.7271 45.0124C26.0002 45.0701 25.9162 44.5205 25.7709 44.4173C25.6291 44.3227 25.2948 44.3315 25.0638 44.2825C24.838 44.2212 24.6962 44.0532 24.4477 44.0059C24.0591 43.9849 23.9086 44.0462 23.6758 44.3525C23.5463 44.3665 23.4237 44.3455 23.3082 44.3105Z" fill="#3F260A" stroke="#3F260A" strokeWidth="0.45" strokeMiterlimit="22.9256"/>
<path fillRule="evenodd" clipRule="evenodd" d="M18.8164 44.6833C19.9331 45.0053 21.1111 46.8974 22.2593 46.8624C22.4518 46.8379 22.3975 46.5526 22.2015 46.5526C21.1076 46.4983 20.5055 45.6022 20.4232 45.4429C20.3182 45.2924 20.5317 45.0106 21.2738 45.1506C21.5854 45.2224 21.7289 45.4079 21.8864 45.5444C21.9215 45.3764 22.0667 45.3571 22.3118 45.4061C22.7966 45.4867 23.1379 45.6442 23.3935 45.905C23.4005 45.6792 23.5457 45.5759 23.7488 45.5059C23.1537 45.6547 22.5691 45.1138 21.8864 45.2521C21.6607 45.2889 21.6607 44.9581 21.7569 44.776C21.7044 44.874 21.6152 44.9703 21.4559 45.0561C20.8678 44.8285 20.3899 44.8933 20.0784 45.0771C19.8158 44.748 19.2715 44.629 18.8164 44.6833Z" fill="#3F260A" stroke="#3F260A" strokeWidth="0.45" strokeMiterlimit="22.9256"/>
<path fillRule="evenodd" clipRule="evenodd" d="M26.6044 48.0843C25.0694 48.8386 23.9194 47.9022 23.3751 47.0936C23.3436 46.9938 23.5064 46.9081 23.5799 47.0376C24.5583 48.0685 25.6557 48.1805 26.5729 47.3684C27.1033 46.9028 26.6272 46.2097 27.3395 46.9343C28.3022 47.967 27.0647 50.4244 27.4481 52.0137C27.4761 52.138 27.3238 52.1555 27.287 52.019C26.972 51.1018 27.2258 48.6794 27.028 48.1035C26.9597 47.9267 26.7654 47.9915 26.6044 48.0843Z" fill="#3F260A" stroke="#3F260A" strokeWidth="0.45" strokeMiterlimit="22.9256"/>
<path fillRule="evenodd" clipRule="evenodd" d="M18.8209 45.5481C19.0625 45.5866 19.0835 45.7144 19.213 45.7967C19.3513 45.8982 19.5035 45.7214 19.3583 45.5902C18.8927 45.1841 18.1208 45.1403 17.7637 45.7354C17.1039 45.907 17.2614 46.8399 17.9353 46.8784C18.4008 46.9011 18.5776 46.7436 18.5829 46.5318C18.5934 46.1765 18.2363 46.3445 18.1628 46.1467C18.091 45.9052 18.2573 45.7949 18.4779 45.8142C18.4166 45.6444 18.5111 45.5131 18.8209 45.5481Z" fill="#3F260A" stroke="#3F260A" strokeWidth="0.45" strokeMiterlimit="22.9256"/>
<path fillRule="evenodd" clipRule="evenodd" d="M24.7215 47.0778C24.5727 46.3741 24.1806 46.2394 23.7465 46.0433C23.7343 45.9243 23.5592 45.9121 23.6643 45.7843C23.8866 45.527 24.1929 45.793 24.4362 45.7108C25.8382 45.2469 25.5669 46.3986 26.0569 46.7575C25.7034 47.0445 25.2115 47.2055 24.7215 47.0778Z" fill="#3F260A" stroke="#3F260A" strokeWidth="0.45" strokeMiterlimit="22.9256"/>
<path d="M24.7283 46.3076C24.8317 46.3076 24.9156 46.2057 24.9156 46.0801C24.9156 45.9544 24.8317 45.8525 24.7283 45.8525C24.6249 45.8525 24.541 45.9544 24.541 46.0801C24.541 46.2057 24.6249 46.3076 24.7283 46.3076Z" fill="#FEFEFE" stroke="#3F260A" strokeWidth="0.45" strokeMiterlimit="22.9256"/>
<path fillRule="evenodd" clipRule="evenodd" d="M24.7704 46.7856C24.7669 46.7804 24.7476 46.7559 24.7529 46.7243C25.1484 46.7629 25.4985 46.4846 25.4932 46.0837C25.5422 46.145 25.6053 46.271 25.6298 46.348C25.544 46.7401 25.1274 46.8731 24.7704 46.7856Z" fill="#FEFEFE" stroke="#3F260A" strokeWidth="0.45" strokeMiterlimit="22.9256"/>
<path fillRule="evenodd" clipRule="evenodd" d="M27.3819 41.8303C27.3854 41.8321 27.3959 41.8461 27.3959 41.8548C27.2839 42.8805 26.0429 43.7032 27.1928 44.3595C27.1928 44.363 27.1893 44.5275 27.1928 44.5538C26.9705 44.3823 26.5435 44.2195 26.3229 44.2125C26.0464 43.4686 27.1071 42.646 27.3819 41.8303Z" fill="#3F260A" stroke="#3F260A" strokeWidth="0.45" strokeMiterlimit="22.9256"/>
<path fillRule="evenodd" clipRule="evenodd" d="M30.4703 43.4021C29.2731 45.5077 30.143 44.8163 29.5602 47.0147C29.4814 46.6174 29.2906 46.2341 28.8828 45.884C29.2976 45.5917 29.4289 45.3187 29.5077 44.8286C29.6092 44.1792 30.0993 44.0147 30.4703 43.4021Z" fill="#3F260A" stroke="#3F260A" strokeWidth="0.45" strokeMiterlimit="22.9256"/>
<path fillRule="evenodd" clipRule="evenodd" d="M15.0466 77.1796C15.2672 70.3744 18.6208 65.9024 21.2217 60.8247C21.8448 60.4676 22.6692 60.1001 23.5409 60.0178C20.1628 66.6848 17.7263 71.0728 17.5636 77.4177C17.5268 84.9877 20.8664 94.6582 31.0357 95.6121C29.8332 95.7994 27.9832 95.7627 26.0228 95.3233C18.2269 92.2848 14.9171 85.7404 15.0466 77.1796Z" fill="#FEFEFE" stroke="#3F260A" strokeWidth="0.45" strokeMiterlimit="22.9256"/>
<path fillRule="evenodd" clipRule="evenodd" d="M19.1276 77.4422C19.0961 85.14 23.3546 94.0299 32.0099 94.8403C32.759 94.9225 33.5081 94.9103 34.2573 94.8052C33.3051 95.2131 32.3354 95.4616 31.0349 95.6121C20.8656 94.6582 17.526 84.9878 17.5628 77.4177C17.7256 71.0728 20.162 66.6848 23.5401 60.0178C23.9777 60.2419 24.4188 60.5674 24.6095 60.984C22.0103 66.0966 19.2816 71.6084 19.1276 77.4422Z" fill="#FEFEFE" stroke="#3F260A" strokeWidth="0.45" strokeMiterlimit="22.9256"/>
<path fillRule="evenodd" clipRule="evenodd" d="M39.5604 43.5195L47.8831 66.3086C46.0786 69.9282 42.8825 72.3104 38.4997 73.6371C38.1374 73.6266 37.7838 73.6091 37.4373 73.5829L36.9297 44.0044C37.8521 43.9886 38.7378 43.8188 39.5604 43.5195Z" fill="#FEFEFE" stroke="#3F260A" strokeWidth="0.45" strokeMiterlimit="22.9256"/>
<path fillRule="evenodd" clipRule="evenodd" d="M24.7793 62.1777L27.7321 55.7261C27.8318 55.7891 27.9509 55.8381 28.1031 55.8889C28.6702 56.0674 29.0851 55.7068 29.2478 55.2938C29.4929 54.6461 28.952 54.0685 28.4637 54.1245L33.4311 43.2761C34.2992 43.6734 35.2497 43.922 36.2508 43.9885L34.2975 73.0734C28.7928 71.6434 25.7175 67.6334 24.7793 62.1777Z" fill="#FEFEFE" stroke="#3F260A" strokeWidth="0.45" strokeMiterlimit="22.9256"/>
<path fillRule="evenodd" clipRule="evenodd" d="M61.2523 58.2692C60.2283 57.5253 58.7791 57.4186 57.8462 58.4775C56.9553 59.4629 57.0183 62.435 55.9821 64.1328C53.3251 68.6328 47.2025 69.2542 45.8671 69.2612C44.0345 71.274 41.556 72.7128 38.5 73.6369C40.3623 73.686 42.4224 73.5144 44.6838 73.0909C52.9261 71.2495 57.3631 68.3895 57.981 61.9904C58.1665 59.9495 58.3765 58.8311 59.2447 58.2622C59.8205 57.9069 60.6642 57.9069 61.2523 58.2692Z" fill="#3F260A" stroke="#3F260A" strokeWidth="0.45" strokeMiterlimit="22.9256"/>
<path fillRule="evenodd" clipRule="evenodd" d="M5.83173 69.3872C11.2577 65.589 15.8103 68.1077 20.5483 62.0972C18.0769 66.6725 15.2484 70.9485 15.0454 77.1796C14.9158 85.7404 18.2257 92.2848 26.0216 95.3233C14.6831 94.3204 4.5295 82.4935 5.83173 69.3872Z" fill="#3F260A" stroke="#3F260A" strokeWidth="0.45" strokeMiterlimit="22.9256"/>
<path fillRule="evenodd" clipRule="evenodd" d="M19.6642 63.7092C15.2936 67.8085 10.8321 67.0401 6.68036 69.8791C6.57709 71.1638 6.47732 72.9719 6.87289 74.2566C9.82217 71.9339 13.8164 71.2513 16.6711 69.683C17.513 67.5809 18.5895 65.6486 19.6642 63.7092Z" fill="#FEFEFE" stroke="#3F260A" strokeWidth="0.45" strokeMiterlimit="22.9256"/>
<path fillRule="evenodd" clipRule="evenodd" d="M16.3007 70.658C13.2079 72.256 9.68281 72.7321 7.32689 74.5646C7.20962 75.7234 7.36715 77.6522 7.76972 78.8792L8.22655 79.1085C10.0836 76.525 12.8106 76.0594 15.2505 74.8535C15.4676 73.3552 15.8334 71.9689 16.3007 70.658Z" fill="#FEFEFE" stroke="#3F260A" strokeWidth="0.45" strokeMiterlimit="22.9256"/>
<path fillRule="evenodd" clipRule="evenodd" d="M9.97394 83.8589C9.37184 82.8927 8.50193 80.9411 8.45117 79.9207C9.70789 77.1955 12.6869 76.9084 15.1479 75.6797C15.0971 76.1663 15.0621 76.6669 15.0463 77.1797C15.0323 78.0321 15.0551 78.8635 15.1111 79.6739C13.2103 80.4423 11.698 81.3874 10.3205 83.9026L9.97394 83.8589Z" fill="#FEFEFE" stroke="#3F260A" strokeWidth="0.45" strokeMiterlimit="22.9256"/>
<path fillRule="evenodd" clipRule="evenodd" d="M15.1977 80.6523C13.3021 81.2965 11.7654 82.6162 10.8359 84.3542C11.1335 85.8245 12.0542 86.8169 12.847 87.7674L13.2566 87.7166C13.8955 86.9605 14.5501 85.8578 16.0606 84.8793C15.6423 83.5544 15.357 82.1419 15.1977 80.6523Z" fill="#FEFEFE" stroke="#3F260A" strokeWidth="0.45" strokeMiterlimit="22.9256"/>
<path fillRule="evenodd" clipRule="evenodd" d="M16.2522 85.4568C15.2405 86.0869 14.1904 87.2456 13.8105 88.0367C14.2114 88.9101 15.174 90.1144 15.8794 90.657L16.1612 90.6325C16.4745 89.8833 17.0101 89.0169 17.6682 88.5023C17.1029 87.5519 16.632 86.535 16.2522 85.4568Z" fill="#FEFEFE" stroke="#3F260A" strokeWidth="0.45" strokeMiterlimit="22.9256"/>
<path fillRule="evenodd" clipRule="evenodd" d="M17.9382 88.9382C17.4008 89.3863 16.9825 90.0077 16.6797 90.7953C17.3361 91.5252 17.9907 92.2936 18.9498 92.8029L19.2474 92.7942C19.3052 92.1676 19.5292 91.709 19.86 91.3554C19.1336 90.6115 18.493 89.8046 17.9382 88.9382Z" fill="#FEFEFE" stroke="#3F260A" strokeWidth="0.45" strokeMiterlimit="22.9256"/>
<path fillRule="evenodd" clipRule="evenodd" d="M45.1818 76.0734C32.6425 78.7671 25.5275 74.6346 21.0625 68.6521C22.0724 66.0091 23.3572 63.4502 24.6104 60.984C25.6133 69.9368 31.9162 75.4765 44.6847 73.0909C52.9269 71.2495 57.3639 68.3895 57.9818 61.9904C58.1673 59.9495 58.3774 58.8311 59.2455 58.2622C60.1277 57.7197 61.6329 58.0067 61.8972 59.1514C62.1405 60.3906 61.5297 61.1048 60.8505 61.229C60.2537 61.3253 59.7706 60.893 59.6813 60.4991C59.466 59.4892 60.4235 59.1146 60.8873 59.7745C60.9591 59.3387 60.3955 58.9711 60.0121 59.0849C58.927 59.407 59.4118 61.3795 59.5658 62.4892C60.0769 64.9642 58.6189 68.4631 55.4963 71.0815C52.5401 73.3202 49.1742 75.1475 45.1818 76.0734Z" fill="#FEFEFE" stroke="#3F260A" strokeWidth="0.45" strokeMiterlimit="22.9256"/>
<path fillRule="evenodd" clipRule="evenodd" d="M59.9811 60.9752C61.4741 69.97 61.0401 78.9264 51.4624 87.6989C44.6519 93.2177 40.1641 95.5631 31.0345 95.6121C32.335 95.4616 33.3046 95.213 34.2568 94.8052C33.5077 94.9102 32.7585 94.9225 32.0094 94.8402C23.3541 94.0298 19.0956 85.14 19.1271 77.4421C19.2076 74.4228 19.976 71.4876 21.0612 68.6521C25.5263 74.6346 32.6413 78.7671 45.1805 76.0734C49.1729 75.1475 52.5388 73.3201 55.4951 71.0815C58.6176 68.463 60.0756 64.9642 59.5645 62.4892C59.4105 61.3795 58.9257 59.4069 60.0109 59.0849C60.3942 58.9711 60.9578 59.3387 60.886 59.7745C60.4222 59.1146 59.4648 59.4892 59.6801 60.4991C59.7168 60.6654 59.8253 60.8387 59.9811 60.9752Z" fill="#3F260A" stroke="#3F260A" strokeWidth="0.45" strokeMiterlimit="22.9256"/>
<path fillRule="evenodd" clipRule="evenodd" d="M19.2758 75.4697C31.5683 85.2451 50.5609 82.3834 59.68 69.5886C59.8305 70.455 59.8288 71.3914 59.6292 72.1458C50.6641 84.7306 33.3133 87.8199 19.3879 80.8554C19.2093 79.7107 19.1236 78.5642 19.1271 77.4423C19.1446 76.7806 19.1953 76.1225 19.2758 75.4697Z" fill="#FEFEFE" stroke="#3F260A" strokeWidth="0.45" strokeMiterlimit="22.9256"/>
<path fillRule="evenodd" clipRule="evenodd" d="M19.5469 81.7462C31.8376 87.8951 49.8447 86.1378 59.3979 72.9299C59.2001 73.9224 58.7486 75.8722 58.164 76.8034C48.6143 89.4179 31.9951 90.5853 20.9559 86.22C20.3205 84.7953 19.8497 83.2813 19.5469 81.7462Z" fill="#FEFEFE" stroke="#3F260A" strokeWidth="0.45" strokeMiterlimit="22.9256"/>
<path fillRule="evenodd" clipRule="evenodd" d="M21.4258 87.2C33.9843 91.4743 47.9307 88.8138 57.1409 78.6655C56.8241 79.6317 56.4845 81.1177 56.0014 81.5028C48.0883 89.7835 36.2737 94.126 23.7817 90.6429C22.8593 89.6172 22.0734 88.4515 21.4258 87.2Z" fill="#FEFEFE" stroke="#3F260A" strokeWidth="0.45" strokeMiterlimit="22.9256"/>
<path fillRule="evenodd" clipRule="evenodd" d="M24.6387 91.5164C35.6761 93.846 45.0578 91.182 53.8548 84.0303C52.9709 85.0385 52.6051 85.5075 51.7212 86.5157C44.3279 92.4335 34.9918 94.8157 27.8855 93.7287C26.6778 93.1616 25.5961 92.409 24.6387 91.5164Z" fill="#FEFEFE" stroke="#3F260A" strokeWidth="0.45" strokeMiterlimit="22.9256"/>
<path fillRule="evenodd" clipRule="evenodd" d="M29.416 94.3239C34.5917 94.4359 39.006 93.6535 44.5842 91.2888C42.5031 93.1109 37.8578 94.7247 34.2574 94.8052C33.5082 94.9102 32.7591 94.9225 32.01 94.8402C31.0963 94.7562 30.2317 94.5794 29.416 94.3239Z" fill="#FEFEFE" stroke="#3F260A" strokeWidth="0.45" strokeMiterlimit="22.9256"/>
<path fillRule="evenodd" clipRule="evenodd" d="M20.6694 69.7251C28.8608 80.5 46.8785 80.1622 57.3261 69.7094C58.3081 68.5874 59.0292 67.3447 59.563 65.9812C59.9113 66.6866 59.9639 67.924 59.9796 68.7992C51.2631 81.4994 31.7436 85.2311 19.4512 74.2952C19.7207 72.7461 20.1443 71.2216 20.6694 69.7251Z" fill="#FEFEFE" stroke="#3F260A" strokeWidth="0.45" strokeMiterlimit="22.9256"/>
<path fillRule="evenodd" clipRule="evenodd" d="M13.9609 47.9196C14.1902 48.0771 14.3373 48.2854 14.8291 48.3204C14.8221 48.2802 14.8168 48.2399 14.8116 48.1997C14.7976 48.1331 14.7486 48.0596 14.6541 48.0824C14.3583 48.2259 14.2445 48.0316 13.9609 47.9196ZM15.7463 48.2137C15.8408 48.2067 15.9318 48.2137 16.0176 48.2469C16.3676 48.3782 16.7317 48.499 17.1115 48.2994C17.2095 48.2347 17.3495 48.1681 17.5246 48.1209C17.5036 48.0264 17.4896 47.9284 17.4861 47.8268C17.4791 47.7271 17.3548 47.6938 17.304 47.7166C17.1675 47.7656 16.9085 48.0946 16.5987 48.1279C16.3204 48.1331 16.0736 47.8373 15.8373 48.0229C15.797 48.0771 15.7673 48.1419 15.7463 48.2137Z" fill="#3F260A" stroke="#3F260A" strokeWidth="0.45" strokeMiterlimit="22.9256"/>
<path fillRule="evenodd" clipRule="evenodd" d="M28.8577 37.4319L1.40582 42.6146C1.2728 43.4214 1.16953 44.2073 1.09777 44.9757L3.95427 44.5486C4.55463 44.4384 4.60539 44.8392 4.1223 45.0265L1.02775 45.9401C0.934987 48.0388 1.07326 50.1531 1.46533 52.0715L2.04118 51.9787C2.48051 51.8894 2.7273 52.292 2.35799 52.4758L1.63511 52.8259C1.90816 53.9338 2.27222 54.963 2.73081 55.8696L14.948 48.7179C14.8815 48.5586 14.8307 48.3818 14.8114 48.1998C14.7974 48.1333 14.7484 48.0598 14.6557 48.0825C14.3406 48.2348 14.2303 48.0073 13.9048 47.8987C13.756 47.8585 13.7123 47.5679 13.9993 47.3561C14.4509 47.0778 14.6889 46.67 14.6714 45.8964C14.6977 44.4471 15.7899 45.163 16.3185 45.1613C16.7945 44.1443 17.9287 44.0953 18.8162 44.6834C19.2712 44.6292 19.8156 44.7499 20.0781 45.0772C20.3617 44.911 20.7835 44.8427 21.2981 45.002L21.7847 44.7167C21.8372 44.5889 21.8372 44.4664 21.8669 44.3754C21.9265 44.1881 22.1435 44.0323 22.4183 44.006C22.5881 43.9833 22.7053 44.0481 22.8209 44.1111L29.8239 40.0118C29.3635 39.2277 29.031 38.3578 28.8577 37.4319ZM15.7321 48.2593L16.1784 47.9985C16.0612 47.9547 15.9474 47.9372 15.8371 48.023C15.7881 48.0878 15.7549 48.1683 15.7321 48.2593Z" fill="#FEFEFE" stroke="#3F260A" strokeWidth="0.45" strokeMiterlimit="22.9256"/>
<path fillRule="evenodd" clipRule="evenodd" d="M37.4453 27.8874L39.0171 8.564C41.6758 8.2857 44.1438 8.64976 46.4577 9.52317L46.1811 10.5086C46.1216 10.7414 46.5102 10.9024 46.6239 10.6836L47.0195 9.74721C47.2488 9.84347 47.4763 9.94324 47.7021 10.0483L46.4979 13.5839C46.4664 13.8167 46.7412 13.8412 46.8042 13.6679L48.3252 10.3546C48.6508 10.5208 48.9711 10.6959 49.2897 10.8832L40.3963 28.7083C39.4949 28.2585 38.499 27.9714 37.4453 27.8874Z" fill="#FEFEFE" stroke="#3F260A" strokeWidth="0.45" strokeMiterlimit="22.9256"/>
<path fillRule="evenodd" clipRule="evenodd" d="M43.2539 31.0939L62.0505 17.0144C62.6596 17.7968 63.1584 18.6387 63.5505 19.5384L60.2249 21.574C60.0516 21.7332 60.2477 21.9275 60.4069 21.8348L63.8166 20.2C64.4432 21.9048 64.7127 23.8021 64.6444 25.8832L63.2144 26.4048C62.9676 26.4923 63.0867 26.8389 63.2897 26.8284L64.6129 26.5168C64.5797 27.0384 64.5272 27.5723 64.4519 28.1149L44.5614 33.7369C44.2883 32.7707 43.8403 31.8763 43.2539 31.0939Z" fill="#FEFEFE" stroke="#3F260A" strokeWidth="0.45" strokeMiterlimit="22.9256"/>
<path fillRule="evenodd" clipRule="evenodd" d="M3.51816 39.8805C3.48666 39.3729 3.47266 38.8758 3.47266 38.391L4.73463 38.2982C4.99368 38.2562 4.93767 37.8939 4.73463 37.8694L3.48141 37.8029C3.52166 36.4219 3.6967 35.1301 4.01525 33.9364L8.14073 34.1885C8.37527 34.178 8.35077 33.9032 8.16874 33.8717L4.16228 33.4271C4.52634 32.2456 5.04093 31.1639 5.71305 30.1873L28.8522 34.465C28.7646 34.9411 28.7191 35.4329 28.7191 35.9335C28.7191 36.2556 28.7384 36.5724 28.7751 36.8839L3.51816 39.8805Z" fill="#FEFEFE" stroke="#3F260A" strokeWidth="0.45" strokeMiterlimit="22.9256"/>
<path fillRule="evenodd" clipRule="evenodd" d="M28.7407 36.534L28.7197 35.9336L9.6133 36.0106C9.51703 36.0124 9.53278 36.2714 9.6133 36.2697L28.7407 36.534Z" fill="#3F260A" stroke="#3F260A" strokeWidth="0.45" strokeMiterlimit="22.9256"/>
<path fillRule="evenodd" clipRule="evenodd" d="M29.1028 38.4172L29.0083 38.0776L17.0694 41.3245C16.9767 41.3507 17.0064 41.447 17.0834 41.426L29.1028 38.4172Z" fill="#3F260A" stroke="#3F260A" strokeWidth="0.45" strokeMiterlimit="22.9256"/>
<path fillRule="evenodd" clipRule="evenodd" d="M29.4795 39.3571L29.2589 38.8425L6.67293 47.4681C6.58366 47.5066 6.62742 47.5993 6.70093 47.5661L29.4795 39.3571Z" fill="#3F260A" stroke="#3F260A" strokeWidth="0.45" strokeMiterlimit="22.9256"/>
<path fillRule="evenodd" clipRule="evenodd" d="M28.7342 35.4399L28.7657 35.0619L19.6396 34.3547C19.4366 34.3582 19.4646 34.5403 19.6431 34.5543L28.7342 35.4399Z" fill="#3F260A" stroke="#3F260A" strokeWidth="0.45" strokeMiterlimit="22.9256"/>
<path fillRule="evenodd" clipRule="evenodd" d="M37.9191 43.9272L37.541 43.971L38.6507 53.0586C38.6962 53.2564 38.8677 53.1916 38.8467 53.0149L37.9191 43.9272Z" fill="#3F260A" stroke="#3F260A" strokeWidth="0.45" strokeMiterlimit="22.9256"/>
<path fillRule="evenodd" clipRule="evenodd" d="M40.8223 28.9376L49.1257 14.5273C50.8498 14.6254 52.4093 14.9264 53.7518 15.4918L53.1847 16.4527C53.0989 16.7905 53.5155 16.8483 53.7326 16.6487L54.7827 16.0011C55.8399 16.6137 56.7256 17.4364 57.41 18.5058L42.9559 30.723C42.3555 30.0123 41.6327 29.4067 40.8223 28.9376Z" fill="#FEFEFE" stroke="#3F260A" strokeWidth="0.45" strokeMiterlimit="22.9256"/>
<path fillRule="evenodd" clipRule="evenodd" d="M30.1098 31.4039L10.1055 17.8425C11.3132 16.1202 12.8044 14.8057 14.5548 13.8588L15.1446 14.3909C15.4159 14.6114 15.5507 14.3454 15.4159 14.1651L14.9503 13.654C15.2374 13.5105 15.5314 13.3774 15.8307 13.2532L18.0204 15.7281C18.2024 15.8769 18.3669 15.6563 18.2532 15.5111L16.3033 13.0659C17.07 12.7788 17.8751 12.5495 18.7205 12.3745L31.8793 29.5276C31.195 30.0544 30.5963 30.688 30.1098 31.4039Z" fill="#FEFEFE" stroke="#3F260A" strokeWidth="0.45" strokeMiterlimit="22.9256"/>
<path fillRule="evenodd" clipRule="evenodd" d="M60.3302 52.1538L59.9924 52.8346L59.427 52.5336C59.1977 52.4216 59.3675 51.8457 59.6563 51.9297L60.3302 52.1538Z" stroke="#3F260A" strokeWidth="0.45" strokeMiterlimit="22.9256"/>
<path fillRule="evenodd" clipRule="evenodd" d="M8.32227 28.5718C8.56031 27.8576 8.84911 27.1908 9.18342 26.5659L9.47747 26.6867C9.76102 26.7899 9.96931 26.2263 9.74877 26.0986L9.52998 25.962C10.4489 24.462 11.6601 23.2316 13.1269 22.2339L29.8038 31.8886C29.4398 32.5152 29.158 33.1943 28.9742 33.912L8.32227 28.5718Z" fill="#FEFEFE" stroke="#3F260A" strokeWidth="0.45" strokeMiterlimit="22.9256"/>
<path fillRule="evenodd" clipRule="evenodd" d="M42.7682 41.3596L57.6581 54.8755C57.3063 58.1906 55.8536 61.0436 53.1021 63.3505L50.5694 59.9462C50.3996 59.7589 49.9638 60.0739 50.1371 60.333L52.1324 64.1014C51.5391 64.5267 50.8967 64.931 50.2018 65.3144L40.1445 43.2797C41.1457 42.8211 42.0366 42.1648 42.7682 41.3596Z" fill="#FEFEFE" stroke="#3F260A" strokeWidth="0.45" strokeMiterlimit="22.9256"/>
<path fillRule="evenodd" clipRule="evenodd" d="M44.6836 34.2235L64.4534 29.937C64.5689 30.4744 64.6546 31.01 64.7089 31.5438L64.0228 31.7433C63.6937 31.8589 63.8757 32.2387 64.1628 32.3087L64.7754 32.4575C64.8052 33.2276 64.7719 33.9925 64.6774 34.7556L60.2964 35.0549C59.8763 35.0637 59.8465 35.293 60.2771 35.3297L64.5741 35.4417C64.3623 36.653 63.9895 37.8572 63.4592 39.0509L44.8114 36.8717C44.8464 36.5637 44.8656 36.2504 44.8656 35.9336C44.8656 35.3472 44.8026 34.7749 44.6836 34.2235Z" fill="#FEFEFE" stroke="#3F260A" strokeWidth="0.45" strokeMiterlimit="22.9256"/>
<path fillRule="evenodd" clipRule="evenodd" d="M44.7025 37.5491L61.3864 40.9569C61.4372 41.4925 61.4792 42.0229 61.509 42.5497L58.7102 42.1314C58.3024 42.0911 58.1589 42.4937 58.5912 42.6337L61.5457 43.3006C61.565 43.8589 61.572 44.412 61.5632 44.9599L59.5259 44.5293C59.111 44.4961 58.8625 44.9249 59.2458 45.0684L61.5282 45.9821C61.3689 48.8823 60.7126 51.5621 59.2318 53.8812L43.0957 40.9762C43.8816 39.9943 44.4417 38.8268 44.7025 37.5491Z" fill="#FEFEFE" stroke="#3F260A" strokeWidth="0.45" strokeMiterlimit="22.9256"/>
<path fillRule="evenodd" clipRule="evenodd" d="M30.1081 40.4617L26.9628 42.5918C26.5777 43.1501 26.1331 43.6997 26.3239 44.2126C26.5445 44.2196 26.9715 44.3824 27.1938 44.5539C27.0643 43.1659 29.6093 43.1309 30.4862 42.0124C30.5982 41.8689 30.8607 41.9022 30.859 42.1577C30.7907 42.7336 30.6437 43.1169 30.4704 43.4022H30.4722C29.9856 44.2563 29.8403 44.6519 29.8 44.9652L31.8497 42.317C31.1758 41.7937 30.5877 41.167 30.1081 40.4617ZM19.3034 47.778L18.4405 48.3626C18.311 48.6566 18.2848 49.0487 18.1727 49.0644C18.0765 49.0522 17.9434 48.9489 17.8209 48.7826L1.24023 60.0126C1.39601 60.5815 1.57104 61.1468 1.76358 61.7017L6.63644 58.7472C6.90424 58.5861 7.19479 59.0395 6.99876 59.1987L2.29917 63.1054C2.48996 63.5623 2.69474 64.0121 2.91178 64.4532L3.33536 64.1294C3.71342 63.8773 3.93921 64.2414 3.65216 64.5354L3.17783 64.9765C3.54539 65.6749 3.94796 66.347 4.38379 66.9876L6.36514 65.5314C6.7047 65.3038 6.90774 65.7572 6.63644 66.074L4.98415 67.819C5.20469 68.1096 5.43573 68.3931 5.67377 68.6662L5.79454 68.5839C7.37332 67.504 9.03087 66.8686 10.8442 66.3085C11.9276 65.9724 13.0111 65.6714 14.0665 65.2846L25.174 50.939C24.2463 50.3614 23.2416 50.2634 22.5958 50.8568C22.0934 51.3311 22.1337 51.6654 22.4085 51.9542C22.7603 52.2553 22.503 52.8679 21.9429 52.7611C21.2358 52.6228 20.6127 52.6491 20.4621 53.2284C20.3921 53.6082 20.4061 54.0808 20.0158 54.3661C19.7533 54.5324 19.5117 54.5202 19.1354 54.3154C18.8256 54.0948 18.2725 54.1578 17.7894 54.3154C16.9143 54.5692 16.7235 54.0476 16.4854 53.6117C16.3734 53.3965 16.1844 53.0044 16.5572 52.9431C16.8793 52.8871 16.965 52.7734 16.951 52.4828C16.923 52.257 16.9405 51.9892 17.0315 51.7442C17.0648 51.6514 17.2153 51.6444 17.2556 51.7109C17.4796 52.397 17.8594 52.7786 18.4213 52.7874C18.6208 52.7681 18.9306 52.7488 18.9709 52.5756C18.9849 52.327 19.0076 52.0452 19.1179 51.8614C19.1372 51.8492 19.3139 51.8352 19.3192 51.8667C19.3542 52.103 19.4522 52.4548 19.6745 52.4355C20.1348 52.3743 20.3676 50.3579 21.4143 50.3807C22.2632 50.3842 22.356 49.8923 21.9534 49.3847C21.3688 48.5971 20.5217 47.9968 19.8093 47.8322C19.6062 47.7885 19.4452 47.7675 19.3034 47.778Z" fill="#FEFEFE"/>
<path d="M28.9196 45.9156C28.9476 45.9419 28.9756 45.9681 29.0037 45.9944M30.1081 40.4617L26.9628 42.5918C26.5777 43.1501 26.1331 43.6997 26.3239 44.2126C26.5445 44.2196 26.9715 44.3824 27.1938 44.5539C27.0643 43.1659 29.6093 43.1309 30.4862 42.0124C30.5982 41.8689 30.8607 41.9022 30.859 42.1577C30.7907 42.7336 30.6437 43.1169 30.4704 43.4022H30.4722C29.9856 44.2563 29.8403 44.6519 29.8 44.9652L31.8497 42.317C31.1758 41.7937 30.5877 41.167 30.1081 40.4617ZM19.3034 47.778L18.4405 48.3626C18.311 48.6566 18.2848 49.0487 18.1727 49.0644C18.0765 49.0522 17.9434 48.9489 17.8209 48.7826L1.24023 60.0126C1.39601 60.5815 1.57104 61.1468 1.76358 61.7017L6.63644 58.7472C6.90424 58.5861 7.19479 59.0395 6.99876 59.1987L2.29917 63.1054C2.48996 63.5623 2.69474 64.0121 2.91178 64.4532L3.33536 64.1294C3.71342 63.8773 3.93921 64.2414 3.65216 64.5354L3.17783 64.9765C3.54539 65.6749 3.94796 66.347 4.38379 66.9876L6.36514 65.5314C6.7047 65.3038 6.90774 65.7572 6.63644 66.074L4.98415 67.819C5.20469 68.1096 5.43573 68.3931 5.67377 68.6662L5.79454 68.5839C7.37332 67.504 9.03087 66.8686 10.8442 66.3085C11.9276 65.9724 13.0111 65.6714 14.0665 65.2846L25.174 50.939C24.2463 50.3614 23.2416 50.2634 22.5958 50.8568C22.0934 51.3311 22.1337 51.6654 22.4085 51.9542C22.7603 52.2553 22.503 52.8679 21.9429 52.7611C21.2358 52.6228 20.6127 52.6491 20.4621 53.2284C20.3921 53.6082 20.4061 54.0808 20.0158 54.3661C19.7533 54.5324 19.5117 54.5202 19.1354 54.3154C18.8256 54.0948 18.2725 54.1578 17.7894 54.3154C16.9143 54.5692 16.7235 54.0476 16.4854 53.6117C16.3734 53.3965 16.1844 53.0044 16.5572 52.9431C16.8793 52.8871 16.965 52.7734 16.951 52.4828C16.923 52.257 16.9405 51.9892 17.0315 51.7442C17.0648 51.6514 17.2153 51.6444 17.2556 51.7109C17.4796 52.397 17.8594 52.7786 18.4213 52.7874C18.6208 52.7681 18.9306 52.7488 18.9709 52.5756C18.9849 52.327 19.0076 52.0452 19.1179 51.8614C19.1372 51.8492 19.3139 51.8352 19.3192 51.8667C19.3542 52.103 19.4522 52.4548 19.6745 52.4355C20.1348 52.3743 20.3676 50.3579 21.4143 50.3807C22.2632 50.3842 22.356 49.8923 21.9534 49.3847C21.3688 48.5971 20.5217 47.9968 19.8093 47.8322C19.6062 47.7885 19.4452 47.7675 19.3034 47.778Z" stroke="#3F260A" strokeWidth="0.45" strokeMiterlimit="22.9256"/>
<path fillRule="evenodd" clipRule="evenodd" d="M21.2739 48.6497C20.4443 48.6847 20.1327 49.187 19.5131 49.8101C19.0196 50.2967 18.2162 50.3265 17.5965 49.9239C17.474 49.8486 17.341 49.9501 17.369 50.0849C17.53 50.8551 18.4752 51.2821 19.1701 51.3119C19.6532 51.3259 20.0662 51.2489 20.4548 51.1264C20.6823 50.7168 20.9781 50.3702 21.414 50.3807C22.2629 50.3842 22.3556 49.8924 21.9531 49.3848C21.7518 49.1152 21.5207 48.8667 21.2739 48.6497Z" fill="#FEFEFE" stroke="#3F260A" strokeWidth="0.45" strokeMiterlimit="22.9256"/>
<path fillRule="evenodd" clipRule="evenodd" d="M18.617 48.1139C18.8393 48.1577 19.1071 48.2102 19.3101 48.2889C19.6654 48.4447 19.781 48.6635 19.5534 48.9926C19.3329 49.2901 19.1439 49.6647 19.0108 50.1215C19.1964 50.0568 19.3679 49.9517 19.5132 49.81C20.1328 49.1868 20.4443 48.6845 21.274 48.6495C20.8032 48.2364 20.2763 47.9406 19.809 47.8321C19.2716 47.7166 19.0353 47.7656 18.617 48.1139ZM18.7955 51.261C18.6695 51.8701 18.3002 52.3217 17.7559 52.5422C17.9414 52.6997 18.1619 52.782 18.421 52.7872C18.6205 52.768 18.9303 52.7487 18.9706 52.5755C18.9846 52.3269 19.0073 52.0451 19.1176 51.8613C19.1369 51.8491 19.3136 51.8351 19.3189 51.8666C19.3539 52.1029 19.4519 52.4547 19.6742 52.4354C19.9437 52.4004 20.1345 51.7003 20.4548 51.1262C20.0663 51.2487 19.6532 51.3257 19.1701 51.3117C19.0511 51.3065 18.9251 51.289 18.7955 51.261Z" fill="#3F260A" stroke="#3F260A" strokeWidth="0.45" strokeMiterlimit="22.9256"/>
<path fillRule="evenodd" clipRule="evenodd" d="M20.7789 48.7424C21.0817 48.7267 21.2147 48.8212 21.311 48.9262C21.3967 49.0365 21.3495 49.152 21.2357 49.1923C20.4901 49.4443 20.4726 49.9239 19.7672 50.2162C19.4906 50.33 19.5344 50.498 19.8722 50.4227C20.4813 50.2372 20.8489 49.8399 21.3915 49.6473C21.605 49.5791 21.6733 49.8154 21.5438 49.9851C21.318 50.2617 20.7211 50.1637 20.3028 51.1719C20.3535 51.1579 20.4043 51.1421 20.4551 51.1264C20.6826 50.7168 20.9784 50.3702 21.4142 50.3807C22.2631 50.3842 22.3559 49.8924 21.9533 49.3848C21.752 49.1152 21.521 48.8667 21.2742 48.6497C21.0852 48.6584 20.9224 48.6899 20.7789 48.7424Z" fill="#3F260A" stroke="#3F260A" strokeWidth="0.45" strokeMiterlimit="22.9256"/>
<path fillRule="evenodd" clipRule="evenodd" d="M16.5814 53.7921L10.3503 58.5389C10.1718 58.6667 10.0422 58.5494 10.1998 58.3814L16.3504 53.2827C16.3766 53.3982 16.4379 53.5208 16.4851 53.6118C16.5166 53.6695 16.5481 53.7308 16.5814 53.7921Z" fill="#3F260A" stroke="#3F260A" strokeWidth="0.45" strokeMiterlimit="22.9256"/>
<path fillRule="evenodd" clipRule="evenodd" d="M34.7981 43.7576L31.6615 53.2758C31.5722 53.4893 31.2974 53.3738 31.3429 53.176L34.1154 43.551L34.7981 43.7576Z" fill="#3F260A" stroke="#3F260A" strokeWidth="0.45" strokeMiterlimit="22.9256"/>
<path fillRule="evenodd" clipRule="evenodd" d="M25.877 65.9532L27.8548 61.1783C27.9493 60.9666 28.2206 61.0873 28.1699 61.2851L26.3828 67.0034C26.2008 66.6638 26.031 66.3138 25.877 65.9532Z" fill="#3F260A" stroke="#3F260A" strokeWidth="0.45" strokeMiterlimit="22.9256"/>
<path fillRule="evenodd" clipRule="evenodd" d="M44.4489 70.6019L42.8596 63.3066C42.8491 63.0755 43.1467 63.0598 43.1905 63.2593L45.3468 69.7985C45.0615 70.0785 44.7622 70.3463 44.4489 70.6019Z" fill="#3F260A" stroke="#3F260A" strokeWidth="0.45" strokeMiterlimit="22.9256"/>
<path fillRule="evenodd" clipRule="evenodd" d="M31.9473 72.2437L32.994 67.4514C33.0517 67.2274 33.3388 67.3009 33.323 67.5057L32.5231 72.4923C32.3288 72.4135 32.1363 72.3313 31.9473 72.2437Z" fill="#3F260A" stroke="#3F260A" strokeWidth="0.45" strokeMiterlimit="22.9256"/>
<path fillRule="evenodd" clipRule="evenodd" d="M35.7208 43.936L31.7581 63.8755C31.7335 64.0943 31.5603 64.1101 31.541 63.8808L35.1764 43.845L35.7208 43.936Z" fill="#3F260A" stroke="#3F260A" strokeWidth="0.45" strokeMiterlimit="22.9256"/>
<path fillRule="evenodd" clipRule="evenodd" d="M35.7208 43.936L31.7581 63.8755C31.7335 64.0943 31.5603 64.1101 31.541 63.8808L35.1764 43.845L35.7208 43.936Z" fill="#3F260A" stroke="#3F260A" strokeWidth="0.45" strokeMiterlimit="22.9256"/>
<path fillRule="evenodd" clipRule="evenodd" d="M43.7881 39.9646L56.5041 47.4349C56.7054 47.5242 56.6686 47.6957 56.4429 47.6432L43.4766 40.4617L43.7881 39.9646Z" fill="#3F260A" stroke="#3F260A" strokeWidth="0.45" strokeMiterlimit="22.9256"/>
<path fillRule="evenodd" clipRule="evenodd" d="M30.5475 30.8193L30.7768 30.5515L18.6104 20.5852C18.5369 20.5204 18.4739 20.5992 18.5334 20.6517L30.5475 30.8193Z" fill="#3F260A" stroke="#3F260A" strokeWidth="0.45" strokeMiterlimit="22.9256"/>
<path fillRule="evenodd" clipRule="evenodd" d="M33.1592 28.738L33.7421 28.458L29.2105 19.6119C29.0635 19.3459 28.8815 19.4859 28.99 19.7012L33.1592 28.738Z" fill="#3F260A" stroke="#3F260A" strokeWidth="0.45" strokeMiterlimit="22.9256"/>
<path fillRule="evenodd" clipRule="evenodd" d="M29.2073 33.1629L29.4384 32.5958L19.8449 29.2632C19.7557 29.2247 19.7171 29.3192 19.7907 29.3507L29.2073 33.1629Z" fill="#3F260A" stroke="#3F260A" strokeWidth="0.45" strokeMiterlimit="22.9256"/>
<path fillRule="evenodd" clipRule="evenodd" d="M31.2396 30.0769L31.5214 29.8196L25.2868 23.1159C25.1345 22.9812 25.0312 23.1334 25.1537 23.2647L31.2396 30.0769Z" fill="#3F260A" stroke="#3F260A" strokeWidth="0.45" strokeMiterlimit="22.9256"/>
<path fillRule="evenodd" clipRule="evenodd" d="M34.5757 28.1727L34.9433 28.0747L32.5279 19.2444C32.4543 19.0553 32.2933 19.1428 32.3406 19.3144L34.5757 28.1727Z" fill="#3F260A" stroke="#3F260A" strokeWidth="0.45" strokeMiterlimit="22.9256"/>
<path fillRule="evenodd" clipRule="evenodd" d="M38.5586 28.0554L39.1835 28.2217L42.3183 11.4554C42.3795 11.1596 42.1502 11.1474 42.0907 11.3819L38.5586 28.0554Z" fill="#3F260A" stroke="#3F260A" strokeWidth="0.45" strokeMiterlimit="22.9256"/>
<path fillRule="evenodd" clipRule="evenodd" d="M43.8398 31.9954L44.1339 32.5712L58.5214 25.3774C58.784 25.2252 58.6387 25.0466 58.4269 25.1587L43.8398 31.9954Z" fill="#3F260A" stroke="#3F260A" strokeWidth="0.45" strokeMiterlimit="22.9256"/>
<path fillRule="evenodd" clipRule="evenodd" d="M42.3621 41.7761L41.9141 42.1717L50.6464 51.2646C50.7951 51.4028 50.9527 51.2243 50.8354 51.0913L42.3621 41.7761Z" fill="#3F260A" stroke="#3F260A" strokeWidth="0.45" strokeMiterlimit="22.9256"/>
<path fillRule="evenodd" clipRule="evenodd" d="M41.5405 42.4622L41.0469 42.7965L44.8958 47.7428C45.0236 47.8986 45.2039 47.7428 45.1041 47.5941L41.5405 42.4622Z" fill="#3F260A" stroke="#3F260A" strokeWidth="0.45" strokeMiterlimit="22.9256"/>
<path fillRule="evenodd" clipRule="evenodd" d="M44.7832 34.7713L44.8462 35.3647L53.5855 34.0222C53.7851 33.9819 53.7308 33.7509 53.554 33.7666L44.7832 34.7713Z" fill="#3F260A" stroke="#3F260A" strokeWidth="0.45" strokeMiterlimit="22.9256"/>
<path fillRule="evenodd" clipRule="evenodd" d="M42.0625 29.8197L42.5001 30.2258L49.1968 22.9463C49.3193 22.7852 49.1268 22.6452 49.0042 22.7747L42.0625 29.8197Z" fill="#3F260A" stroke="#3F260A" strokeWidth="0.45" strokeMiterlimit="22.9256"/>
<path fillRule="evenodd" clipRule="evenodd" d="M41.2051 29.1722L41.6917 29.517L44.3994 25.122C44.5009 24.947 44.2926 24.8332 44.1876 24.9785L41.2051 29.1722Z" fill="#3F260A" stroke="#3F260A" strokeWidth="0.45" strokeMiterlimit="22.9256"/>
<path fillRule="evenodd" clipRule="evenodd" d="M44.4927 38.356L44.2949 38.9178L50.3317 40.7276C50.5278 40.7766 50.5803 40.5438 50.4123 40.4843L44.4927 38.356Z" fill="#3F260A" stroke="#3F260A" strokeWidth="0.45" strokeMiterlimit="22.9256"/>
<path fillRule="evenodd" clipRule="evenodd" d="M8.08008 67.3167L16.24 59.6573C16.5376 59.379 16.7669 59.498 16.5498 59.8551L10.422 66.4415C9.61335 66.7006 8.83446 66.9806 8.08008 67.3167Z" fill="#3F260A" stroke="#3F260A" strokeWidth="0.45" strokeMiterlimit="22.9256"/>
<path fillRule="evenodd" clipRule="evenodd" d="M25.0176 59.9898C25.2417 60.2944 24.9599 61.3901 24.6098 60.984C24.419 60.5674 23.9779 60.2419 23.5404 60.0178C22.6687 60.1001 21.8443 60.4677 21.2212 60.8247C20.9552 60.6585 21.1039 59.7763 21.8128 59.512C22.9645 56.9793 24.174 52.166 22.6092 50.8427C23.3478 50.1829 24.5398 50.4086 25.5567 51.2085C27.041 52.4723 26.957 55.3025 25.0176 59.9898Z" fill="#3F260A" stroke="#3F260A" strokeWidth="0.45" strokeMiterlimit="22.9256"/>
<path fillRule="evenodd" clipRule="evenodd" d="M23.3177 53.9933C23.4892 53.743 23.6835 53.5119 23.8953 53.2984C23.7203 53.1339 23.5365 52.9781 23.3457 52.8363C23.337 52.656 23.3194 52.4828 23.2949 52.3182C23.6118 52.5423 23.8988 52.7628 24.1824 53.0306C24.7442 52.5458 25.4093 52.1729 26.1322 51.9104C26.1952 52.0224 26.253 52.1414 26.302 52.2657C25.6316 52.5055 25.0015 52.8451 24.4589 53.3089C24.984 53.8638 25.4338 54.5061 25.7979 55.187C26.0324 55.1117 26.2687 55.0487 26.5068 54.9892C26.4893 55.1257 26.4683 55.2657 26.4438 55.4093C26.288 55.4495 26.1322 55.4933 25.9782 55.5405C26.0884 55.7646 26.1882 55.9939 26.2792 56.2232C26.2285 56.4402 26.1707 56.6625 26.1077 56.8935C25.9589 56.47 25.8031 56.0691 25.6036 55.6648C25.0523 55.8644 24.5534 56.1234 24.0773 56.4682C24.6689 57.1438 25.1205 57.9857 25.4968 58.7664C25.4356 58.9309 25.3726 59.1007 25.3061 59.2722C24.9192 58.3393 24.4659 57.4501 23.778 56.701C23.0394 57.3066 22.5546 57.956 22.1152 58.7961C22.3008 58.327 22.4793 57.8124 22.6421 57.2751C22.9011 56.967 23.1899 56.68 23.4997 56.421C23.3352 56.2704 23.1637 56.1321 22.9816 56.0131C23.0131 55.8784 23.0429 55.7418 23.0709 55.6071C23.3387 55.7803 23.5662 55.9484 23.806 56.1812C24.3084 55.8118 24.8387 55.53 25.4233 55.3148C25.0785 54.6846 24.6602 54.0895 24.1718 53.5749C23.7973 53.9495 23.4857 54.3888 23.2547 54.8929L23.1742 55.0715C23.2372 54.7039 23.2862 54.3433 23.3177 53.9933Z" fill="#FEFEFE" stroke="#3F260A" strokeWidth="0.45" strokeMiterlimit="22.9256"/>
<path fillRule="evenodd" clipRule="evenodd" d="M24.1247 59.1812C23.9864 59.0744 23.7378 59.0009 23.5646 59.0167C22.9992 59.0692 22.5161 59.2302 21.9945 59.4385L21.8125 59.512C21.8668 59.393 21.9193 59.2704 21.9735 59.1444C22.4951 58.9291 22.9537 58.6806 23.5278 58.6281C23.8026 58.6018 24.1527 58.7051 24.3697 58.8766C24.6252 59.0849 24.9298 59.3562 25.1696 59.6153C25.1206 59.7378 25.0698 59.8638 25.0173 59.9898C24.7705 59.6993 24.417 59.428 24.1247 59.1812Z" fill="#FEFEFE" stroke="#3F260A" strokeWidth="0.45" strokeMiterlimit="22.9256"/>
</svg>
