<svg width="33" height="33" viewBox="0 0 33 33" fill="none" xmlns="http://www.w3.org/2000/svg">
<path d="M17.8 16.7888V16.9337L17.9025 17.0362L21.615 20.7487C21.8475 20.9812 21.9662 21.2686 21.9662 21.6364C21.9662 22.0007 21.8487 22.3058 21.6096 22.5691C21.3444 22.832 21.0426 22.9562 20.6877 22.9562C20.329 22.9562 20.0251 22.8301 19.7587 22.5638L16.2525 19.0575C15.8976 18.7026 15.636 18.3146 15.4624 17.893C15.2888 17.4713 15.2 17.0083 15.2 16.5V11.55C15.2 11.1708 15.3246 10.8691 15.5727 10.621C15.8194 10.3743 16.1205 10.25 16.5 10.25C16.8794 10.25 17.1812 10.3743 17.4291 10.6211C17.6758 10.869 17.8 11.1707 17.8 11.55V16.7888ZM16.5 3.65C16.8794 3.65 17.1813 3.7743 17.4292 4.02126C17.6759 4.2691 17.8 4.57078 17.8 4.95C17.8 5.32933 17.6758 5.63108 17.429 5.87896C17.1811 6.12578 16.8793 6.25 16.5 6.25C16.1205 6.25 15.8194 6.12566 15.5727 5.87896C15.3246 5.63091 15.2 5.32917 15.2 4.95C15.2 4.57083 15.3246 4.26909 15.5727 4.02104C15.8194 3.77434 16.1205 3.65 16.5 3.65ZM26.1112 6.88876C23.4867 4.26425 20.2759 2.95 16.5 2.95C12.7241 2.95 9.51327 4.26425 6.88876 6.88876C4.26425 9.51327 2.95 12.7241 2.95 16.5C2.95 20.2759 4.26425 23.4867 6.88876 26.1112C9.51327 28.7357 12.7241 30.05 16.5 30.05C20.2759 30.05 23.4867 28.7357 26.1112 26.1112C28.7357 23.4867 30.05 20.2759 30.05 16.5C30.05 12.7241 28.7357 9.51327 26.1112 6.88876ZM17.429 28.9773C17.1809 29.2254 16.8792 29.35 16.5 29.35C16.1208 29.35 15.8199 29.2254 15.5731 28.9777L15.5723 28.9769C15.3246 28.7301 15.2 28.4292 15.2 28.05C15.2 27.6708 15.3246 27.3699 15.5723 27.1231L15.5731 27.1223C15.8199 26.8746 16.1208 26.75 16.5 26.75C16.8792 26.75 17.1809 26.8746 17.429 27.1227C17.6757 27.3694 17.8 27.6705 17.8 28.05C17.8 28.4295 17.6757 28.7306 17.429 28.9773ZM3.65 16.5C3.65 16.1207 3.77421 15.819 4.02099 15.5711C4.26888 15.3242 4.57064 15.2 4.95 15.2C5.32936 15.2 5.63113 15.3242 5.87902 15.5711C6.1258 15.819 6.25 16.1207 6.25 16.5C6.25 16.8795 6.12566 17.1806 5.87896 17.4273C5.63091 17.6754 5.32917 17.8 4.95 17.8C4.57083 17.8 4.26909 17.6754 4.02104 17.4273C3.77434 17.1806 3.65 16.8795 3.65 16.5ZM10.2037 31.3785L10.2036 31.3784C8.23504 30.5295 6.52616 29.3787 5.07374 27.9263C3.62132 26.4738 2.47049 24.765 1.62159 22.7964L1.62153 22.7963C0.774471 20.8345 0.35 18.7369 0.35 16.5C0.35 14.2631 0.774471 12.1655 1.62153 10.2037L1.62159 10.2036C2.47049 8.23504 3.62131 6.52616 5.07374 5.07374C6.52619 3.62128 8.23513 2.46989 10.2037 1.61988C12.1655 0.773923 14.2631 0.35 16.5 0.35C18.7369 0.35 20.8345 0.773923 22.7963 1.61988C24.7649 2.46989 26.4738 3.62128 27.9263 5.07374C29.3787 6.52616 30.5295 8.23504 31.3784 10.2036L31.3785 10.2037C32.2255 12.1655 32.65 14.2631 32.65 16.5C32.65 18.7369 32.2255 20.8345 31.3785 22.7963L31.3784 22.7964C30.5295 24.765 29.3787 26.4738 27.9263 27.9263C26.4738 29.3787 24.765 30.5295 22.7964 31.3784L22.7963 31.3785C20.8345 32.2255 18.7369 32.65 16.5 32.65C14.2631 32.65 12.1655 32.2255 10.2037 31.3785ZM28.9777 17.4269L28.9769 17.4277C28.7301 17.6754 28.4292 17.8 28.05 17.8C27.6708 17.8 27.3699 17.6754 27.1231 17.4277L27.1223 17.4269C26.8746 17.1801 26.75 16.8792 26.75 16.5C26.75 16.1208 26.8746 15.8191 27.1227 15.571C27.3694 15.3243 27.6705 15.2 28.05 15.2C28.4295 15.2 28.7306 15.3243 28.9773 15.571C29.2254 15.8191 29.35 16.1208 29.35 16.5C29.35 16.8792 29.2254 17.1801 28.9777 17.4269Z" fill="#3F260A" stroke="#FFF8EE" strokeWidth="0.7"/>
</svg>
