<svg width="25" height="25" viewBox="0 0 25 25" fill="none" xmlns="http://www.w3.org/2000/svg">
<g clipPath="url(#clip0_0_2065)">
<path d="M25.0427 2.5H-0.0427019C-0.197137 2.5 -0.345247 2.56238 -0.454449 2.67343C-0.563651 2.78447 -0.625 2.93507 -0.625 3.09211V19.1028C-0.625 19.2598 -0.563651 19.4104 -0.454449 19.5215C-0.345247 19.6325 -0.197137 19.6949 -0.0427019 19.6949H11.3354V21.1633H8.80823C8.65379 21.1633 8.50568 21.2257 8.39648 21.3368C8.28728 21.4478 8.22593 21.5984 8.22593 21.7554C8.22593 21.9125 8.28728 22.0631 8.39648 22.1741C8.50568 22.2852 8.65379 22.3476 8.80823 22.3476H16.1801C16.3346 22.3476 16.4827 22.2852 16.5919 22.1741C16.7011 22.0631 16.7624 21.9125 16.7624 21.7554C16.7624 21.5984 16.7011 21.4478 16.5919 21.3368C16.4827 21.2257 16.3346 21.1633 16.1801 21.1633H13.6646V19.6949H25.0427C25.1971 19.6949 25.3452 19.6325 25.4544 19.5215C25.5637 19.4104 25.625 19.2598 25.625 19.1028V3.09211C25.625 2.93507 25.5637 2.78447 25.4544 2.67343C25.3452 2.56238 25.1971 2.5 25.0427 2.5ZM24.4604 18.5225H0.539596V3.68422H24.4604V18.5225Z" fill="#3F260A"/>
<rect width="21.6848" height="12.1291" transform="translate(1.65747 4.70532)" fill="#3F260A"/>
</g>
<defs>
<clipPath id="clip0_0_2065">
<rect width="25" height="25" fill="white"/>
</clipPath>
</defs>
</svg>
