<svg width="19" height="12" viewBox="0 0 19 12" fill="none" xmlns="http://www.w3.org/2000/svg">
<path d="M0.38334 0.781401C0.627817 0.525997 0.921015 0.394558 1.26293 0.387083C1.60419 0.379624 1.90251 0.498132 2.15792 0.742609L9.64125 7.90578L16.8289 0.396903C17.057 0.158526 17.3461 0.0355133 17.696 0.0278642C18.0459 0.0202152 18.3486 0.138629 18.604 0.383106C18.8594 0.627583 18.9908 0.92078 18.9983 1.2627C19.0058 1.60395 18.8873 1.90228 18.6428 2.15768L10.4034 10.7398C10.3056 10.842 10.1988 10.9153 10.0831 10.9599C9.96736 11.0037 9.84285 11.0271 9.70954 11.03C9.57624 11.0329 9.45082 11.015 9.33328 10.9762C9.21572 10.9368 9.10586 10.8682 9.0037 10.7704L0.396592 2.53153C0.158215 2.30335 0.0352962 2.01864 0.0278366 1.67738C0.0203625 1.33547 0.138864 1.0368 0.38334 0.781401Z" fill="#583711"/>
</svg>
