<svg width="189" height="316" viewBox="0 0 189 316" fill="none" xmlns="http://www.w3.org/2000/svg">
<path fillRule="evenodd" clipRule="evenodd" d="M106.66 70.6265C113.354 70.6265 118.778 75.7378 118.778 82.0463C118.778 88.3547 113.354 93.466 106.66 93.466C99.9654 93.466 94.5415 88.3547 94.5415 82.0463C94.5415 75.7378 99.9654 70.6265 106.66 70.6265ZM96.9955 81.3231H104.028L98.9335 76.5263C97.8453 77.8787 97.1429 79.5294 96.9955 81.3231ZM100.442 75.0391L105.567 79.8685V72.9676C103.629 73.1719 101.86 73.9155 100.442 75.0391ZM107.752 72.9676V79.8685L112.877 75.0391C111.455 73.9155 109.69 73.1719 107.752 72.9676ZM114.386 76.5263L109.291 81.3231H116.324C116.176 79.5294 115.474 77.8787 114.386 76.5263ZM116.25 83.3782H109.291L114.1 87.9053C115.218 86.6428 115.986 85.0861 116.25 83.3782ZM112.517 89.3271L107.752 84.8328V91.1249C109.53 90.9369 111.164 90.2955 112.517 89.3271ZM105.567 91.1249V84.8328L100.802 89.3271C102.155 90.2955 103.789 90.9369 105.567 91.1249ZM99.2197 87.9053L104.028 83.3782H97.0649C97.3337 85.0861 98.0967 86.6428 99.2197 87.9053Z" stroke="#3F260A" strokeWidth="0.9" strokeMiterlimit="22.9256"/>
<path fillRule="evenodd" clipRule="evenodd" d="M106.66 69.4823C114.022 69.4823 119.992 75.1084 119.992 82.0461C119.992 88.9838 114.022 94.6099 106.66 94.6099C99.2978 94.6099 93.3276 88.9838 93.3276 82.0461C93.3276 75.1084 99.2978 69.4823 106.66 69.4823ZM106.66 70.6263C113.354 70.6263 118.778 75.7376 118.778 82.0461C118.778 88.3546 113.354 93.4659 106.66 93.4659C99.9655 93.4659 94.5416 88.3546 94.5416 82.0461C94.5416 75.7376 99.9655 70.6263 106.66 70.6263ZM96.9956 81.3229H104.028L98.9336 76.5262C97.8454 77.8786 97.143 79.5293 96.9956 81.3229ZM100.442 75.039L105.567 79.8684V72.9675C103.629 73.1718 101.86 73.9154 100.442 75.039ZM107.752 72.9675V79.8684L112.877 75.039C111.455 73.9154 109.69 73.1718 107.752 72.9675ZM114.386 76.5262L109.292 81.3229H116.324C116.177 79.5293 115.474 77.8786 114.386 76.5262ZM116.25 83.3781H109.292L114.1 87.9051C115.218 86.6426 115.986 85.0859 116.25 83.3781ZM112.517 89.327L107.752 84.8326V91.1247C109.53 90.9368 111.165 90.2953 112.517 89.327ZM105.567 91.1247V84.8326L100.802 89.327C102.155 90.2953 103.79 90.9368 105.567 91.1247ZM99.2198 87.9051L104.028 83.3781H97.065C97.3338 85.0859 98.0969 86.6426 99.2198 87.9051Z" fill="#3F260A" stroke="#3F260A" strokeWidth="0.9" strokeMiterlimit="22.9256"/>
<path fillRule="evenodd" clipRule="evenodd" d="M106.659 64.4487C116.974 64.4487 125.333 72.3261 125.333 82.0462C125.333 91.7663 116.974 99.6437 106.659 99.6437C96.3448 99.6437 87.9856 91.7663 87.9856 82.0462C87.9856 72.3261 96.3448 64.4487 106.659 64.4487ZM106.659 69.4824C114.021 69.4824 119.991 75.1085 119.991 82.0462C119.991 88.9838 114.021 94.61 106.659 94.61C99.2973 94.61 93.3271 88.9838 93.3271 82.0462C93.3271 75.1085 99.2973 69.4824 106.659 69.4824Z" stroke="#3F260A" strokeWidth="0.9" strokeMiterlimit="22.9256"/>
<path fillRule="evenodd" clipRule="evenodd" d="M106.66 63.2026C117.703 63.2026 126.656 71.6397 126.656 82.0462C126.656 92.4528 117.703 100.89 106.66 100.89C95.617 100.89 86.6638 92.4528 86.6638 82.0462C86.6638 71.6397 95.617 63.2026 106.66 63.2026ZM106.66 64.4487C116.974 64.4487 125.334 72.3261 125.334 82.0462C125.334 91.7663 116.974 99.6438 106.66 99.6438C96.3454 99.6438 87.9862 91.7663 87.9862 82.0462C87.9862 72.3261 96.3454 64.4487 106.66 64.4487Z" fill="#3F260A" stroke="#3F260A" strokeWidth="0.9" strokeMiterlimit="22.9256"/>
<path d="M74.6191 35.5623L95.7642 66.2425C98.1228 64.7961 100.82 63.8074 103.724 63.4029L98.4263 29.7605C96.7787 29.6215 95.1658 29.5603 93.5963 29.5807C94.0126 31.2599 90.7521 32.1098 90.2839 29.7564C84.3961 30.312 79.1326 32.1629 74.6191 35.5623Z" stroke="#3F260A" strokeWidth="0.9" strokeMiterlimit="22.9256"/>
<path fillRule="evenodd" clipRule="evenodd" d="M61.3955 11.8729C65.6401 15.0802 73.492 18.0383 81.0707 15.3335C92.1657 10.7656 99.0898 10.2794 106.846 17.3151V9.8463C98.7516 4.10576 88.8359 4.69003 81.2095 9.75641C75.0702 13.7237 67.6735 13.8831 61.3955 11.8729Z" fill="#3F260A" stroke="#3F260A" strokeWidth="0.9" strokeMiterlimit="22.9256"/>
<path fillRule="evenodd" clipRule="evenodd" d="M102.484 1.60929C103.269 0.130236 106.057 0.130236 106.846 1.60929V9.84625C98.7511 4.10571 88.8355 4.68998 81.209 9.75636C75.0697 13.7237 67.6731 13.883 61.395 11.8728C65.6396 15.0801 73.4915 18.0383 81.0703 15.3335C92.1652 10.7656 99.0893 10.2793 106.846 17.3151V54.7042C105.961 54.8962 105.428 54.079 105.229 52.3344C104.314 45.3886 104.782 32.788 102.484 31.4969V20.1506C97.1469 15.5092 89.0652 15.5459 82.3666 18.7328C76.3964 21.6542 66.2076 19.1864 59.8949 15.1087C53.1443 10.5899 48.1236 11.5664 43.0162 16.4611C42.7387 16.2364 42.4655 16.0117 42.1924 15.7829C46.4197 6.6961 55.7847 5.13125 61.4341 8.0485C65.5139 10.0587 72.8759 10.169 78.2608 6.88814C86.6806 1.09448 94.5238 -1.00561 102.484 2.56128V1.60929Z" stroke="#3F260A" strokeWidth="0.9" strokeMiterlimit="22.9256"/>
<path fillRule="evenodd" clipRule="evenodd" d="M55.9449 103.586C55.5634 104.432 55.1732 105.061 54.3624 105.58C54.1456 105.711 53.9115 105.629 54.0502 105.515C54.8827 104.82 55.3466 103.991 54.7526 103.378C55.1948 103.48 55.6154 103.586 55.9449 103.586Z" fill="#3F260A" stroke="#3F260A" strokeWidth="0.9" strokeMiterlimit="22.9256"/>
<path fillRule="evenodd" clipRule="evenodd" d="M79.9266 136.755C79.2025 137.928 78.3744 138.197 77.4943 138.201C82.2982 127.26 82.5063 120.653 78.8297 117.703C76.2933 115.824 73.3147 115.301 71.4937 116.882C70.2494 117.989 70.3491 118.769 71.0298 119.444C71.9013 120.146 71.2639 121.576 69.8765 121.327C68.1249 121.004 66.5814 121.066 66.2085 122.418C66.0351 123.305 66.0698 124.408 65.1029 125.074C64.4526 125.462 63.8543 125.433 62.9221 124.955C62.1547 124.44 60.7846 124.588 59.588 124.955C57.4201 125.548 56.9476 124.33 56.3579 123.313C56.0804 122.81 55.6122 121.895 56.5357 121.752C57.3334 121.621 57.5459 121.356 57.5112 120.677C57.4418 120.15 57.4852 119.525 57.7106 118.953C57.793 118.737 58.1659 118.72 58.2656 118.876C58.8206 120.477 59.7614 121.368 61.1532 121.388C61.6474 121.343 62.4148 121.298 62.5146 120.894C62.5492 120.314 62.6056 119.656 62.8788 119.227C62.9264 119.198 63.3643 119.166 63.3774 119.239C63.4641 119.791 63.7069 120.612 64.2575 120.567C65.3978 120.424 65.9744 115.717 68.5671 115.77C70.6699 115.779 70.8997 114.63 69.9025 113.446C68.4544 111.607 66.356 110.206 64.5913 109.821C63.2473 109.548 62.6663 109.666 61.6171 110.5C60.9017 111.043 60.906 112.649 60.5375 112.698C59.9739 112.628 58.916 111.378 58.8379 109.809C58.8206 109.576 58.5127 109.499 58.387 109.552C58.0488 109.666 57.4071 110.434 56.6397 110.512C55.9504 110.524 55.339 109.834 54.7537 110.267C54.021 111.17 54.7277 113.511 54.099 113.446C53.2969 113.311 52.3734 112.06 52.213 110.679C52.1783 110.524 52.0569 110.353 51.8228 110.406C51.0467 110.761 50.7736 110.23 49.9671 109.977C49.5986 109.883 49.4902 109.205 50.2013 108.71C51.3199 108.06 51.9095 107.109 51.8662 105.303C51.9139 102.773 53.44 103.072 54.7537 103.378C55.3477 103.991 54.8838 104.82 54.0513 105.515C53.9126 105.629 54.1467 105.711 54.3635 105.58C55.1743 105.062 55.5645 104.432 55.946 103.587C57.1253 101.213 59.9348 101.098 62.133 102.471C63.2603 102.344 64.6087 102.622 65.259 103.39C66.0308 102.961 67.2144 102.81 68.6712 103.341C69.6727 102.835 69.5513 102.152 69.6901 101.752C69.8375 101.315 70.3751 100.951 71.0558 100.89C71.6455 100.812 71.9793 101.143 72.3999 101.29C72.9028 101.474 73.5098 101.772 74.1731 101.699C74.7498 100.984 75.1227 100.841 76.0852 100.89C76.2846 97.3966 80.707 97.4946 82.8315 95.3333C83.0396 95.3455 83.4124 95.6356 83.3517 95.8113C82.671 97.7153 80.0436 99.6356 80.7287 101.372C81.275 101.388 82.3329 101.768 82.8835 102.169C82.5627 98.9287 88.8667 98.847 91.0389 96.2362C91.3164 95.9012 91.9667 95.9788 91.9624 96.5753C91.4248 100.804 88.9924 100.588 88.6196 102.81C88.4245 103.954 88.0993 104.592 87.0717 105.274C90.627 108.154 87.5487 111.938 88.8841 115.129C89.0228 115.476 88.741 115.77 88.3724 115.709C87.8001 115.501 86.6165 114.778 86.0876 113.907C84.9776 116.024 84.9343 118.361 86.4214 120.216C86.3043 120.539 85.4415 120.739 84.9603 120.604C84.6351 122.169 84.7435 123.484 85.2421 124.857C86.5168 123.762 88.7236 125.38 87.9736 127.239C87.5703 128.203 86.5428 129.045 85.138 128.628C84.427 128.404 84.0151 128.203 83.6639 127.758C82.8141 131.211 81.1709 134.222 79.9266 136.755Z" stroke="#3F260A" strokeWidth="0.9" strokeMiterlimit="22.9256"/>
<path fillRule="evenodd" clipRule="evenodd" d="M73.2612 101.601C73.8205 102.001 73.7598 102.871 72.6455 103.141C72.4331 103.214 72.4894 103.537 72.7756 103.578C73.3869 103.672 74.0113 102.577 74.8264 102.189C75.4637 101.756 76.5606 101.531 77.4798 102.091C78.0391 102.438 78.6938 103.133 79.2531 103.239C79.9294 103.374 79.7213 102.091 79.3615 101.85C79.0103 101.629 78.1822 101.65 77.6099 101.535C77.0506 101.392 76.6994 101 76.0837 100.89C75.1212 100.841 74.7483 100.984 74.1717 101.699C73.8508 101.731 73.5474 101.682 73.2612 101.601Z" fill="#3F260A" stroke="#3F260A" strokeWidth="0.9" strokeMiterlimit="22.9256"/>
<path fillRule="evenodd" clipRule="evenodd" d="M62.1326 102.471C64.8987 103.223 67.8166 107.64 70.6608 107.558C71.1377 107.501 71.0033 106.835 70.5177 106.835C67.8079 106.708 66.3165 104.616 66.1127 104.244C65.8526 103.893 66.3815 103.235 68.2198 103.562C68.9916 103.729 69.3471 104.163 69.7373 104.481C69.824 104.089 70.1839 104.044 70.7909 104.158C71.9919 104.346 72.8373 104.714 73.4703 105.323C73.4877 104.796 73.8475 104.555 74.3505 104.391C72.8763 104.739 71.4282 103.476 69.7373 103.799C69.178 103.885 69.178 103.112 69.4165 102.688C69.2864 102.916 69.0653 103.141 68.6707 103.341C67.214 102.81 66.0303 102.961 65.2586 103.39C64.6082 102.622 63.2598 102.344 62.1326 102.471Z" fill="#3F260A" stroke="#3F260A" strokeWidth="0.9" strokeMiterlimit="22.9256"/>
<path fillRule="evenodd" clipRule="evenodd" d="M81.4257 110.41C77.6233 112.171 74.7748 109.985 73.4264 108.097C73.3484 107.865 73.7516 107.664 73.9337 107.967C76.3573 110.373 79.0758 110.635 81.3477 108.739C82.6614 107.652 81.4821 106.034 83.2467 107.726C85.6313 110.136 82.566 115.873 83.5155 119.583C83.5849 119.873 83.2077 119.914 83.1166 119.595C82.3362 117.454 82.9649 111.799 82.4749 110.455C82.3059 110.042 81.8246 110.193 81.4257 110.41Z" fill="#3F260A" stroke="#3F260A" strokeWidth="0.9" strokeMiterlimit="22.9256"/>
<path fillRule="evenodd" clipRule="evenodd" d="M62.1451 104.49C62.7434 104.58 62.7954 104.878 63.1163 105.07C63.4588 105.307 63.836 104.894 63.4761 104.588C62.3229 103.64 60.4108 103.538 59.5263 104.927C57.8918 105.327 58.282 107.505 59.9512 107.595C61.1045 107.648 61.5424 107.28 61.5554 106.786C61.5815 105.957 60.697 106.349 60.5149 105.887C60.3371 105.323 60.749 105.066 61.2953 105.111C61.1436 104.715 61.3777 104.408 62.1451 104.49Z" fill="#3F260A" stroke="#3F260A" strokeWidth="0.9" strokeMiterlimit="22.9256"/>
<path fillRule="evenodd" clipRule="evenodd" d="M76.7603 108.06C76.3918 106.418 75.4206 106.103 74.3454 105.646C74.315 105.368 73.8815 105.339 74.1416 105.041C74.6922 104.44 75.451 105.062 76.0536 104.869C79.5265 103.787 78.8545 106.475 80.0684 107.313C79.1926 107.983 77.9743 108.359 76.7603 108.06Z" fill="#3F260A" stroke="#3F260A" strokeWidth="0.9" strokeMiterlimit="22.9256"/>
<path d="M76.7779 106.263C77.0341 106.263 77.2418 106.025 77.2418 105.731C77.2418 105.438 77.0341 105.2 76.7779 105.2C76.5217 105.2 76.314 105.438 76.314 105.731C76.314 106.025 76.5217 106.263 76.7779 106.263Z" stroke="#3F260A" strokeWidth="0.9" strokeMiterlimit="22.9256"/>
<path fillRule="evenodd" clipRule="evenodd" d="M76.8823 107.378C76.8736 107.366 76.8259 107.309 76.8389 107.235C77.8188 107.325 78.6859 106.675 78.6729 105.74C78.7943 105.883 78.9504 106.177 79.0111 106.357C78.7986 107.272 77.7667 107.582 76.8823 107.378Z" stroke="#3F260A" strokeWidth="0.9" strokeMiterlimit="22.9256"/>
<path fillRule="evenodd" clipRule="evenodd" d="M83.3507 95.8115C83.3594 95.8155 83.3854 95.8482 83.3854 95.8687C83.1079 98.2629 80.034 100.183 82.8825 101.715C82.8825 101.724 82.8738 102.108 82.8825 102.169C82.3319 101.769 81.274 101.389 80.7277 101.372C80.0426 99.6358 82.67 97.7154 83.3507 95.8115Z" fill="#3F260A" stroke="#3F260A" strokeWidth="0.9" strokeMiterlimit="22.9256"/>
<path fillRule="evenodd" clipRule="evenodd" d="M91.0035 99.48C88.0379 104.395 90.1927 102.781 88.749 107.913C88.5538 106.986 88.0813 106.091 87.071 105.274C88.0986 104.591 88.4238 103.954 88.6189 102.81C88.8703 101.294 90.0843 100.91 91.0035 99.48Z" fill="#3F260A" stroke="#3F260A" strokeWidth="0.9" strokeMiterlimit="22.9256"/>
<path fillRule="evenodd" clipRule="evenodd" d="M113.519 99.7541L134.135 152.951C129.665 161.401 121.748 166.961 110.892 170.058C109.994 170.034 109.118 169.993 108.26 169.932L107.002 100.886C109.287 100.849 111.481 100.453 113.519 99.7541Z" stroke="#3F260A" strokeWidth="0.9" strokeMiterlimit="22.9256"/>
<path fillRule="evenodd" clipRule="evenodd" d="M76.9041 143.309L84.2183 128.248C84.4654 128.395 84.7603 128.51 85.1375 128.628C86.5422 129.045 87.5698 128.203 87.973 127.239C88.58 125.727 87.2403 124.379 86.0306 124.51L98.3352 99.1862C100.486 100.114 102.84 100.694 105.32 100.849L100.481 168.743C86.8457 165.405 79.228 156.044 76.9041 143.309Z" stroke="#3F260A" strokeWidth="0.9" strokeMiterlimit="22.9256"/>
<path fillRule="evenodd" clipRule="evenodd" d="M167.251 134.185C164.714 132.449 161.124 132.199 158.813 134.671C156.607 136.972 156.763 143.909 154.196 147.873C147.614 158.377 132.448 159.828 129.14 159.844C124.601 164.543 118.461 167.901 110.891 170.058C115.505 170.173 120.608 169.772 126.209 168.784C146.626 164.485 157.617 157.809 159.147 142.872C159.607 138.108 160.127 135.497 162.278 134.169C163.704 133.339 165.794 133.339 167.251 134.185Z" fill="#3F260A" stroke="#3F260A" strokeWidth="0.9" strokeMiterlimit="22.9256"/>
<path d="M52.7927 178.327L52.3429 178.312L52.3428 178.32L52.7927 178.327ZM68.089 140.15L67.8751 139.754L67.7575 139.817L67.6936 139.935L68.089 140.15ZM73.8337 138.266L74.2301 138.479L74.6254 137.744L73.7938 137.818L73.8337 138.266ZM59.0274 178.883L58.5775 178.871L58.5774 178.881L59.0274 178.883ZM92.399 221.355L92.4644 221.8L96.254 221.244L92.4386 220.907L92.399 221.355ZM79.9817 220.681L79.8265 221.103L79.857 221.114L79.8887 221.121L79.9817 220.681ZM62.9039 178.94L62.4539 178.928L62.4539 178.938L62.9039 178.94ZM94.8143 219.553L94.8607 219.105L94.8539 219.105L94.8143 219.553ZM100.381 219.471L100.55 219.889L103.84 218.561L100.322 219.025L100.381 219.471ZM92.3994 221.355L92.3598 221.803L92.404 221.807L92.4482 221.802L92.3994 221.355ZM59.0278 178.883L58.5778 178.871L58.5778 178.881L59.0278 178.883ZM73.8341 138.266L74.0296 137.861L73.6417 137.674L73.4377 138.053L73.8341 138.266ZM76.4832 140.522L76.8792 140.735L76.9887 140.532L76.8879 140.325L76.4832 140.522ZM29.9698 160.138L29.722 159.762L29.5446 159.879L29.5223 160.09L29.9698 160.138ZM66.424 143.12L66.8145 143.344L69.3491 138.922L66.0789 142.832L66.424 143.12ZM52.7927 178.328L52.3429 178.312L52.3428 178.32L52.7927 178.328ZM79.9817 220.681L79.9443 221.129L83.2603 221.406L80.1368 220.258L79.9817 220.681ZM64.2303 146.883L64.6182 147.111L66.0527 144.672L63.9323 146.546L64.2303 146.883ZM32.0683 161.286L31.8246 160.907L31.6388 161.027L31.62 161.247L32.0683 161.286ZM32.5453 171.504L32.1175 171.644L32.3116 172.238L32.8134 171.865L32.5453 171.504ZM56.8163 160.828L57.0232 161.228L57.1671 161.153L57.2305 161.004L56.8163 160.828ZM55.9015 163.104L56.3224 163.263L56.7233 162.203L55.7045 162.699L55.9015 163.104ZM33.6725 172.223L33.4065 171.86L33.2463 171.978L33.2251 172.175L33.6725 172.223ZM34.7695 182.295L34.3445 182.443L34.4065 182.621L34.577 182.702L34.7695 182.295ZM35.9011 182.83L35.7087 183.237L36.0379 183.393L36.2589 183.103L35.9011 182.83ZM53.3001 172.897L53.4901 173.305L53.7083 173.204L53.7449 172.966L53.3001 172.897ZM40.2286 193.919L39.8533 194.167L39.9683 194.341L40.1754 194.366L40.2286 193.919ZM36.4566 184.726L36.0524 184.528L36.001 184.633L36.0072 184.75L36.4566 184.726ZM53.0448 174.826L53.4921 174.876L53.5805 174.077L52.8532 174.419L53.0448 174.826ZM52.7934 178.328L52.3435 178.313L52.3434 178.32L52.7934 178.328ZM52.9538 184.15L53.114 184.57L53.4271 184.451L53.4026 184.117L52.9538 184.15ZM41.0871 194.021L41.0339 194.468L41.3275 194.503L41.4761 194.247L41.0871 194.021ZM53.1666 186.434L53.6137 186.383L53.5519 185.838L53.0294 186.005L53.1666 186.434ZM42.3621 195.075L41.9707 194.853L41.8862 195.002L41.9222 195.17L42.3621 195.075ZM47.3438 203.042L47.0069 203.341L47.1626 203.517L47.396 203.489L47.3438 203.042ZM48.3583 202.924L48.4105 203.371L48.5797 203.351L48.6934 203.224L48.3583 202.924ZM55.3041 196.301L55.5385 196.685L55.8447 196.498L55.7308 196.158L55.3041 196.301ZM55.7803 197.649L56.2018 197.491L56.0143 196.99L55.5525 197.261L55.7803 197.649ZM49.7321 203.671L49.3311 203.467L49.2293 203.667L49.3275 203.869L49.7321 203.671ZM54.8568 209.788L54.5927 210.152L54.7276 210.25L54.8936 210.236L54.8568 209.788ZM55.5549 209.731L55.5916 210.179L55.8578 210.157L55.9662 209.913L55.5549 209.731ZM59.2879 204.758L59.5548 205.121L59.8919 204.872L59.6684 204.518L59.2879 204.758ZM59.9595 205.776L60.3317 205.523L60.0607 205.124L59.6815 205.422L59.9595 205.776ZM56.8422 210.111L56.4255 209.941L56.3155 210.211L56.5166 210.422L56.8422 210.111ZM62.4655 214.797L62.2642 215.2L62.3651 215.25L62.478 215.247L62.4655 214.797ZM63.2026 214.777L63.2151 215.227L63.6118 215.216L63.6505 214.821L63.2026 214.777ZM64.7201 211.418L65.0394 211.735L65.361 211.412L65.0326 211.095L64.7201 211.418ZM127.439 175.745L127.529 176.186L127.536 176.185L127.439 175.745ZM67.694 158.422L67.277 158.252L67.1785 158.495L67.3413 158.701L67.694 158.422ZM76.4824 140.522L76.9293 140.469L76.7614 139.056L76.0863 140.308L76.4824 140.522ZM126.208 168.783L126.286 169.226L126.294 169.225L126.301 169.223L126.208 168.783ZM159.146 142.871L159.594 142.917L159.594 142.914L159.146 142.871ZM162.277 134.168L162.051 133.779L162.04 133.785L162.277 134.168ZM168.845 136.244L169.286 136.152L169.284 136.144L169.282 136.137L168.845 136.244ZM166.252 141.094L166.32 141.539L166.329 141.537L166.252 141.094ZM163.356 139.39L162.917 139.489L162.919 139.495L163.356 139.39ZM166.343 137.698L165.983 137.967L166.607 138.804L166.787 137.776L166.343 137.698ZM164.176 136.089L164.297 136.522L164.297 136.522L164.176 136.089ZM163.07 144.035L162.625 144.101L162.627 144.117L162.63 144.132L163.07 144.035ZM152.99 164.093L153.251 164.459L153.26 164.453L153.269 164.446L152.99 164.093ZM164.103 140.502L164.546 140.423L164.517 140.26L164.389 140.155L164.103 140.502ZM143.001 202.883L143.274 203.241L143.285 203.233L143.295 203.224L143.001 202.883ZM92.3997 221.355L92.3509 220.908L83.7216 221.849L92.402 221.805L92.3997 221.355ZM100.382 219.472L100.55 219.889L103.841 218.561L100.323 219.026L100.382 219.472ZM94.8147 219.553L94.861 219.106L94.8542 219.105L94.8147 219.553ZM62.9042 178.941L62.4542 178.928L62.4542 178.939L62.9042 178.941ZM67.6951 158.422L68.0479 158.142L67.5686 157.537L67.2782 158.252L67.6951 158.422ZM127.441 175.746L127.53 176.187L127.537 176.185L127.441 175.746ZM152.991 164.093L153.252 164.459L153.261 164.453L153.27 164.446L152.991 164.093ZM163.071 144.036L162.626 144.101L162.628 144.117L162.631 144.132L163.071 144.036ZM164.177 136.089L164.298 136.522L164.298 136.522L164.177 136.089ZM166.344 137.699L165.984 137.968L166.608 138.805L166.788 137.776L166.344 137.699ZM163.357 139.39L162.918 139.489L162.919 139.493L163.357 139.39ZM63.2725 174.336L63.5424 173.976L62.9262 173.514L62.8263 174.277L63.2725 174.336ZM163.357 160.607L163.8 160.526L163.614 159.521L162.998 160.336L163.357 160.607ZM163.231 166.577L163.59 166.848L163.642 166.78L163.665 166.698L163.231 166.577ZM63.55 186.908L63.1061 186.981L63.1446 187.214L63.3582 187.315L63.55 186.908ZM62.904 178.94L62.454 178.928L62.454 178.939L62.904 178.94ZM63.9398 188.987L64.1317 188.58L63.3142 188.195L63.4994 189.08L63.9398 188.987ZM162.654 168.407L163.094 168.5L163.505 166.56L162.297 168.133L162.654 168.407ZM159.598 177.449L159.948 177.731L159.961 177.715L159.972 177.699L159.598 177.449ZM67.4301 199.431L67.0233 199.623L67.1015 199.788L67.2729 199.852L67.4301 199.431ZM68.5969 201.719L68.7343 201.29L67.6587 200.945L68.2024 201.935L68.5969 201.719ZM157.066 181.796L157.491 181.944L158.165 180.006L156.742 181.484L157.066 181.796ZM154.244 188.419L153.973 188.06L153.949 188.078L153.928 188.099L154.244 188.419ZM74.4327 209.755L74.1071 210.066L74.1951 210.158L74.3183 210.191L74.4327 209.755ZM76.5531 211.794L76.6409 211.353L74.9968 211.026L76.2561 212.132L76.5531 211.794ZM148.924 194.319L149.253 194.626L152.9 190.706L148.65 193.962L148.924 194.319ZM143.639 200.121L143.91 200.48L143.941 200.457L143.968 200.428L143.639 200.121ZM84.5957 216.959L84.4136 217.37L84.4702 217.395L84.5315 217.404L84.5957 216.959ZM88.3883 218.348L88.3975 217.898L85.0436 217.829L88.2609 218.779L88.3883 218.348ZM125.961 211.263L126.248 211.61L128.471 209.776L125.794 210.845L125.961 211.263ZM100.381 219.471L100.371 219.021L100.346 219.022L100.322 219.025L100.381 219.471ZM94.8137 219.553L94.8601 219.105L94.8526 219.105L94.8137 219.553ZM66.7238 160.926L67.074 160.643L66.5778 160.028L66.3021 160.769L66.7238 160.926ZM157.526 160.889L157.834 161.217L157.845 161.206L157.855 161.196L157.526 160.889ZM163.067 152.187L163.465 151.978L163.019 151.127L162.651 152.014L163.067 152.187ZM164.098 158.765L164.462 159.03L164.551 158.907L164.548 158.756L164.098 158.765ZM63.7061 171.594L63.2636 171.512L63.216 171.77L63.417 171.939L63.7061 171.594ZM53.2425 178.343C53.784 162.596 61.999 152.296 68.4843 140.365L67.6936 139.935C61.2933 151.71 52.8941 162.288 52.343 178.312L53.2425 178.343ZM68.3028 140.546C69.8204 139.726 71.8006 138.899 73.8736 138.715L73.7938 137.818C71.5485 138.018 69.4445 138.906 67.8751 139.754L68.3028 140.546ZM73.4374 138.053C65.0839 153.589 58.9843 163.932 58.5776 178.871L59.4773 178.895C59.877 164.212 65.8479 154.069 74.2301 138.479L73.4374 138.053ZM58.5774 178.881C58.5316 187.778 60.5896 197.931 65.8538 206.153C71.1289 214.393 79.6155 220.677 92.3594 221.803L92.4386 220.907C79.9923 219.806 71.7476 213.69 66.6117 205.668C61.4649 197.629 59.4322 187.659 59.4774 178.885L58.5774 178.881ZM92.3337 220.91C89.4155 221.338 84.8869 221.257 80.0747 220.241L79.8887 221.121C84.7884 222.156 89.4253 222.246 92.4644 221.8L92.3337 220.91ZM80.1368 220.258C70.5649 216.743 63.7732 211.21 59.4087 204.103C55.0411 196.99 53.0832 188.265 53.2427 178.335L52.3428 178.32C52.1814 188.374 54.1625 197.279 58.6418 204.574C63.1242 211.873 70.0875 217.526 79.8265 221.103L80.1368 220.258ZM62.4539 178.938C62.3753 197.025 73.0014 218.08 94.7748 220.001L94.8539 219.105C73.7476 217.243 63.2763 196.794 63.3539 178.942L62.4539 178.938ZM94.768 220.001C96.6592 220.196 98.5501 220.167 100.44 219.918L100.322 219.025C98.5012 219.266 96.6809 219.294 94.8607 219.106L94.768 220.001ZM100.213 219.054C97.8997 219.988 95.5392 220.56 92.3506 220.908L92.4482 221.802C95.7023 221.447 98.1458 220.859 100.55 219.889L100.213 219.054ZM92.439 220.907C79.9927 219.806 71.748 213.69 66.6121 205.668C61.4653 197.629 59.4326 187.659 59.4778 178.885L58.5778 178.881C58.5319 187.778 60.5899 197.931 65.8541 206.153C71.1293 214.393 79.6159 220.677 92.3598 221.803L92.439 220.907ZM59.4776 178.895C59.8773 164.212 65.8482 154.069 74.2304 138.479L73.4377 138.053C65.0843 153.589 58.9846 163.932 58.5779 178.871L59.4776 178.895ZM73.6385 138.672C74.7007 139.184 75.6749 139.888 76.0784 140.718L76.8879 140.325C76.3462 139.21 75.1352 138.394 74.0296 137.861L73.6385 138.672ZM76.0871 140.308C69.6575 152.226 62.8391 165.186 62.454 178.928L63.3537 178.953C63.7317 165.459 70.4319 152.686 76.8792 140.735L76.0871 140.308ZM30.2176 160.513C36.8527 156.136 42.9268 155.407 48.9381 154.004C54.9589 152.599 60.8159 150.526 66.7692 143.409L66.0789 142.832C60.2955 149.745 54.6457 151.748 48.7336 153.127C42.8122 154.509 36.5275 155.273 29.722 159.762L30.2176 160.513ZM66.0336 142.896C59.9356 153.535 52.8507 163.629 52.343 178.312L53.2424 178.343C53.7406 163.935 60.6686 154.066 66.8145 143.344L66.0336 142.896ZM52.3428 178.32C52.1814 188.374 54.1625 197.279 58.6418 204.574C63.1242 211.873 70.0874 217.526 79.8265 221.103L80.1368 220.258C70.5648 216.743 63.7732 211.21 59.4087 204.103C55.0411 196.99 53.0832 188.265 53.2427 178.335L52.3428 178.32ZM80.019 220.232C52.1714 217.911 27.2193 190.516 30.4173 160.185L29.5223 160.09C26.2687 190.948 51.619 218.768 79.9443 221.129L80.019 220.232ZM63.9323 146.546C58.594 151.264 53.201 153.185 47.82 154.756C42.4514 156.322 37.0359 157.549 31.8246 160.907L32.3121 161.664C37.385 158.395 42.6374 157.205 48.0721 155.619C53.4946 154.037 59.0405 152.071 64.5283 147.22L63.9323 146.546ZM31.62 161.247C31.3655 164.231 31.1047 168.544 32.1175 171.644L32.973 171.364C32.0261 168.466 32.2596 164.338 32.5167 161.324L31.62 161.247ZM32.8134 171.865C36.4097 169.197 40.656 167.461 44.9207 165.929C49.1621 164.406 53.4522 163.076 57.0232 161.228L56.6094 160.428C53.1089 162.241 48.9163 163.538 44.6165 165.082C40.3399 166.618 35.9865 168.39 32.2771 171.143L32.8134 171.865ZM57.2305 161.004C59.3025 156.129 61.9533 151.643 64.6182 147.111L63.8424 146.655C61.1831 151.177 58.501 155.713 56.4022 160.652L57.2305 161.004ZM55.7045 162.699C51.9089 164.547 47.8509 165.746 43.9613 167.031C40.0925 168.309 36.388 169.675 33.4065 171.86L33.9386 172.586C36.7929 170.494 40.3723 169.165 44.2437 167.886C48.0943 166.613 52.233 165.391 56.0985 163.508L55.7045 162.699ZM33.2251 172.175C32.9283 174.938 33.323 179.509 34.3445 182.443L35.1944 182.147C34.2215 179.353 33.8357 174.918 34.12 172.271L33.2251 172.175ZM34.577 182.702L35.7087 183.237L36.0935 182.423L34.9619 181.888L34.577 182.702ZM36.2589 183.103C38.4979 180.168 41.2648 178.427 44.2459 177.067C45.7399 176.386 47.2805 175.803 48.8387 175.21C50.3921 174.618 51.9622 174.017 53.4901 173.305L53.1101 172.49C51.616 173.185 50.0753 173.776 48.5185 174.368C46.9666 174.959 45.3976 175.553 43.8724 176.249C40.815 177.643 37.9044 179.462 35.5433 182.557L36.2589 183.103ZM53.7449 172.966C54.2772 169.503 55.1746 166.297 56.3224 163.263L55.4806 162.945C54.3131 166.031 53.3982 169.297 52.8553 172.829L53.7449 172.966ZM40.604 193.671C39.8757 192.569 38.9762 190.891 38.2437 189.192C37.5051 187.478 36.9643 185.807 36.9059 184.702L36.0072 184.75C36.0746 186.027 36.6741 187.824 37.4172 189.548C38.1664 191.286 39.0901 193.013 39.8533 194.167L40.604 193.671ZM36.8608 184.924C38.3507 181.879 40.8632 180.179 43.8137 178.878C45.2927 178.225 46.8655 177.68 48.4691 177.113C50.0658 176.547 51.6896 175.961 53.2364 175.233L52.8532 174.419C51.352 175.125 49.7675 175.698 48.1688 176.264C46.577 176.828 44.9675 177.385 43.4505 178.054C40.4091 179.396 37.6755 181.211 36.0524 184.528L36.8608 184.924ZM52.5976 174.777C52.4706 175.923 52.383 177.104 52.3436 178.313L53.2431 178.342C53.2817 177.157 53.3676 176 53.4921 174.876L52.5976 174.777ZM52.3434 178.32C52.3085 180.323 52.3652 182.277 52.505 184.183L53.4026 184.117C53.2648 182.239 53.2088 180.312 53.2433 178.335L52.3434 178.32ZM52.7936 183.729C50.4198 184.634 48.2602 185.652 46.2589 187.2C44.2553 188.75 42.4291 190.816 40.698 193.795L41.4761 194.247C43.1572 191.355 44.9101 189.382 46.8096 187.912C48.7116 186.441 50.7792 185.46 53.114 184.57L52.7936 183.729ZM41.1402 193.574L40.2818 193.472L40.1754 194.366L41.0339 194.468L41.1402 193.574ZM53.0294 186.005C48.23 187.542 44.3307 190.694 41.9707 194.853L42.7535 195.297C44.998 191.342 48.7121 188.333 53.3038 186.862L53.0294 186.005ZM41.9222 195.17C42.6892 198.741 45.0685 201.151 47.0069 203.341L47.6807 202.744C45.691 200.497 43.5092 198.273 42.8021 194.981L41.9222 195.17ZM47.396 203.489L48.4105 203.371L48.3061 202.477L47.2916 202.595L47.396 203.489ZM48.6934 203.224C50.32 201.41 51.8715 198.923 55.5385 196.685L55.0696 195.917C51.2533 198.246 49.5617 200.908 48.0233 202.624L48.6934 203.224ZM55.7308 196.158C54.7056 193.098 54.0051 189.832 53.6137 186.383L52.7195 186.484C53.1172 189.99 53.8301 193.318 54.8774 196.444L55.7308 196.158ZM55.5525 197.261C54.2586 198.02 52.9515 199.091 51.8496 200.203C50.7512 201.311 49.8308 202.486 49.3311 203.467L50.133 203.876C50.5742 203.01 51.4249 201.91 52.4889 200.836C53.5494 199.766 54.796 198.749 56.0081 198.037L55.5525 197.261ZM49.3275 203.869C49.8459 204.933 50.7151 206.177 51.6672 207.309C52.6191 208.441 53.6787 209.49 54.5927 210.152L55.1209 209.424C54.2877 208.82 53.2813 207.83 52.3559 206.73C51.4306 205.63 50.6111 204.449 50.1366 203.474L49.3275 203.869ZM54.8936 210.236L55.5916 210.179L55.5181 209.282L54.8201 209.339L54.8936 210.236ZM55.9662 209.913C56.7245 208.205 58.0103 206.259 59.5548 205.121L59.0209 204.396C57.305 205.66 55.9374 207.759 55.1435 209.548L55.9662 209.913ZM59.6684 204.518C58.2852 202.327 57.1324 199.981 56.2018 197.491L55.3588 197.807C56.3099 200.351 57.4897 202.753 58.9073 204.999L59.6684 204.518ZM59.6815 205.422C58.2782 206.525 57.1994 208.044 56.4255 209.941L57.2589 210.281C57.9852 208.501 58.9788 207.119 60.2376 206.13L59.6815 205.422ZM56.5166 210.422C58.1286 212.111 59.8047 213.969 62.2642 215.2L62.6669 214.395C60.3745 213.248 58.8075 211.519 57.1677 209.8L56.5166 210.422ZM62.478 215.247L63.2151 215.227L63.1902 214.327L62.4531 214.348L62.478 215.247ZM63.6505 214.821C63.7836 213.46 64.2939 212.486 65.0394 211.735L64.4008 211.101C63.5074 212.001 62.9078 213.169 62.7548 214.733L63.6505 214.821ZM65.0326 211.095C63.2553 209.379 61.6885 207.52 60.3317 205.523L59.5873 206.029C60.9794 208.077 62.5863 209.985 64.4076 211.742L65.0326 211.095ZM127.35 175.304C111.88 178.436 99.7934 177.593 90.2147 174.254C80.6384 170.915 73.5342 165.071 68.0468 158.142L67.3413 158.701C72.9142 165.738 80.1523 171.699 89.9185 175.103C99.6823 178.507 111.938 179.343 127.529 176.186L127.35 175.304ZM68.1111 158.591C70.6022 152.447 73.7732 146.494 76.8785 140.735L76.0863 140.308C72.9829 146.063 69.7892 152.057 67.277 158.252L68.1111 158.591ZM76.0356 140.575C77.2899 151.127 81.8689 159.721 90.1762 164.959C98.4717 170.188 110.408 172.022 126.286 169.226L126.13 168.34C110.379 171.113 98.6953 169.265 90.6562 164.197C82.6288 159.136 78.1593 150.816 76.9293 140.469L76.0356 140.575ZM126.301 169.223C136.527 167.071 144.457 164.311 150.028 160.178C155.624 156.027 158.816 150.507 159.594 142.917L158.699 142.825C157.946 150.173 154.877 155.46 149.491 159.455C144.08 163.47 136.306 166.197 126.115 168.343L126.301 169.223ZM159.594 142.914C159.824 140.529 160.066 138.731 160.506 137.369C160.939 136.025 161.553 135.144 162.513 134.551L162.04 133.785C160.849 134.521 160.128 135.608 159.649 137.093C159.176 138.56 158.928 140.449 158.698 142.828L159.594 142.914ZM162.502 134.558C163.479 133.991 164.833 133.848 166.019 134.164C167.2 134.479 168.131 135.221 168.408 136.351L169.282 136.137C168.904 134.594 167.644 133.666 166.251 133.294C164.863 132.924 163.259 133.079 162.051 133.779L162.502 134.558ZM168.405 136.336C168.687 137.689 168.465 138.706 168.025 139.405C167.583 140.107 166.897 140.526 166.176 140.65L166.329 141.537C167.29 141.371 168.202 140.812 168.786 139.885C169.372 138.954 169.606 137.691 169.286 136.152L168.405 136.336ZM166.185 140.649C164.932 140.839 163.959 139.972 163.794 139.285L162.919 139.495C163.196 140.647 164.616 141.798 166.32 141.539L166.185 140.649ZM163.795 139.291C163.566 138.279 163.966 137.703 164.413 137.488C164.88 137.265 165.531 137.361 165.983 137.967L166.704 137.429C166.007 136.495 164.897 136.259 164.025 136.677C163.132 137.104 162.613 138.144 162.917 139.489L163.795 139.291ZM166.787 137.776C166.918 137.026 166.46 136.404 165.938 136.042C165.415 135.68 164.691 135.477 164.054 135.655L164.297 136.522C164.609 136.435 165.059 136.528 165.426 136.782C165.795 137.038 165.947 137.354 165.9 137.621L166.787 137.776ZM164.054 135.655C163.238 135.884 162.712 136.415 162.405 137.099C162.107 137.763 162.015 138.564 162.022 139.376C162.034 140.986 162.441 142.855 162.625 144.101L163.515 143.97C163.317 142.626 162.933 140.897 162.922 139.369C162.916 138.612 163.005 137.96 163.226 137.468C163.438 136.995 163.77 136.669 164.297 136.522L164.054 135.655ZM162.63 144.132C163.845 149.673 160.376 157.682 152.711 163.74L153.269 164.446C161.073 158.278 164.827 149.953 163.51 143.939L162.63 144.132ZM152.728 163.726C145.443 168.925 137.161 173.16 127.343 175.306L127.536 176.185C137.497 174.008 145.89 169.712 153.251 164.459L152.728 163.726ZM163.66 140.58C165.504 151.049 166.149 161.451 163.401 171.771C160.655 182.083 154.511 192.354 142.707 202.543L143.295 203.224C155.216 192.934 161.472 182.513 164.271 172.003C167.067 161.501 166.4 150.951 164.546 140.423L163.66 140.58ZM142.728 202.526C134.304 208.959 127.347 213.518 119.692 216.488C112.042 219.456 103.667 220.848 92.3974 220.905L92.402 221.805C103.747 221.748 112.238 220.345 120.018 217.327C127.792 214.31 134.829 209.69 143.274 203.241L142.728 202.526ZM92.4485 221.803C95.7026 221.448 98.1461 220.859 100.55 219.889L100.213 219.054C97.9 219.988 95.5395 220.56 92.3509 220.908L92.4485 221.803ZM100.323 219.026C98.5015 219.266 96.6812 219.294 94.861 219.106L94.7683 220.001C96.6595 220.197 98.5505 220.167 100.441 219.918L100.323 219.026ZM94.8542 219.105C73.7479 217.243 63.2766 196.795 63.3542 178.943L62.4542 178.939C62.3756 197.025 73.0017 218.08 94.7751 220.002L94.8542 219.105ZM63.354 178.953C63.5514 171.977 65.4359 165.18 68.112 158.591L67.2782 158.252C64.578 164.901 62.6558 171.808 62.4544 178.928L63.354 178.953ZM67.3423 158.701C72.9152 165.738 80.1533 171.699 89.9195 175.104C99.6833 178.507 111.939 179.343 127.53 176.187L127.351 175.304C111.881 178.436 99.7944 177.593 90.2158 174.254C80.6395 170.916 73.5352 165.071 68.0479 158.142L67.3423 158.701ZM127.537 176.185C137.498 174.008 145.891 169.712 153.252 164.459L152.729 163.727C145.444 168.925 137.162 173.16 127.344 175.306L127.537 176.185ZM153.27 164.446C161.074 158.278 164.828 149.953 163.511 143.939L162.631 144.132C163.846 149.673 160.377 157.683 152.712 163.74L153.27 164.446ZM163.516 143.97C163.318 142.626 162.934 140.897 162.923 139.369C162.917 138.612 163.006 137.96 163.227 137.468C163.439 136.996 163.771 136.67 164.298 136.522L164.055 135.655C163.239 135.884 162.713 136.416 162.406 137.099C162.108 137.763 162.017 138.565 162.023 139.376C162.035 140.987 162.442 142.855 162.626 144.101L163.516 143.97ZM164.298 136.522C164.61 136.435 165.06 136.528 165.427 136.783C165.796 137.038 165.948 137.354 165.901 137.621L166.788 137.776C166.919 137.026 166.461 136.404 165.939 136.043C165.416 135.68 164.692 135.477 164.055 135.655L164.298 136.522ZM166.705 137.43C166.008 136.495 164.898 136.259 164.026 136.677C163.133 137.104 162.614 138.144 162.918 139.489L163.796 139.291C163.567 138.279 163.967 137.703 164.414 137.489C164.881 137.265 165.532 137.362 165.984 137.968L166.705 137.43ZM162.919 139.493C163.037 139.997 163.372 140.482 163.816 140.848L164.389 140.155C164.062 139.884 163.859 139.56 163.795 139.287L162.919 139.493ZM63.0027 174.696C93.6488 197.662 140.977 190.945 163.716 160.879L162.998 160.336C140.56 190.004 93.795 196.647 63.5424 173.976L63.0027 174.696ZM162.914 160.689C163.278 162.663 163.269 164.777 162.798 166.455L163.665 166.698C164.182 164.855 164.181 162.597 163.8 160.526L162.914 160.689ZM162.872 166.305C140.816 195.482 98.0804 202.684 63.7419 186.501L63.3582 187.315C98.0087 203.646 141.232 196.425 163.59 166.848L162.872 166.305ZM63.994 186.834C63.5558 184.187 63.3454 181.536 63.354 178.942L62.454 178.939C62.4453 181.583 62.6597 184.284 63.1061 186.981L63.994 186.834ZM63.3538 178.953C63.3967 177.425 63.5212 175.904 63.7187 174.394L62.8263 174.277C62.625 175.816 62.498 177.367 62.4542 178.928L63.3538 178.953ZM63.748 189.394C94.3357 203.815 139.188 199.72 163.011 168.681L162.297 168.133C138.792 198.757 94.4341 202.866 64.1317 188.58L63.748 189.394ZM162.214 168.314C161.971 169.465 161.572 171.168 161.055 172.85C160.535 174.543 159.909 176.171 159.223 177.2L159.972 177.699C160.735 176.554 161.392 174.819 161.915 173.114C162.443 171.397 162.848 169.666 163.094 168.5L162.214 168.314ZM159.247 177.167C135.75 206.416 94.8131 209.155 67.5872 199.009L67.2729 199.852C94.737 210.087 136.134 207.375 159.948 177.731L159.247 177.167ZM67.8368 199.238C66.2788 195.946 65.1234 192.445 64.3803 188.895L63.4994 189.08C64.2564 192.696 65.4337 196.264 67.0233 199.623L67.8368 199.238ZM68.4594 202.147C99.7052 212.169 134.439 205.94 157.39 182.109L156.742 181.484C134.065 205.031 99.7053 211.224 68.7343 201.29L68.4594 202.147ZM156.641 181.649C156.442 182.22 156.24 182.868 156.033 183.52C155.825 184.177 155.612 184.842 155.386 185.463C155.16 186.085 154.927 186.651 154.682 187.111C154.432 187.58 154.193 187.895 153.973 188.06L154.514 188.779C154.893 188.495 155.207 188.039 155.476 187.534C155.75 187.02 156 186.409 156.232 185.77C156.465 185.13 156.683 184.449 156.891 183.792C157.1 183.132 157.298 182.501 157.491 181.944L156.641 181.649ZM153.928 188.099C134.429 207.327 105.324 217.407 74.547 209.32L74.3183 210.191C105.429 218.365 134.855 208.171 154.56 188.74L153.928 188.099ZM74.7582 209.445C72.5026 207.081 70.5784 204.392 68.9913 201.502L68.2024 201.935C69.8237 204.888 71.7929 207.641 74.1071 210.066L74.7582 209.445ZM76.4653 212.236C103.942 217.701 127.311 211.444 149.198 194.676L148.65 193.962C126.954 210.584 103.846 216.764 76.6409 211.353L76.4653 212.236ZM148.594 194.013C147.497 195.193 146.721 196.057 145.947 196.92C145.173 197.781 144.401 198.641 143.309 199.815L143.968 200.428C145.066 199.248 145.842 198.383 146.616 197.521C147.39 196.659 148.162 195.799 149.253 194.626L148.594 194.013ZM143.368 199.762C125.142 213.509 102.135 219.032 84.6599 216.513L84.5315 217.404C102.262 219.96 125.508 214.361 143.91 200.48L143.368 199.762ZM84.7778 216.547C81.8305 215.243 79.1894 213.512 76.8501 211.456L76.2561 212.132C78.6599 214.244 81.3778 216.027 84.4136 217.37L84.7778 216.547ZM88.3791 218.798C101.261 219.06 112.255 217.223 126.128 211.681L125.794 210.845C112.031 216.343 101.157 218.158 88.3975 217.898L88.3791 218.798ZM125.675 210.916C123.16 212.991 119.055 214.975 114.444 216.463C109.84 217.95 104.778 218.928 100.371 219.021L100.39 219.921C104.902 219.826 110.053 218.827 114.72 217.32C119.381 215.815 123.608 213.788 126.248 211.61L125.675 210.916ZM100.322 219.025C98.5006 219.266 96.6802 219.294 94.86 219.105L94.7674 220.001C96.6585 220.196 98.5495 220.167 100.44 219.917L100.322 219.025ZM94.8526 219.105C92.6193 218.911 90.5072 218.504 88.5157 217.916L88.2609 218.779C90.3102 219.384 92.4817 219.803 94.7749 220.001L94.8526 219.105ZM66.3735 161.209C76.625 173.916 93.0007 180.044 110.032 179.94C127.064 179.836 144.804 173.502 157.834 161.217L157.217 160.562C144.367 172.677 126.852 178.937 110.026 179.04C93.1988 179.142 77.1135 173.088 67.074 160.643L66.3735 161.209ZM157.855 161.196C160.327 158.534 162.141 155.587 163.482 152.359L162.651 152.014C161.347 155.152 159.589 158.007 157.196 160.583L157.855 161.196ZM162.668 152.395C163.061 153.145 163.301 154.213 163.445 155.382C163.587 156.541 163.629 157.755 163.648 158.773L164.548 158.756C164.529 157.731 164.486 156.479 164.338 155.272C164.191 154.074 163.935 152.875 163.465 151.978L162.668 152.395ZM163.735 158.5C142.285 187.951 94.2302 196.598 63.9953 171.249L63.417 171.939C94.0808 197.647 142.729 188.871 164.462 159.03L163.735 158.5ZM64.1487 171.676C64.8107 168.091 65.8519 164.557 67.1455 161.083L66.3021 160.769C64.9942 164.282 63.937 167.866 63.2636 171.512L64.1487 171.676Z" fill="#3F260A"/>
<path fillRule="evenodd" clipRule="evenodd" d="M50.105 110.026C50.673 110.393 51.0372 110.88 52.2555 110.961C52.2381 110.867 52.2251 110.773 52.2121 110.679C52.1774 110.524 52.056 110.353 51.8219 110.406C51.0892 110.741 50.8074 110.287 50.105 110.026ZM54.5274 110.712C54.7615 110.696 54.9869 110.712 55.1994 110.79C56.0665 111.096 56.9683 111.378 57.9092 110.912C58.152 110.761 58.4988 110.606 58.9324 110.496C58.8804 110.275 58.8457 110.046 58.837 109.809C58.8197 109.576 58.5118 109.499 58.3861 109.552C58.0479 109.666 57.4062 110.434 56.6388 110.512C55.9495 110.524 55.3381 109.834 54.7528 110.267C54.6531 110.393 54.5794 110.545 54.5274 110.712Z" fill="#3F260A" stroke="#3F260A" strokeWidth="0.9" strokeMiterlimit="22.9256"/>
<path fillRule="evenodd" clipRule="evenodd" d="M87.0058 85.5439L19.0053 97.642C18.6757 99.5255 18.4199 101.36 18.2422 103.154L25.318 102.157C26.8051 101.899 26.9308 102.835 25.7342 103.272L18.0687 105.405C17.839 110.304 18.1815 115.239 19.1527 119.718L20.5791 119.501C21.6673 119.293 22.2787 120.232 21.3639 120.661L19.5732 121.478C20.2496 124.065 21.1514 126.467 22.2873 128.584L52.5503 111.889C52.3855 111.517 52.2598 111.105 52.2121 110.68C52.1774 110.524 52.056 110.353 51.8262 110.406C51.0458 110.761 50.7727 110.23 49.9662 109.977C49.5977 109.883 49.4893 109.205 50.2003 108.71C51.319 108.061 51.9086 107.109 51.8652 105.303C51.9303 101.92 54.6357 103.591 55.9451 103.587C57.1244 101.213 59.9339 101.099 62.1321 102.471C63.2594 102.345 64.6078 102.627 65.2581 103.391C65.9605 103.003 67.0054 102.843 68.2801 103.215L69.4854 102.549C69.6154 102.251 69.6154 101.965 69.6892 101.752C69.8366 101.315 70.3742 100.951 71.0549 100.89C71.4755 100.837 71.7659 100.988 72.0521 101.135L89.3991 91.5664C88.2588 89.736 87.435 87.7053 87.0058 85.5439ZM54.4927 110.819L55.5982 110.21C55.3078 110.108 55.0259 110.067 54.7528 110.267C54.6314 110.418 54.549 110.606 54.4927 110.819Z" stroke="#3F260A" strokeWidth="0.9" strokeMiterlimit="22.9256"/>
<path fillRule="evenodd" clipRule="evenodd" d="M108.281 63.2638L112.174 18.1566C118.76 17.507 124.873 18.3568 130.605 20.3956L129.92 22.6959C129.773 23.2393 130.735 23.6152 131.017 23.1045L131.997 20.9186C132.565 21.1433 133.128 21.3762 133.688 21.6214L130.705 29.8747C130.627 30.4181 131.307 30.4753 131.464 30.0708L135.231 22.3364C136.038 22.7245 136.831 23.1331 137.62 23.5703L115.591 65.18C113.358 64.1299 110.891 63.4599 108.281 63.2638Z" stroke="#3F260A" strokeWidth="0.9" strokeMiterlimit="22.9256"/>
<path fillRule="evenodd" clipRule="evenodd" d="M122.666 70.7491L169.226 37.883C170.735 39.7093 171.971 41.6746 172.942 43.7747L164.704 48.5265C164.275 48.8983 164.761 49.3518 165.155 49.1353L173.601 45.3191C175.153 49.2987 175.821 53.7277 175.652 58.5857L172.11 59.8033C171.498 60.0076 171.793 60.8165 172.296 60.792L175.574 60.0648C175.492 61.2823 175.361 62.5285 175.175 63.7951L125.905 76.9187C125.228 74.6633 124.118 72.5755 122.666 70.7491Z" stroke="#3F260A" strokeWidth="0.9" strokeMiterlimit="22.9256"/>
<path fillRule="evenodd" clipRule="evenodd" d="M24.2385 91.2597C24.1604 90.0749 24.1257 88.9145 24.1257 87.7827L27.2517 87.5662C27.8934 87.4681 27.7547 86.6224 27.2517 86.5652L24.1474 86.4099C24.2471 83.1862 24.6807 80.1709 25.4698 77.3844L35.6889 77.9727C36.2699 77.9482 36.2092 77.3068 35.7583 77.2332L25.834 76.1954C26.7358 73.4375 28.0105 70.9125 29.6754 68.6326L86.9928 78.6183C86.7761 79.7296 86.6633 80.8777 86.6633 82.0463C86.6633 82.7981 86.711 83.5376 86.8021 84.2649L24.2385 91.2597Z" stroke="#3F260A" strokeWidth="0.9" strokeMiterlimit="22.9256"/>
<path fillRule="evenodd" clipRule="evenodd" d="M86.7153 83.4477L86.6633 82.0463L39.3352 82.226C39.0967 82.2301 39.1358 82.8348 39.3352 82.8307L86.7153 83.4477Z" fill="#3F260A" stroke="#3F260A" strokeWidth="0.9" strokeMiterlimit="22.9256"/>
<path fillRule="evenodd" clipRule="evenodd" d="M87.6125 87.8439L87.3784 87.0513L57.8048 94.6304C57.575 94.6917 57.6487 94.9164 57.8395 94.8674L87.6125 87.8439Z" fill="#3F260A" stroke="#3F260A" strokeWidth="0.9" strokeMiterlimit="22.9256"/>
<path fillRule="evenodd" clipRule="evenodd" d="M88.545 90.0381L87.9987 88.8369L32.0513 108.972C31.8302 109.062 31.9386 109.278 32.1207 109.2L88.545 90.0381Z" fill="#3F260A" stroke="#3F260A" strokeWidth="0.9" strokeMiterlimit="22.9256"/>
<path fillRule="evenodd" clipRule="evenodd" d="M86.6981 80.8942L86.7762 80.0116L64.17 78.361C63.6671 78.3691 63.7365 78.7941 64.1787 78.8267L86.6981 80.8942Z" fill="#3F260A" stroke="#3F260A" strokeWidth="0.9" strokeMiterlimit="22.9256"/>
<path fillRule="evenodd" clipRule="evenodd" d="M109.451 100.706L108.514 100.808L111.263 122.022C111.376 122.484 111.801 122.332 111.749 121.92L109.451 100.706Z" fill="#3F260A" stroke="#3F260A" strokeWidth="0.9" strokeMiterlimit="22.9256"/>
<path fillRule="evenodd" clipRule="evenodd" d="M116.644 65.7149L137.212 32.0766C141.483 32.3054 145.346 33.0082 148.671 34.3279L147.266 36.571C147.054 37.3595 148.086 37.4944 148.623 37.0286L151.225 35.5168C153.844 36.9469 156.037 38.8672 157.733 41.3636L121.929 69.8824C120.442 68.2236 118.651 66.8099 116.644 65.7149Z" stroke="#3F260A" strokeWidth="0.9" strokeMiterlimit="22.9256"/>
<path fillRule="evenodd" clipRule="evenodd" d="M90.106 71.4725L40.5537 39.8158C43.5453 35.7953 47.2393 32.7269 51.575 30.5165L53.0361 31.7586C53.7081 32.2734 54.042 31.6524 53.7081 31.2315L52.5548 30.0385C53.2659 29.7034 53.9943 29.3929 54.7357 29.1028L60.1596 34.8801C60.6105 35.2274 61.018 34.7126 60.7362 34.3735L55.9063 28.6656C57.8053 27.9956 59.7997 27.4603 61.8938 27.0518L94.4894 67.0925C92.7941 68.3223 91.3113 69.8014 90.106 71.4725Z" stroke="#3F260A" strokeWidth="0.9" strokeMiterlimit="22.9256"/>
<path fillRule="evenodd" clipRule="evenodd" d="M164.965 119.909L164.128 121.499L162.728 120.796C162.16 120.534 162.58 119.19 163.296 119.386L164.965 119.909Z" stroke="#3F260A" strokeWidth="0.9" strokeMiterlimit="22.9256"/>
<path fillRule="evenodd" clipRule="evenodd" d="M36.1396 64.8614C36.7293 63.1944 37.4447 61.6377 38.2728 60.179L39.0012 60.461C39.7036 60.702 40.2195 59.3864 39.6732 59.0881L39.1313 58.7694C41.4075 55.2679 44.4078 52.3956 48.041 50.0667L89.3512 72.6039C88.4494 74.0666 87.7514 75.6519 87.2961 77.3271L36.1396 64.8614Z" stroke="#3F260A" strokeWidth="0.9" strokeMiterlimit="22.9256"/>
<path fillRule="evenodd" clipRule="evenodd" d="M121.466 94.7122L158.349 126.263C157.478 134.001 153.879 140.661 147.063 146.046L140.79 138.099C140.369 137.662 139.29 138.397 139.719 139.002L144.662 147.799C143.192 148.792 141.601 149.736 139.879 150.63L114.967 99.1943C117.447 98.1239 119.653 96.5917 121.466 94.7122Z" stroke="#3F260A" strokeWidth="0.9" strokeMiterlimit="22.9256"/>
<path fillRule="evenodd" clipRule="evenodd" d="M126.205 78.0544L175.176 68.0483C175.462 69.3026 175.675 70.5529 175.809 71.799L174.109 72.2648C173.294 72.5345 173.745 73.4211 174.456 73.5845L175.974 73.9318C176.047 75.7296 175.965 77.5151 175.731 79.2965L164.879 79.9951C163.838 80.0156 163.764 80.5508 164.831 80.6366L175.475 80.8981C174.95 83.7255 174.027 86.5365 172.713 89.323L126.521 84.2362C126.608 83.5171 126.656 82.7857 126.656 82.0462C126.656 80.6775 126.499 79.3414 126.205 78.0544Z" stroke="#3F260A" strokeWidth="0.9" strokeMiterlimit="22.9256"/>
<path fillRule="evenodd" clipRule="evenodd" d="M126.256 85.8177L167.583 93.7728C167.709 95.023 167.813 96.261 167.887 97.4909L160.954 96.5143C159.944 96.4204 159.588 97.3601 160.659 97.687L167.978 99.2437C168.025 100.547 168.043 101.838 168.021 103.117L162.974 102.112C161.947 102.034 161.331 103.035 162.281 103.37L167.934 105.503C167.54 112.273 165.914 118.529 162.246 123.942L122.275 93.8177C124.222 91.5256 125.61 88.8004 126.256 85.8177Z" stroke="#3F260A" strokeWidth="0.9" strokeMiterlimit="22.9256"/>
<path d="M87.1582 105.348C87.2275 105.409 87.2969 105.47 87.3663 105.531M90.1021 92.6162L82.3109 97.5886C81.357 98.892 80.2558 100.175 80.7284 101.372C81.2747 101.388 82.3326 101.768 82.8832 102.169C82.5624 98.9288 88.8664 98.847 91.0386 96.2362C91.3161 95.9012 91.9664 95.9788 91.9621 96.5753C91.793 97.9196 91.4288 98.8144 90.9996 99.4803H91.0039C89.7986 101.474 89.4387 102.398 89.339 103.129L94.4161 96.9471C92.7468 95.7255 91.2901 94.2628 90.1021 92.6162ZM63.338 109.695L61.2006 111.059C60.8797 111.746 60.8147 112.661 60.5372 112.698C60.2987 112.669 59.9692 112.428 59.6657 112.04L18.594 138.254C18.9799 139.582 19.4134 140.902 19.8904 142.197L31.9608 135.3C32.6242 134.925 33.3439 135.983 32.8583 136.355L21.2171 145.474C21.6897 146.54 22.1969 147.591 22.7346 148.62L23.7838 147.864C24.7203 147.276 25.2796 148.126 24.5685 148.812L23.3936 149.842C24.3041 151.472 25.3013 153.041 26.3808 154.536L31.2888 151.137C32.1299 150.606 32.6329 151.664 31.9608 152.404L27.868 156.477C28.4143 157.155 28.9866 157.817 29.5762 158.455L29.8754 158.263C33.7862 155.742 37.892 154.259 42.3838 152.951C45.0676 152.167 47.7513 151.464 50.3657 150.561L77.8798 117.074C75.5819 115.725 73.0933 115.497 71.4934 116.882C70.2491 117.989 70.3488 118.769 71.0295 119.444C71.901 120.146 71.2636 121.576 69.8762 121.327C68.1246 121.004 66.5811 121.066 66.2082 122.418C66.0348 123.305 66.0695 124.408 65.1026 125.074C64.4523 125.462 63.854 125.433 62.9218 124.955C62.1544 124.44 60.7843 124.588 59.5877 124.955C57.4199 125.548 56.9473 124.33 56.3576 123.313C56.0801 122.81 55.6119 121.895 56.5354 121.752C57.3331 121.621 57.5456 121.356 57.5109 120.677C57.4415 120.15 57.4849 119.525 57.7103 118.953C57.7927 118.737 58.1656 118.72 58.2653 118.876C58.8203 120.477 59.7611 121.368 61.1529 121.388C61.6471 121.343 62.4145 121.298 62.5143 120.894C62.5489 120.314 62.6053 119.656 62.8785 119.227C62.9262 119.198 63.3641 119.166 63.3771 119.239C63.4638 119.791 63.7066 120.612 64.2572 120.567C65.3975 120.424 65.9741 115.717 68.5668 115.77C70.6696 115.779 70.8994 114.63 69.9022 113.446C68.4541 111.607 66.3557 110.206 64.591 109.821C64.0881 109.719 63.6892 109.67 63.338 109.695Z" stroke="#3F260A" strokeWidth="0.9" strokeMiterlimit="22.9256"/>
<path fillRule="evenodd" clipRule="evenodd" d="M68.2186 111.729C66.1635 111.811 65.3917 112.984 63.8569 114.438C62.6343 115.574 60.6442 115.644 59.1094 114.704C58.8059 114.528 58.4764 114.765 58.5457 115.08C58.9446 116.878 61.2859 117.874 63.0071 117.944C64.2038 117.977 65.227 117.797 66.1895 117.511C66.7531 116.555 67.4859 115.746 68.5654 115.77C70.6682 115.778 70.898 114.63 69.9008 113.445C69.4022 112.816 68.8299 112.236 68.2186 111.729Z" stroke="#3F260A" strokeWidth="0.9" strokeMiterlimit="22.9256"/>
<path fillRule="evenodd" clipRule="evenodd" d="M61.6378 110.48C62.1884 110.582 62.8518 110.704 63.3547 110.888C64.2348 111.252 64.521 111.762 63.9574 112.531C63.4111 113.225 62.9428 114.1 62.6133 115.166C63.0729 115.015 63.4978 114.77 63.8576 114.439C65.3925 112.984 66.1642 111.812 68.2193 111.73C67.053 110.766 65.748 110.075 64.5904 109.822C63.2593 109.552 62.674 109.666 61.6378 110.48ZM62.08 117.826C61.7679 119.248 60.853 120.302 59.5046 120.817C59.9642 121.184 60.5105 121.376 61.1522 121.389C61.6465 121.344 62.4139 121.299 62.5136 120.894C62.5483 120.314 62.6046 119.656 62.8778 119.227C62.9255 119.199 63.3634 119.166 63.3764 119.239C63.4631 119.791 63.7059 120.612 64.2565 120.567C64.9242 120.486 65.3968 118.851 66.1902 117.511C65.2277 117.797 64.2045 117.977 63.0079 117.944C62.713 117.932 62.4009 117.891 62.08 117.826Z" fill="#3F260A" stroke="#3F260A" strokeWidth="0.9" strokeMiterlimit="22.9256"/>
<path fillRule="evenodd" clipRule="evenodd" d="M66.9921 111.946C67.7422 111.909 68.0717 112.13 68.3101 112.375C68.5226 112.632 68.4055 112.902 68.1237 112.996C66.2767 113.584 66.2333 114.704 64.4861 115.386C63.801 115.652 63.9094 116.044 64.7462 115.868C66.255 115.435 67.1655 114.508 68.5096 114.058C69.0385 113.899 69.2076 114.451 68.8868 114.847C68.3275 115.492 66.849 115.264 65.8128 117.617C65.9385 117.584 66.0643 117.548 66.19 117.511C66.7536 116.555 67.4864 115.746 68.5659 115.77C70.6687 115.778 70.8985 114.63 69.9013 113.445C69.4027 112.816 68.8304 112.236 68.2191 111.729C67.7508 111.75 67.3476 111.823 66.9921 111.946Z" fill="#3F260A" stroke="#3F260A" strokeWidth="0.9" strokeMiterlimit="22.9256"/>
<path fillRule="evenodd" clipRule="evenodd" d="M56.5952 123.733L41.1602 134.814C40.718 135.112 40.3971 134.839 40.7873 134.446L56.0229 122.544C56.0879 122.814 56.2396 123.1 56.3567 123.313C56.4347 123.447 56.5128 123.59 56.5952 123.733Z" fill="#3F260A" stroke="#3F260A" strokeWidth="0.9" strokeMiterlimit="22.9256"/>
<path fillRule="evenodd" clipRule="evenodd" d="M101.72 100.31L93.9508 122.529C93.7296 123.027 93.0489 122.757 93.1617 122.296L100.029 99.8279L101.72 100.31Z" fill="#3F260A" stroke="#3F260A" strokeWidth="0.9" strokeMiterlimit="22.9256"/>
<path fillRule="evenodd" clipRule="evenodd" d="M79.6226 152.122L84.5219 140.976C84.756 140.481 85.428 140.763 85.3023 141.225L80.8756 154.573C80.4247 153.78 80.0041 152.963 79.6226 152.122Z" fill="#3F260A" stroke="#3F260A" strokeWidth="0.9" strokeMiterlimit="22.9256"/>
<path fillRule="evenodd" clipRule="evenodd" d="M125.628 162.974L121.691 145.944C121.665 145.405 122.402 145.368 122.51 145.834L127.852 161.098C127.145 161.752 126.404 162.377 125.628 162.974Z" fill="#3F260A" stroke="#3F260A" strokeWidth="0.9" strokeMiterlimit="22.9256"/>
<path fillRule="evenodd" clipRule="evenodd" d="M94.6577 166.806L97.2504 155.619C97.3935 155.096 98.1046 155.268 98.0655 155.746L96.0842 167.386C95.6029 167.202 95.126 167.01 94.6577 166.806Z" fill="#3F260A" stroke="#3F260A" strokeWidth="0.9" strokeMiterlimit="22.9256"/>
<path fillRule="evenodd" clipRule="evenodd" d="M104.006 100.726L94.1897 147.272C94.129 147.783 93.6998 147.819 93.6521 147.284L102.657 100.514L104.006 100.726Z" fill="#3F260A" stroke="#3F260A" strokeWidth="0.9" strokeMiterlimit="22.9256"/>
<path fillRule="evenodd" clipRule="evenodd" d="M104.006 100.726L94.1897 147.272C94.129 147.783 93.6998 147.819 93.6521 147.284L102.657 100.514L104.006 100.726Z" fill="#3F260A" stroke="#3F260A" strokeWidth="0.9" strokeMiterlimit="22.9256"/>
<path fillRule="evenodd" clipRule="evenodd" d="M123.988 91.4557L155.487 108.894C155.985 109.102 155.894 109.503 155.335 109.38L123.217 92.6161L123.988 91.4557Z" fill="#3F260A" stroke="#3F260A" strokeWidth="0.9" strokeMiterlimit="22.9256"/>
<path fillRule="evenodd" clipRule="evenodd" d="M91.1901 70.1079L91.7581 69.4827L61.6209 46.2182C61.4388 46.0671 61.2827 46.2509 61.4301 46.3735L91.1901 70.1079Z" fill="#3F260A" stroke="#3F260A" strokeWidth="0.9" strokeMiterlimit="22.9256"/>
<path fillRule="evenodd" clipRule="evenodd" d="M97.6633 65.2496L99.1071 64.5959L87.8821 43.9463C87.5179 43.3252 87.0669 43.6521 87.3358 44.1547L97.6633 65.2496Z" fill="#3F260A" stroke="#3F260A" strokeWidth="0.9" strokeMiterlimit="22.9256"/>
<path fillRule="evenodd" clipRule="evenodd" d="M87.8729 75.5784L88.4452 74.2546L64.6815 66.4752C64.4603 66.3853 64.3649 66.606 64.547 66.6795L87.8729 75.5784Z" fill="#3F260A" stroke="#3F260A" strokeWidth="0.9" strokeMiterlimit="22.9256"/>
<path fillRule="evenodd" clipRule="evenodd" d="M92.9067 68.3751L93.6047 67.7745L78.1611 52.1259C77.7839 51.8113 77.5281 52.1668 77.8316 52.4732L92.9067 68.3751Z" fill="#3F260A" stroke="#3F260A" strokeWidth="0.9" strokeMiterlimit="22.9256"/>
<path fillRule="evenodd" clipRule="evenodd" d="M101.17 63.93L102.081 63.7012L96.0976 43.0884C95.9155 42.6471 95.5166 42.8514 95.6337 43.2518L101.17 63.93Z" fill="#3F260A" stroke="#3F260A" strokeWidth="0.9" strokeMiterlimit="22.9256"/>
<path fillRule="evenodd" clipRule="evenodd" d="M111.034 63.6559L112.582 64.0441L120.347 24.9063C120.499 24.2158 119.931 24.1872 119.784 24.7347L111.034 63.6559Z" fill="#3F260A" stroke="#3F260A" strokeWidth="0.9" strokeMiterlimit="22.9256"/>
<path fillRule="evenodd" clipRule="evenodd" d="M124.119 72.8529L124.847 74.1971L160.486 57.4045C161.137 57.0491 160.777 56.6323 160.252 56.8938L124.119 72.8529Z" fill="#3F260A" stroke="#3F260A" strokeWidth="0.9" strokeMiterlimit="22.9256"/>
<path fillRule="evenodd" clipRule="evenodd" d="M120.46 95.6846L119.35 96.608L140.98 117.834C141.349 118.156 141.739 117.74 141.449 117.429L120.46 95.6846Z" fill="#3F260A" stroke="#3F260A" strokeWidth="0.9" strokeMiterlimit="22.9256"/>
<path fillRule="evenodd" clipRule="evenodd" d="M118.422 97.2861L117.2 98.0665L126.734 109.613C127.05 109.977 127.497 109.613 127.25 109.266L118.422 97.2861Z" fill="#3F260A" stroke="#3F260A" strokeWidth="0.9" strokeMiterlimit="22.9256"/>
<path fillRule="evenodd" clipRule="evenodd" d="M126.451 79.3332L126.607 80.7183L148.255 77.5845C148.749 77.4906 148.615 76.9512 148.177 76.988L126.451 79.3332Z" fill="#3F260A" stroke="#3F260A" strokeWidth="0.9" strokeMiterlimit="22.9256"/>
<path fillRule="evenodd" clipRule="evenodd" d="M119.714 67.7743L120.798 68.7222L137.386 51.7294C137.689 51.3535 137.212 51.0266 136.909 51.329L119.714 67.7743Z" fill="#3F260A" stroke="#3F260A" strokeWidth="0.9" strokeMiterlimit="22.9256"/>
<path fillRule="evenodd" clipRule="evenodd" d="M117.59 66.2628L118.795 67.0677L125.502 56.8083C125.754 56.3997 125.238 56.1341 124.978 56.4732L117.59 66.2628Z" fill="#3F260A" stroke="#3F260A" strokeWidth="0.9" strokeMiterlimit="22.9256"/>
<path fillRule="evenodd" clipRule="evenodd" d="M125.736 87.701L125.246 89.0125L140.2 93.2372C140.686 93.3516 140.816 92.8082 140.399 92.6693L125.736 87.701Z" fill="#3F260A" stroke="#3F260A" strokeWidth="0.9" strokeMiterlimit="22.9256"/>
<path fillRule="evenodd" clipRule="evenodd" d="M35.5361 155.304L55.749 137.425C56.4861 136.775 57.054 137.053 56.5164 137.887L41.3372 153.262C39.3342 153.866 37.4048 154.52 35.5361 155.304Z" fill="#3F260A" stroke="#3F260A" strokeWidth="0.9" strokeMiterlimit="22.9256"/>
<path fillRule="evenodd" clipRule="evenodd" d="M77.4935 138.202C78.0485 138.913 77.3505 141.47 76.4833 140.522C76.0107 139.55 74.9181 138.79 73.8342 138.267C71.6751 138.459 69.633 139.317 68.0895 140.151C67.4305 139.762 67.799 137.703 69.5549 137.086C72.4078 131.174 75.4037 119.938 71.5277 116.849C73.3573 115.309 76.3099 115.836 78.8289 117.703C82.5056 120.653 82.2974 127.26 77.4935 138.202Z" fill="#3F260A" stroke="#3F260A" strokeWidth="0.9" strokeMiterlimit="22.9256"/>
<path fillRule="evenodd" clipRule="evenodd" d="M73.2835 124.204C73.7084 123.619 74.1897 123.08 74.7143 122.582C74.2807 122.198 73.8255 121.834 73.3529 121.503C73.3312 121.082 73.2879 120.678 73.2272 120.294C74.0119 120.817 74.723 121.331 75.4253 121.956C76.8171 120.825 78.4646 119.954 80.2553 119.342C80.4114 119.603 80.5544 119.881 80.6758 120.171C79.0153 120.731 77.4544 121.523 76.1104 122.606C77.4111 123.901 78.5254 125.401 79.4272 126.99C80.0081 126.814 80.5935 126.667 81.1831 126.528C81.1398 126.847 81.0877 127.174 81.027 127.509C80.6412 127.603 80.2553 127.705 79.8737 127.815C80.1469 128.338 80.394 128.874 80.6195 129.409C80.4937 129.916 80.3507 130.434 80.1946 130.974C79.826 129.985 79.4402 129.049 78.9459 128.106C77.5802 128.571 76.3445 129.176 75.1652 129.981C76.6307 131.558 77.7493 133.523 78.6814 135.346C78.5297 135.73 78.3736 136.126 78.2089 136.526C77.2507 134.349 76.1277 132.273 74.4238 130.524C72.5942 131.938 71.3932 133.454 70.3049 135.415C70.7645 134.32 71.2068 133.119 71.61 131.865C72.2516 131.145 72.967 130.475 73.7344 129.871C73.3269 129.519 72.902 129.196 72.4511 128.919C72.5291 128.604 72.6028 128.285 72.6722 127.971C73.3356 128.375 73.8992 128.767 74.4932 129.311C75.7375 128.449 77.0512 127.791 78.4993 127.288C77.6452 125.818 76.609 124.428 75.3993 123.227C74.4715 124.102 73.6998 125.127 73.1275 126.304L72.928 126.72C73.0841 125.862 73.2055 125.021 73.2835 124.204Z" stroke="#3F260A" strokeWidth="0.9" strokeMiterlimit="22.9256"/>
<path fillRule="evenodd" clipRule="evenodd" d="M75.2819 136.314C74.9393 136.064 74.3237 135.893 73.8944 135.929C72.494 136.052 71.2974 136.428 70.0053 136.914L69.5544 137.086C69.6888 136.808 69.8189 136.522 69.9533 136.228C71.2454 135.725 72.3813 135.145 73.8034 135.022C74.4841 134.961 75.3512 135.202 75.8888 135.603C76.5219 136.089 77.2763 136.722 77.8702 137.327C77.7488 137.613 77.6231 137.907 77.493 138.201C76.8817 137.523 76.0059 136.89 75.2819 136.314Z" stroke="#3F260A" strokeWidth="0.9" strokeMiterlimit="22.9256"/>
<path fillRule="evenodd" clipRule="evenodd" d="M154.641 240.327C154.633 239.327 155.267 238.756 156.848 238.756H160.711C162.097 238.756 162.458 239.716 162.486 240.577L162.101 260.707C162.129 261.393 162.434 261.627 162.767 261.758C163.421 262.052 163.314 263.809 163.31 264.785C163.314 265.177 162.941 265.507 162.589 265.598L156.472 266.546C155.402 266.768 154.855 265.935 154.847 264.904L154.772 255.38C153.568 254.916 152.478 254.301 151.484 253.559C151.499 254.543 151.515 255.995 151.531 256.939C151.531 257.923 151.424 258.803 150.885 258.716C149.051 258.589 148.453 258.704 146.686 258.617C145.842 258.545 145.458 257.609 145.331 257.006C144.55 253.286 143.619 248.954 142.91 245.424C142.779 244.765 142.114 244.297 141.623 244.297C141.08 244.297 140.89 244.091 140.692 243.528C140.505 243.036 140.26 242.044 140.157 241.457C139.951 240.367 141.706 239.899 143.314 239.442C145.149 238.982 147.292 238.756 149.356 238.756C150.434 238.756 151.202 239.589 151.282 240.771C151.313 242.659 151.345 244.639 151.373 246.646C152.399 248.177 153.52 249.355 154.724 250.223L154.641 240.327Z" fill="#3F260A" stroke="#3F260A" strokeWidth="0.9" strokeMiterlimit="22.9256"/>
<path fillRule="evenodd" clipRule="evenodd" d="M90.6573 240.505C91.307 241.85 92.0558 243.012 92.6739 244.44C92.9155 243.972 93.2166 243.532 93.5613 243.119C93.8862 242.647 93.9813 242.556 93.8268 242.152C93.5375 241.442 93.0938 240.716 92.6184 240.01C92.5669 239.93 92.3846 239.776 92.1667 239.827C91.5962 239.978 91.0416 240.299 90.6573 240.505ZM97.2934 236.666C99.3219 239.161 99.9003 241.481 100.019 244.528C100.027 244.952 99.9122 245.44 99.4566 245.583C98.169 246.071 97.2577 246.626 96.5169 247.725C94.8529 250.239 102.515 252.639 104.706 252.695C105.534 252.742 106.295 253.072 106.497 253.718C107.02 255.523 107.416 257.455 107.388 259.497C107.384 259.688 107.563 260.061 108.006 260.057C108.391 260.057 108.704 260.37 108.704 260.755V263.23C108.704 263.615 108.391 263.932 108.006 263.932H89.6232C89.2389 263.932 88.9259 263.615 88.9259 263.23V260.755C88.9259 260.37 89.2389 260.057 89.6232 260.057C89.9243 260.057 89.9719 259.835 89.956 259.731C89.3182 254.261 87.5115 248.661 85.1067 243.377C84.9165 242.961 84.4015 242.727 83.8706 242.973C83.2842 243.274 82.7217 242.874 82.3809 242.405C82.0561 241.937 81.7035 241.422 81.5093 240.862C81.3152 240.319 81.5965 239.696 82.1472 239.522C86.422 237.503 90.6929 236.214 94.9678 235.488C95.9543 235.365 96.8536 236.115 97.2934 236.666ZM96.1286 254.273C96.6238 256.189 97.0042 258.125 97.23 260.057H99.7299C99.6784 258.728 99.5358 257.851 99.2426 256.665C99.1277 256.205 98.5968 255.765 98.1531 255.515C97.4717 255.118 96.7823 254.706 96.1286 254.273Z" fill="#3F260A" stroke="#3F260A" strokeWidth="0.9" strokeMiterlimit="22.9256"/>
<path fillRule="evenodd" clipRule="evenodd" d="M8.11588 237.035C7.69989 237.983 7.96137 239.621 8.32586 240.632C8.5081 241.1 8.34171 241.342 8.08419 241.672C7.58499 242.267 6.87582 242.85 6.26569 243.298C5.86158 243.576 5.26334 243.29 4.88697 242.798C1.03604 238.554 -0.120825 233.834 2.17309 228.499C2.494 227.892 3.04866 227.503 3.96385 227.987C7.91779 230.573 12.6681 231.807 18.1949 231.727C18.7772 231.743 19.0467 232.168 19.2685 232.6C19.7241 233.381 20.2629 234.123 20.9563 234.802C21.6021 235.424 21.5189 236.222 21.2653 236.904C20.4333 239.034 18.3335 241.469 15.0452 243.873C21.6575 245.452 23.476 249.863 22.0854 255.864C20.0213 264.329 2.36326 271.544 7.77516 282.721C7.23239 283.197 7.16107 283.098 6.6183 283.574C2.26025 278.771 1.559 272.865 7.54934 264.884C9.4431 262.44 14.8788 256.324 12.2679 252.651C11.4953 251.477 9.59365 251.14 9.23709 252.52C9.13804 252.925 8.99145 253.198 8.46849 253.186C7.85836 253.167 6.55491 252.996 5.97252 252.826C5.63972 252.714 5.44163 252.445 5.42578 252.06C5.83385 242.782 11.0041 241.977 13.6149 237.931C11.4438 237.796 9.95418 237.693 8.11588 237.035Z" fill="#3F260A" stroke="#3F260A" strokeWidth="0.9" strokeMiterlimit="22.9256"/>
<path fillRule="evenodd" clipRule="evenodd" d="M37.8656 259.815C36.8592 261.655 33.8918 263.932 30.5282 263.932C27.2438 263.932 24.7359 262.341 24.1813 259.16C23.381 255.352 25.453 252.722 27.636 250.398C27.9886 250.001 29.617 248.732 31.5424 246.868C31.8118 246.574 32.5527 246.019 31.5464 245.729C30.9521 245.567 30.5123 245.019 30.5123 244.369C30.5123 243.591 31.1423 242.961 31.9188 242.961C32.0258 242.961 32.1288 242.973 32.2239 242.992L31.6137 241.172H28.9989C28.4284 241.172 28.0362 241.683 28.1669 242.187C28.5393 244.075 28.5354 245.079 27.6043 246.519C27.1566 247.169 26.293 247.701 26.1107 247.082C24.9578 243.099 22.2836 242.723 21.8715 240.509C21.515 238.296 22.7828 237.292 24.9103 237.3H35.5399C37.1247 237.3 38.3291 238.066 38.7292 239.565L46.2211 261.909C46.645 263.127 45.8844 263.932 44.9177 263.932H39.2482C38.547 263.932 37.7824 262.833 38.0201 262.282C38.1548 262.016 38.5351 261.826 38.4281 261.484L37.8656 259.815ZM34.3038 249.192C33.5432 251.017 32.1644 252.722 31.4513 254.551C30.8253 256.26 31.3166 258.391 33.2936 258.442C34.4267 258.462 35.9718 257.113 36.6096 256.066L34.3038 249.192Z" fill="#3F260A" stroke="#3F260A" strokeWidth="0.9" strokeMiterlimit="22.9256"/>
<path fillRule="evenodd" clipRule="evenodd" d="M79.437 259.251C78.4267 261.092 75.5385 263.932 72.1749 263.932C68.8905 263.932 66.0261 262.496 65.523 259.211C64.6197 252.722 70.1861 249.398 71.7035 245.455C71.9214 244.924 72.1512 243.865 71.1488 243.575C70.4872 243.385 70.1108 243 70.1108 242.219C70.1108 241.505 71.0775 240.807 71.5173 240.807C71.961 240.807 71.7272 240.819 71.8263 240.842C70.9547 239.141 70.0355 237.007 69.0134 235.38C68.2725 234.238 65.8201 233.802 64.7583 233.718C63.855 233.695 63.5539 233.794 63.4668 234.321C63.3994 234.813 63.7045 235.995 63.5579 236.503C63.3122 237.197 62.6268 237.455 62.2307 236.769C60.5508 233.211 58.7244 233.282 58.0033 231.097C57.4091 229.161 59.1642 229.371 60.4122 229.589C64.1799 230.228 69.0451 231.279 72.8326 232.584C74.4094 233.096 75.384 233.814 76.0258 235.158L87.024 260.013C87.5232 260.925 87.9114 263.932 86.4099 263.932H80.895C80.1937 263.932 79.4291 262.833 79.6668 262.282C79.8015 262.016 80.3601 261.699 80.2532 261.357L79.437 259.251ZM73.9815 247.538C73.4506 249.529 71.2518 252.568 71.1013 254.753C70.9111 257.169 72.1076 258.442 74.6471 258.442C76.2121 258.438 77.8642 256.78 77.9751 255.582L73.9815 247.538Z" fill="#3F260A" stroke="#3F260A" strokeWidth="0.9" strokeMiterlimit="22.9256"/>
<path fillRule="evenodd" clipRule="evenodd" d="M55.975 263.932H63.7561C64.1642 263.932 64.5009 263.595 64.5009 263.186V260.798C64.5009 260.39 64.1642 260.056 63.7561 260.056C63.455 260.068 63.3361 259.937 63.3282 259.592L62.9281 242.013C63.2846 242.013 63.6412 242.013 63.9978 242.009C64.4771 241.989 64.8694 241.616 64.8694 241.136V239.006C64.8694 238.526 64.4771 238.125 63.9978 238.133C57.0368 238.24 50.1986 237.649 43.305 236.455C42.8216 236.428 42.3462 236.832 42.3462 237.312V239.446C42.3462 239.926 42.7424 240.243 43.2178 240.315C43.7249 240.394 44.232 240.47 44.7392 240.541C45.6266 246.292 46.1298 250.291 46.2962 256.078C47.0093 257.799 48.0315 261.246 48.7169 262.984C48.9506 263.563 49.1527 263.932 49.7707 263.932H52.6272C53.1898 263.932 53.6454 263.468 53.6533 262.904C53.7247 255.753 53.1977 248.601 52.132 241.449C53.3087 241.564 54.4893 241.664 55.666 241.747C55.8046 247.804 55.9433 253.861 56.082 259.922C56.082 259.985 56.0542 260.048 55.975 260.056C55.559 260.096 55.2341 260.39 55.2341 260.798V263.186C55.2341 263.595 55.5669 263.932 55.975 263.932Z" fill="#3F260A" stroke="#3F260A" strokeWidth="0.9" strokeMiterlimit="22.9256"/>
<path fillRule="evenodd" clipRule="evenodd" d="M105.811 250.247C108.236 254.289 112.653 257.621 111.085 261.663C111.017 261.893 110.744 262.468 110.946 262.789C111.295 263.345 111.247 263.075 111.647 263.559C111.806 263.789 112.341 263.932 112.725 263.932C119.682 263.912 126.021 258.668 126.365 253.171C126.389 251.798 125.545 251.453 124.432 251.556C122.352 251.762 119.476 252.476 117.277 254.067C117.047 254.21 117.008 254.563 117.012 254.872C117.027 255.396 117.166 255.828 117.313 256.316C117.372 256.487 117.527 256.534 117.741 256.578C118.065 256.629 118.307 256.982 118.149 257.32C117.681 258.387 116.635 259.58 115.732 260.152C115.498 260.271 115.201 260.16 115.193 259.945C115.102 257.367 114.714 254.967 113.917 253.25C113.775 253 113.822 252.687 114.004 252.528C116.809 250.251 119.725 249.077 123.164 248.569C123.533 248.518 123.929 248.185 123.945 247.851C124.012 241.041 118.303 236.432 112.697 236.436C107.139 236.444 101.81 243.024 105.811 250.247ZM112.491 242.5C111.211 243 110.783 246.463 112.055 249.252C113.509 248.034 114.999 247.106 116.485 246.455C116.176 243.928 114.773 241.806 112.491 242.5Z" fill="#3F260A" stroke="#3F260A" strokeWidth="0.9" strokeMiterlimit="22.9256"/>
<path fillRule="evenodd" clipRule="evenodd" d="M125.415 261.048L127.305 261.044C126.362 252.738 129.923 252.631 130.882 248.736C131.148 247.701 130.632 247.617 130.415 247.752C130.058 247.986 129.63 248.125 129.167 248.125C127.911 248.125 126.889 247.102 126.889 245.84C126.889 244.583 127.911 243.56 129.167 243.56C129.285 243.56 129.404 243.568 129.515 243.587L125.371 234.294C124.939 233.326 124.622 232.858 124.115 232.858H123.664C123.093 232.858 122.701 233.366 122.832 233.869C123.204 235.757 124 236.876 123.069 238.316C122.622 238.962 121.758 239.494 121.576 238.875C120.803 236.666 115.415 234.456 114.563 232.195C113.644 229.724 115.478 229.042 117.602 228.983C121.199 228.963 124.844 229.149 128.465 229.268C130.094 229.669 131.746 230.43 132.427 232.318L145.272 261.044H150.699C151.694 261.044 152.894 261.596 152.954 262.484C152.997 264.38 152.209 266.133 149.935 267.736C147.082 269.901 144.404 271.452 145.327 275.375C145.438 275.792 144.467 276.561 144.039 276.196C141.064 273.495 141.04 269.521 143.461 266.328C144.008 265.554 143.362 264.916 142.692 264.919H130.28C127.685 264.892 128.877 266.938 128.164 268.382C127.788 269.092 127.087 269.14 126.401 268.144C125.637 266.946 124.709 266.014 123.965 264.983C122.859 263.614 122.915 261.048 125.415 261.048ZM134.151 261.044H137.324L133.378 252.223C132.76 255.019 131.579 257.72 134.151 261.044Z" fill="#3F260A" stroke="#3F260A" strokeWidth="0.9" strokeMiterlimit="22.9256"/>
<path fillRule="evenodd" clipRule="evenodd" d="M172.644 261.715C173.698 261.647 174.756 261.584 175.813 261.532C175.687 260.168 175.5 258.974 175.16 257.772C175.065 257.443 174.866 257.094 174.601 256.935C173.872 256.526 173.21 256.039 172.644 255.44V261.715ZM184.7 261.278C185.29 261.247 185.773 261.707 185.773 262.302V264.023C185.773 264.614 185.29 265.122 184.7 265.15C178.678 265.201 172.66 265.507 166.642 266.034C165.956 266.106 165.406 265.471 165.39 264.781L164.776 240.172C164.756 239.482 165.35 239.042 166.028 238.919C168.31 238.51 171.412 238.209 173.694 238.074C174.383 238.03 174.934 238.538 174.946 239.327C174.962 239.815 175.009 241.521 174.724 241.763C173.793 242.489 172.644 242.993 172.644 244.425V247.685C172.644 251.89 177.303 254.496 182.382 255.705C182.766 255.789 183.048 256.035 183.147 256.372C183.515 257.78 183.852 259.224 184.014 260.731C184.042 261.017 184.169 261.294 184.7 261.278Z" fill="#3F260A" stroke="#3F260A" strokeWidth="0.9" strokeMiterlimit="22.9256"/>
<path fillRule="evenodd" clipRule="evenodd" d="M178.919 251.429C178.428 246.221 178.951 241.104 180.183 236.682C180.401 235.98 180.98 235.793 181.566 235.964C183.262 236.459 185.861 237.836 187.556 239.347C188.051 239.795 188.099 240.224 187.861 240.934C187.556 241.64 187.243 242.267 186.788 242.881C186.292 243.548 185.849 243.036 185.048 244.805C183.876 247.431 183.353 250.402 182.794 253.44C182.731 253.916 182.378 254.186 181.772 254.107C180.964 253.98 180.084 253.52 179.51 253.111C179.042 252.687 178.935 251.941 178.919 251.429Z" fill="#3F260A" stroke="#3F260A" strokeWidth="0.9" strokeMiterlimit="22.9256"/>
<path fillRule="evenodd" clipRule="evenodd" d="M47.6353 271.445C48.289 272.793 49.0497 274.543 49.5766 276.228C49.8222 275.76 50.2184 274.991 50.5631 274.578C50.888 274.106 50.9831 274.015 50.8325 273.61C50.5433 272.9 50.0758 271.659 49.6004 270.949C49.5489 270.873 49.3666 270.719 49.1487 270.766C48.5782 270.921 48.0236 271.242 47.6353 271.445ZM55.2421 268.089C57.2705 270.588 56.8823 272.424 57.0011 275.467C57.009 275.895 56.8942 276.379 56.4385 276.526C55.1509 277.01 54.2397 277.565 53.4988 278.664C51.8349 281.179 57.5637 282.127 59.7507 282.182C60.5787 282.23 61.3433 282.559 61.5454 283.209C62.0683 285.01 62.4645 286.942 62.4328 288.985C62.4328 289.179 62.6072 289.548 63.0548 289.544C63.4391 289.544 63.7521 289.861 63.7521 290.246V292.721C63.7521 293.106 63.4391 293.419 63.0548 293.419H44.6718C44.2875 293.419 43.9706 293.106 43.9706 292.721V290.246C43.9706 289.861 44.2875 289.544 44.6718 289.544C44.9729 289.544 45.0205 289.326 45.0046 289.219C44.3628 283.749 44.9769 279.604 42.572 274.316C42.3819 273.904 41.8668 273.67 41.3359 273.916C40.7496 274.217 40.187 273.817 39.8463 273.345C39.5214 272.877 39.1688 272.361 38.9747 271.806C38.7805 271.262 39.0618 270.639 39.6125 270.465C43.8874 268.446 48.6416 267.641 52.9164 266.915C53.9029 266.792 54.8023 267.542 55.2421 268.089ZM51.1772 283.761C51.6724 285.677 52.0528 287.612 52.2786 289.544H54.7785C54.727 288.215 54.5844 287.343 54.2873 286.157C54.1763 285.693 53.6415 285.252 53.2017 285.002C52.5163 284.606 51.8309 284.197 51.1772 283.761Z" fill="#3F260A" stroke="#3F260A" strokeWidth="0.9" strokeMiterlimit="22.9256"/>
<path fillRule="evenodd" clipRule="evenodd" d="M155.414 289.691C154.404 291.535 151.436 293.808 148.077 293.808C144.792 293.808 142.281 292.221 141.73 289.036C140.926 285.228 142.998 282.598 145.185 280.274C145.533 279.877 147.162 278.608 149.087 276.744C149.356 276.45 150.097 275.895 149.095 275.605H149.091C148.497 275.443 148.057 274.895 148.057 274.245C148.057 273.467 148.687 272.837 149.463 272.837C149.57 272.837 149.673 272.849 149.772 272.869L149.313 271.599C148.952 270.631 149.61 269.449 150.953 269.275C152.403 269.12 157.13 269.073 157.332 270.251L157.328 271.175C157.324 271.639 157.078 272.024 157.32 272.563L163.77 291.789C164.19 293.003 163.429 293.808 162.462 293.808H156.793C156.096 293.808 155.327 292.709 155.565 292.158C155.699 291.892 156.08 291.706 155.973 291.361L155.414 289.691ZM151.848 279.068C151.092 280.893 149.709 282.598 148.996 284.427C148.37 286.137 148.861 288.267 150.838 288.318C151.971 288.342 153.52 286.989 154.154 285.946L151.848 279.068Z" fill="#3F260A" stroke="#3F260A" strokeWidth="0.9" strokeMiterlimit="22.9256"/>
<path fillRule="evenodd" clipRule="evenodd" d="M67.5516 267.097C68.7798 266.994 70.008 266.891 71.2401 266.788C71.6323 266.788 71.9532 267.109 71.9532 267.506L71.9017 269.382C71.9017 269.779 71.5452 269.941 71.1886 270.1C70.8162 270.31 70.5072 270.945 71.1371 271.385C73.1537 272.928 76.6639 276.101 78.3358 279.31C81.22 284.213 77.1235 293.419 70.317 293.419H66.6325C66.2363 293.419 65.9154 293.098 65.9154 292.701V290.774C65.9154 290.377 66.3076 290.278 66.6325 290.056C66.89 289.857 66.997 289.6 66.997 289.298C66.8821 285.95 64.0929 284.316 61.0185 279.207C58.1343 274.301 61.387 267.764 67.5516 267.097ZM68.9898 273.825C64.497 277.886 69.9406 281.353 70.1664 287.585C74.576 283.904 73.637 277.966 68.9898 273.825Z" fill="#3F260A" stroke="#3F260A" strokeWidth="0.9" strokeMiterlimit="22.9256"/>
<path fillRule="evenodd" clipRule="evenodd" d="M87.9552 266.799C93.4463 266.799 96.386 270.143 97.2339 274.423C97.4042 275.272 97.9193 275.399 97.9153 276.026V277.866C97.8995 278.695 97.5746 278.945 96.8733 278.929L90.7166 278.949C89.7261 278.949 89.2388 278.497 89.1715 277.664L89.1675 276.914C89.1715 276.295 89.4647 275.994 89.8291 275.891C90.4393 275.748 90.8077 274.693 90.6532 273.979C90.463 272.888 89.9797 271.321 88.2523 271.317C85.0947 271.321 84.9006 274.752 86.7429 279.203C87.9948 282.455 87.9592 285.827 86.311 288.917C88.6446 288.203 90.0669 286.906 90.3165 284.53C90.4591 283.427 89.33 283.59 89.2666 282.793L89.2745 281.845C89.2864 281.23 90.0193 280.841 90.7364 280.841H96.5722C97.3408 280.841 98.054 281.511 97.8598 282.765C96.7307 288.798 89.8331 293.419 82.3412 293.419C81.945 293.419 81.6241 293.098 81.6241 292.701V290.194C81.6241 289.802 81.9965 289.528 82.3412 289.48C82.6938 289.425 82.9474 289.155 83.0663 288.834C84.0329 286.144 82.983 283.447 80.5861 279.96C78.2566 275.958 78.8152 272.198 80.9387 269.766C82.6106 267.847 85.3087 266.799 87.9552 266.799Z" fill="#3F260A" stroke="#3F260A" strokeWidth="0.9" strokeMiterlimit="22.9256"/>
<path fillRule="evenodd" clipRule="evenodd" d="M98.9135 267.883C105.245 267.851 111.599 267.855 117.93 267.141C118.465 267.113 118.901 267.577 118.901 268.113C118.901 270.762 116.849 274.134 116.805 275.387C116.805 276.002 115.985 276.296 115.423 275.732C114.773 275.038 114.769 273.694 114.507 272.73C114.353 272.17 114.242 271.96 113.461 271.956C112.661 271.996 112.071 272.27 112.031 272.896L112.994 290.032C113.065 290.877 112.76 291.472 111.992 291.714C109.575 292.388 108.01 293.419 105.569 293.419C104.646 293.419 104.337 292.554 104.349 291.571L104.951 272.845C104.928 272.262 104.02 272.333 103.957 272.904C103.993 275.082 103.232 276.672 101.837 278.303C101.287 278.878 100.019 279.441 100.019 277.815C100.11 273.82 98.6401 272.829 97.9864 269.937C97.7804 269.271 98.0458 267.918 98.9135 267.883Z" fill="#3F260A" stroke="#3F260A" strokeWidth="0.9" strokeMiterlimit="22.9256"/>
<path fillRule="evenodd" clipRule="evenodd" d="M127.13 271.718C126.473 271.052 126.009 270.54 125.328 269.799C124.619 268.993 123.783 268.743 122.614 269.695C120.522 271.445 118.791 276.323 116.881 279.636C116.675 280.024 116.691 280.695 117.087 281.02C117.665 281.428 118.113 281.75 118.711 282.107C119.238 282.281 119.801 282.083 120.157 281.48C120.328 281.103 120.296 281.171 120.467 280.794C120.696 280.326 121.069 280.591 121.168 281.175C123.065 291.127 122.115 302.035 116.778 314.176C116.35 315.168 117.249 315.953 118.109 315.2C122.863 310.793 127.075 302.475 129.064 292.039C131.021 294.843 134.543 294.911 137.201 292.574C138.937 290.901 140.533 286.93 140.232 283.681C139.658 278.434 136.203 274.685 132.673 271.104C131.231 269.691 130.165 269.628 129.151 270.731C128.893 271.032 128.43 271.583 128.129 271.897C127.863 272.206 127.431 271.988 127.13 271.718ZM130.894 285.629C130.046 285.082 129.531 284.288 129.305 283.428C129.206 281.46 129.012 279.425 128.858 277.39C128.782 276.776 129.088 276.534 129.563 276.201C129.86 275.982 130.308 276.022 130.534 276.252C132.57 278.152 133.802 280.484 133.453 283.681C133.275 284.998 132.051 286.387 130.894 285.629Z" fill="#3F260A" stroke="#3F260A" strokeWidth="0.9" strokeMiterlimit="22.9256"/>
<path fillRule="evenodd" clipRule="evenodd" d="M160.774 274.563C160.168 274.368 160.093 273.829 160.057 273.024C160.057 272.409 160.057 271.794 160.057 271.179C160.077 270.306 160.604 270.136 161.876 270.076C165.219 270.049 168.444 270.747 171.856 272.563C172.521 272.928 172.755 273.182 172.47 274.293C171.499 277.859 170.746 281.278 170.524 285.526C170.552 286.054 171.178 286.323 171.499 286.478C174.95 278.489 177.759 272.667 179.573 270.425C181.693 268.264 183.785 270.088 183.963 271.834C184.423 275.872 184.423 280.235 184.629 284.606C184.644 285.038 184.359 285.256 184.014 285.324C183.666 285.352 183.246 285.391 182.683 285.348C182.113 285.328 181.903 284.709 181.76 284.3C181.59 283.614 181.661 283.341 181.491 282.658C181.344 281.968 180.655 282.004 180.199 282.71C173.583 293.491 168.892 303.407 166.915 314.74C166.646 315.636 165.861 315.557 165.687 314.712C164.899 306.477 166.495 299.667 169.288 291.702C169.518 291.083 168.959 290.695 168.658 290.552C167.775 290.119 167.105 289.77 166.218 289.358C165.188 288.866 164.621 287.791 164.356 285.836C163.876 282.508 163.971 279.568 163.833 276.252C163.623 275.499 163.159 275.356 160.774 274.563Z" fill="#3F260A" stroke="#3F260A" strokeWidth="0.9" strokeMiterlimit="22.9256"/>
<path fillRule="evenodd" clipRule="evenodd" d="M176.091 266.72C173.92 269.727 172.577 268.533 170.944 266.701C170.635 266.149 169.692 267.506 169.902 268.033C173.064 273.959 175.936 272.353 177.961 269.553C178.622 268.62 176.649 265.987 176.091 266.72Z" fill="#3F260A" stroke="#3F260A" strokeWidth="0.9" strokeMiterlimit="22.9256"/>
</svg>
