<svg width="25" height="24" viewBox="0 0 25 24" fill="none" xmlns="http://www.w3.org/2000/svg">
<g clipPath="url(#clip0_0_2073)">
<path d="M1.89126 14.8072H8.78648L7.29975 24.079H3.26169L1.89126 14.8072ZM18.5675 11.1802C19.8826 11.1772 21.0742 10.6641 21.9351 9.82738C22.8026 8.98551 23.3347 7.83503 23.3313 6.55605C23.3313 5.27768 22.7991 4.12201 21.9351 3.28503C21.0707 2.44347 19.8857 1.92882 18.5675 1.92882C17.2523 1.92882 16.0642 2.44011 15.1983 3.28503C14.3358 4.12201 13.8021 5.27432 13.8021 6.55605C13.8021 7.83473 14.3326 8.99039 15.1983 9.82738C16.0611 10.6644 17.2492 11.1802 18.5675 11.1802ZM7.61155 7.68394H1.17838C0.524913 7.68394 0 7.176 0 6.54353C0 5.90893 0.524913 5.39764 1.17838 5.39764H7.61155C7.95825 5.39764 8.26502 5.54935 8.48001 5.7792H11.9168C12.3081 2.61318 15.0537 0.148318 18.4166 0.15137C22.0542 0.148318 24.9984 3.01153 25 6.54323C25 10.0725 22.0542 12.9311 18.4166 12.9311C15.054 12.9311 12.3068 10.4693 11.9168 7.30177H8.48001C8.26502 7.53558 7.95793 7.68394 7.61155 7.68394ZM13.2111 6.5533C13.2111 7.9901 13.8115 9.29167 14.7799 10.2321C15.7452 11.1711 17.0845 11.7565 18.5675 11.7565C20.0454 11.7535 21.3847 11.1711 22.3515 10.2337C23.3234 9.29014 23.9187 7.9901 23.9187 6.55819C23.9187 5.122 23.32 3.8244 22.3515 2.88241C21.3831 1.94164 20.0422 1.35923 18.5675 1.35923C17.0895 1.35923 15.7534 1.94164 14.7818 2.8821C13.8134 3.82257 13.2111 5.12017 13.2111 6.5533ZM11.8602 23.7503C12.1418 24.0174 12.4901 24.1514 12.9034 24.1514H23.3885C23.8034 24.1514 24.1501 24.0174 24.4333 23.7503C24.7133 23.4862 24.8532 23.1544 24.8532 22.7527H11.4346C11.4346 23.1541 11.5764 23.4859 11.8602 23.7503ZM23.7239 16.4872C23.9517 16.704 24.1274 16.9601 24.261 17.2571C24.3946 17.5605 24.4578 17.8749 24.4578 18.2134C24.4578 18.5513 24.3946 18.8663 24.261 19.1585C24.1274 19.446 23.9502 19.6975 23.7239 19.9142C23.5026 20.1322 23.2354 20.3062 22.9315 20.4341C22.6222 20.5638 22.2965 20.627 21.9483 20.627H21.7025V21.1581C21.7025 21.5122 21.5821 21.8013 21.3382 22.0275C21.0987 22.2518 20.8076 22.3657 20.459 22.3657H14.8371C14.4889 22.3657 14.1959 22.2518 13.9583 22.0275C13.7172 21.8016 13.5984 21.5122 13.5984 21.1581V15.7745H21.9492C22.2975 15.7745 22.6231 15.8377 22.9324 15.9674C23.2354 16.0968 23.5054 16.2708 23.7239 16.4872ZM23.4649 18.2116C23.4649 17.7977 23.3215 17.4433 23.0336 17.1606C22.7375 16.8792 22.3776 16.7385 21.9495 16.7385H21.7022V19.6627H21.9495C22.3792 19.6627 22.7407 19.5202 23.0336 19.236C23.3215 18.9545 23.4649 18.6133 23.4649 18.2116Z" fill="#3F260A"/>
</g>
<defs>
<clipPath id="clip0_0_2073">
<rect width="25" height="24" fill="white"/>
</clipPath>
</defs>
</svg>
