<svg width="25" height="25" viewBox="0 0 25 25" fill="none" xmlns="http://www.w3.org/2000/svg">
<g clipPath="url(#clip0_0_2079)">
<g clipPath="url(#clip1_0_2079)">
<path d="M20.8481 11.4835H4.1506C4.1506 8.65646 6.44233 6.3663 9.26778 6.3663H10.6992V0H14.2988V6.36473H15.7312C18.5563 6.36473 20.8481 8.65489 20.8481 11.4835ZM13.3521 13.5238V13.5156C13.3521 13.0454 12.9705 12.6669 12.4993 12.6669C12.0272 12.6669 11.6456 13.0532 11.6456 13.5241C11.6456 13.9943 12.0272 14.3768 12.4993 14.3768C12.9708 14.3765 13.3521 13.994 13.3521 13.5238ZM13.3521 20.6136V20.5957C13.3521 20.1236 12.9705 19.7492 12.4993 19.7492C12.0272 19.7492 11.6456 20.1399 11.6456 20.6136C11.6456 21.0838 12.0272 21.4664 12.4993 21.4664C12.9708 21.4664 13.3521 21.0838 13.3521 20.6136ZM13.3521 17.0703V17.0508C13.3521 16.5802 12.9705 16.2074 12.4993 16.2074C12.0272 16.2074 11.6456 16.5966 11.6456 17.0699C11.6456 17.5389 12.0272 17.923 12.4993 17.923C12.9708 17.923 13.3521 17.5392 13.3521 17.0703ZM13.3521 24.1469V24.1375C13.3521 23.667 12.9705 23.2879 12.4993 23.2879C12.0272 23.2879 11.6456 23.6751 11.6456 24.1469C11.6456 24.619 12.0272 25 12.4993 25C12.9708 25 13.3521 24.619 13.3521 24.1469ZM22.5149 23.981C22.9544 23.8068 23.1643 23.3105 22.9902 22.8742L22.9836 22.856C22.8095 22.4181 22.3163 22.2101 21.88 22.3924C21.439 22.5649 21.2322 23.0691 21.4079 23.5054C21.5415 23.8405 21.8589 24.0426 22.199 24.0426C22.3034 24.0429 22.4109 24.0218 22.5149 23.981ZM21.3381 20.7617C21.7763 20.5891 21.9875 20.0912 21.8137 19.6549L21.8071 19.6367C21.6314 19.1989 21.1366 18.9876 20.7019 19.1715C20.2628 19.3456 20.0541 19.8501 20.2317 20.2864C20.3634 20.6202 20.684 20.8236 21.0228 20.8236C21.1266 20.8236 21.2341 20.8041 21.3381 20.7617ZM20.0896 17.5685C20.5407 17.4333 20.7962 16.9584 20.6607 16.5073L20.656 16.491C20.5205 16.0386 20.0503 15.791 19.5964 15.9277C19.1454 16.0613 18.8917 16.5428 19.0281 16.997C19.1356 17.3667 19.4776 17.6043 19.8419 17.6043C19.9255 17.6043 20.0066 17.5945 20.0896 17.5685ZM18.9845 14.3228C19.4223 14.1502 19.6338 13.6523 19.4597 13.2167L19.4531 13.1997C19.279 12.7634 18.7842 12.5534 18.3479 12.7332C17.9101 12.9083 17.7017 13.4128 17.8777 13.8506C18.011 14.1813 18.33 14.3847 18.6701 14.3847C18.7732 14.385 18.882 14.3652 18.9845 14.3228ZM17.4908 24.5279C17.9528 24.4367 18.254 23.9876 18.1597 23.5255L18.1562 23.5092C18.0635 23.0468 17.6112 22.7507 17.1551 22.8481C16.6912 22.9393 16.3935 23.3982 16.4878 23.8574C16.5692 24.2642 16.9241 24.5442 17.3211 24.5442C17.3798 24.5477 17.4367 24.5408 17.4908 24.5279ZM16.8816 21.1558C17.3506 21.1087 17.6907 20.6903 17.6451 20.2198L17.6435 20.2034C17.5977 19.7363 17.1812 19.3944 16.711 19.45C16.242 19.4956 15.9003 19.9218 15.9475 20.3908C15.9915 20.8299 16.3624 21.1587 16.7952 21.1587C16.8232 21.1587 16.8524 21.1587 16.8816 21.1558ZM16.4359 17.7539C16.898 17.6624 17.1975 17.2148 17.1048 16.7512L17.1013 16.7349C17.0121 16.276 16.561 15.9827 16.1018 16.0773C15.6397 16.1685 15.3418 16.6242 15.4345 17.0866C15.5162 17.4933 15.8711 17.7718 16.2678 17.7718C16.3253 17.7718 16.3819 17.7668 16.4359 17.7539ZM15.9101 14.3683C16.3724 14.2775 16.6735 13.828 16.5789 13.366L16.5758 13.3496C16.4828 12.8882 16.0254 12.5937 15.5744 12.6905C15.1104 12.7801 14.8143 13.2365 14.9074 13.6995C14.9903 14.1049 15.3452 14.385 15.7403 14.385C15.7994 14.385 15.8563 14.38 15.9101 14.3683ZM3.5908 23.5057L3.59802 23.4894C3.7731 23.0531 3.55873 22.5653 3.11963 22.3927C2.68743 22.2167 2.18294 22.4348 2.00975 22.8742C1.83624 23.3105 2.04464 23.8068 2.48406 23.981C2.58748 24.0218 2.69655 24.0429 2.79964 24.0429C3.13911 24.0429 3.45721 23.8411 3.5908 23.5057ZM4.76731 20.2864L4.77391 20.2701C4.94899 19.8338 4.73556 19.3456 4.29771 19.1715C3.86394 18.9971 3.36103 19.2155 3.18595 19.6549C3.01244 20.0912 3.22241 20.5891 3.66026 20.7617C3.76367 20.8041 3.8718 20.8236 3.97521 20.8236C4.31562 20.8236 4.63561 20.6202 4.76731 20.2864ZM5.97116 16.997L5.97588 16.9791C6.11261 16.5268 5.85235 16.061 5.40287 15.9274C4.94396 15.7844 4.47279 16.0544 4.3392 16.507C4.20404 16.958 4.45896 17.433 4.91032 17.5681C4.99425 17.5942 5.07566 17.604 5.15518 17.604C5.52262 17.6043 5.86272 17.3667 5.97116 16.997ZM7.12096 13.8506L7.12756 13.8327C7.30264 13.3949 7.08921 12.9083 6.65073 12.7332C6.22105 12.5566 5.71656 12.7782 5.53897 13.2167C5.36546 13.6523 5.57795 14.1486 6.01423 14.3228C6.11764 14.3652 6.22577 14.3847 6.33075 14.3847C6.66928 14.385 6.98737 14.1813 7.12096 13.8506ZM8.51089 23.8574L8.51592 23.8408C8.60959 23.3787 8.30753 22.9393 7.84453 22.8466C7.38625 22.7504 6.93456 23.0616 6.83932 23.5233C6.74597 23.9841 7.04615 24.4348 7.50915 24.526C7.5629 24.5405 7.61916 24.5439 7.67762 24.5439C8.07399 24.5477 8.42948 24.2676 8.51089 23.8574ZM9.05122 20.3908L9.05279 20.3741C9.10056 19.9055 8.75732 19.4968 8.28772 19.45C7.82064 19.3944 7.40228 19.7527 7.35419 20.2198C7.30704 20.6884 7.64871 21.1065 8.11736 21.1558C8.14597 21.159 8.1752 21.159 8.20349 21.159C8.63631 21.1587 9.00564 20.8314 9.05122 20.3908ZM9.56419 17.0866L9.56733 17.0699C9.66069 16.6079 9.35894 16.1669 8.89751 16.0773C8.44583 15.9748 7.98597 16.2923 7.89231 16.7525C7.79958 17.2148 8.09913 17.6656 8.56056 17.7567C8.61588 17.7681 8.67277 17.7731 8.73061 17.7731C9.12948 17.7718 9.48247 17.4933 9.56419 17.0866ZM10.0913 13.6995L10.0963 13.6815C10.1891 13.2217 9.88794 12.7797 9.424 12.688C8.96918 12.5934 8.51089 12.9052 8.4188 13.3656C8.32607 13.828 8.62562 14.2772 9.08925 14.368C9.14206 14.3797 9.19926 14.3847 9.25773 14.3847C9.6544 14.385 10.0093 14.1049 10.0913 13.6995Z" fill="#583711"/>
</g>
</g>
<defs>
<clipPath id="clip0_0_2079">
<rect width="25" height="25" fill="white"/>
</clipPath>
<clipPath id="clip1_0_2079">
<rect width="25" height="25" fill="white"/>
</clipPath>
</defs>
</svg>
