<svg width="172" height="70" viewBox="0 0 172 70" fill="none" xmlns="http://www.w3.org/2000/svg">
<path fillRule="evenodd" clipRule="evenodd" d="M26.0377 22.0151C27.9282 22.0151 29.4599 23.5469 29.4599 25.4374C29.4599 27.3279 27.9282 28.8596 26.0377 28.8596C24.1472 28.8596 22.6155 27.3279 22.6155 25.4374C22.6155 23.5469 24.1472 22.0151 26.0377 22.0151ZM23.3085 25.2207H25.2945L23.8558 23.7832C23.5485 24.1885 23.3501 24.6831 23.3085 25.2207ZM24.2819 23.3375L25.7292 24.7848V22.7167C25.1818 22.7779 24.6823 23.0008 24.2819 23.3375ZM26.3463 22.7167V24.7848L27.7935 23.3375C27.3919 23.0008 26.8936 22.7779 26.3463 22.7167ZM28.2196 23.7832L26.7809 25.2207H28.7669C28.7253 24.6831 28.5269 24.1885 28.2196 23.7832ZM28.7461 25.8365H26.7809L28.1388 27.1932C28.4547 26.8148 28.6714 26.3483 28.7461 25.8365ZM27.6919 27.6193L26.3463 26.2724V28.158C26.8483 28.1017 27.3099 27.9095 27.6919 27.6193ZM25.7292 28.158V26.2724L24.3835 27.6193C24.7655 27.9095 25.2272 28.1017 25.7292 28.158ZM23.9366 27.1932L25.2945 25.8365H23.3281C23.404 26.3483 23.6195 26.8148 23.9366 27.1932Z" fill="#FEFEFE" stroke="#2B2A29" strokeWidth="0.45" strokeMiterlimit="22.9256"/>
<path fillRule="evenodd" clipRule="evenodd" d="M26.0378 21.6724C28.1168 21.6724 29.8028 23.3584 29.8028 25.4374C29.8028 27.5165 28.1168 29.2025 26.0378 29.2025C23.9587 29.2025 22.2727 27.5165 22.2727 25.4374C22.2727 23.3584 23.9587 21.6724 26.0378 21.6724ZM26.0378 22.0152C27.9283 22.0152 29.46 23.5469 29.46 25.4374C29.46 27.3279 27.9283 28.8597 26.0378 28.8597C24.1473 28.8597 22.6155 27.3279 22.6155 25.4374C22.6155 23.5469 24.1473 22.0152 26.0378 22.0152ZM23.3086 25.2207H25.2946L23.8559 23.7833C23.5485 24.1885 23.3502 24.6832 23.3086 25.2207ZM24.282 23.3376L25.7292 24.7848V22.7168C25.1819 22.778 24.6823 23.0009 24.282 23.3376ZM26.3463 22.7168V24.7848L27.7936 23.3376C27.392 23.0009 26.8936 22.778 26.3463 22.7168ZM28.2197 23.7833L26.781 25.2207H28.767C28.7254 24.6832 28.527 24.1885 28.2197 23.7833ZM28.7462 25.8366H26.781L28.1389 27.1932C28.4548 26.8149 28.6715 26.3484 28.7462 25.8366ZM27.692 27.6193L26.3463 26.2725V28.1581C26.8483 28.1018 27.3099 27.9095 27.692 27.6193ZM25.7292 28.1581V26.2725L24.3836 27.6193C24.7656 27.9095 25.2272 28.1018 25.7292 28.1581ZM23.9367 27.1932L25.2946 25.8366H23.3281C23.4041 26.3484 23.6196 26.8149 23.9367 27.1932Z" fill="#1C1B17" stroke="#2B2A29" strokeWidth="0.45" strokeMiterlimit="22.9256"/>
<path fillRule="evenodd" clipRule="evenodd" d="M26.0377 20.1638C28.9506 20.1638 31.3113 22.5245 31.3113 25.4374C31.3113 28.3502 28.9506 30.7109 26.0377 30.7109C23.1248 30.7109 20.7642 28.3502 20.7642 25.4374C20.7642 22.5245 23.1248 20.1638 26.0377 20.1638ZM26.0377 21.6723C28.1168 21.6723 29.8028 23.3583 29.8028 25.4374C29.8028 27.5164 28.1168 29.2024 26.0377 29.2024C23.9587 29.2024 22.2726 27.5164 22.2726 25.4374C22.2726 23.3583 23.9587 21.6723 26.0377 21.6723Z" fill="#FEFEFE" stroke="#2B2A29" strokeWidth="0.45" strokeMiterlimit="22.9256"/>
<path fillRule="evenodd" clipRule="evenodd" d="M26.0379 19.7905C29.1564 19.7905 31.6849 22.3189 31.6849 25.4375C31.6849 28.5561 29.1564 31.0845 26.0379 31.0845C22.9193 31.0845 20.3909 28.5561 20.3909 25.4375C20.3909 22.3189 22.9193 19.7905 26.0379 19.7905ZM26.0379 20.164C28.9507 20.164 31.3114 22.5246 31.3114 25.4375C31.3114 28.3504 28.9507 30.7111 26.0379 30.7111C23.125 30.7111 20.7643 28.3504 20.7643 25.4375C20.7643 22.5246 23.125 20.164 26.0379 20.164Z" fill="#1C1B17" stroke="#2B2A29" strokeWidth="0.45" strokeMiterlimit="22.9256"/>
<path fillRule="evenodd" clipRule="evenodd" d="M22.961 20.7014L16.9895 11.5073C18.2641 10.4886 19.7506 9.93394 21.4133 9.76742C21.5455 10.4727 22.4663 10.218 22.3488 9.71477C22.792 9.70865 23.2475 9.72702 23.7128 9.76865L25.209 19.8505C24.3886 19.9717 23.627 20.268 22.961 20.7014Z" fill="#FEFEFE" stroke="#2B2A29" strokeWidth="0.45" strokeMiterlimit="22.9256"/>
<path fillRule="evenodd" clipRule="evenodd" d="M13.2549 4.40814C14.4536 5.36931 16.671 6.25578 18.8113 5.44522C21.9445 4.07633 23.8999 3.93062 26.0904 6.03906V3.80083C23.8044 2.08053 21.0042 2.25562 18.8505 3.7739C17.1167 4.9628 15.0278 5.01055 13.2549 4.40814Z" fill="#727271" stroke="#2B2A29" strokeWidth="0.45" strokeMiterlimit="22.9256"/>
<path fillRule="evenodd" clipRule="evenodd" d="M24.8587 1.33243C25.0803 0.889191 25.8676 0.889191 26.0905 1.33243V3.80084C23.8045 2.08054 21.0043 2.25564 18.8505 3.77391C17.1168 4.96281 15.0279 5.01056 13.255 4.40815C14.4537 5.36932 16.6711 6.25579 18.8113 5.44523C21.9446 4.07634 23.9 3.93063 26.0905 6.03907V17.2437C25.8407 17.3012 25.6901 17.0563 25.6338 16.5335C25.3754 14.452 25.5077 10.6759 24.8587 10.289V6.88881C23.3515 5.49788 21.0692 5.5089 19.1774 6.46394C17.4914 7.3394 14.6141 6.59985 12.8313 5.37789C10.9249 4.02369 9.50703 4.31632 8.06467 5.78317C7.98631 5.71583 7.90917 5.64848 7.83203 5.57992C9.02583 2.85682 11.6706 2.38787 13.266 3.2621C14.4181 3.86451 16.4972 3.89757 18.0179 2.91437C20.3957 1.17815 22.6107 0.548804 24.8587 1.61772V1.33243Z" fill="#FEFEFE" stroke="#2B2A29" strokeWidth="0.45" strokeMiterlimit="22.9256"/>
<path fillRule="evenodd" clipRule="evenodd" d="M11.7158 31.8925C11.608 32.146 11.4978 32.3345 11.2689 32.49C11.2077 32.5292 11.1415 32.5047 11.1807 32.4704C11.4158 32.2623 11.5468 32.0137 11.3791 31.8301C11.504 31.8607 11.6227 31.8925 11.7158 31.8925Z" fill="#1C1B17" stroke="#2B2A29" strokeWidth="0.45" strokeMiterlimit="22.9256"/>
<path fillRule="evenodd" clipRule="evenodd" d="M18.4882 41.8323C18.2837 42.1837 18.0498 42.2645 17.8013 42.2657C19.1579 38.9868 19.2167 37.0069 18.1784 36.1229C17.4621 35.5596 16.6209 35.4029 16.1067 35.8767C15.7553 36.2086 15.7834 36.4424 15.9757 36.6444C16.2218 36.855 16.0418 37.2836 15.65 37.2089C15.1553 37.1122 14.7194 37.1305 14.6141 37.5358C14.5651 37.8015 14.5749 38.1321 14.3019 38.3317C14.1182 38.448 13.9493 38.4394 13.686 38.2962C13.4693 38.1419 13.0824 38.186 12.7444 38.2962C12.1322 38.4737 11.9988 38.1088 11.8322 37.804C11.7539 37.6534 11.6216 37.3791 11.8824 37.3362C12.1077 37.2971 12.1677 37.2175 12.1579 37.0142C12.1384 36.8563 12.1506 36.6689 12.2143 36.4975C12.2375 36.4326 12.3428 36.4277 12.371 36.4743C12.5277 36.9542 12.7934 37.2211 13.1864 37.2273C13.326 37.2138 13.5428 37.2003 13.5709 37.0791C13.5807 36.9053 13.5966 36.7081 13.6738 36.5796C13.6872 36.571 13.8109 36.5612 13.8146 36.5832C13.8391 36.7485 13.9076 36.9946 14.0631 36.9812C14.3851 36.9383 14.548 35.5278 15.2802 35.5437C15.874 35.5462 15.9389 35.2021 15.6573 34.847C15.2484 34.296 14.6557 33.8761 14.1574 33.761C13.7778 33.6789 13.6138 33.7144 13.3175 33.9642C13.1154 34.1271 13.1167 34.6083 13.0126 34.6229C12.8534 34.6021 12.5547 34.2275 12.5326 33.7573C12.5277 33.6875 12.4408 33.6642 12.4053 33.6801C12.3098 33.7144 12.1286 33.9446 11.9118 33.9679C11.7172 33.9716 11.5445 33.7646 11.3792 33.8944C11.1723 34.165 11.3719 34.8666 11.1943 34.847C10.9678 34.8066 10.707 34.4319 10.6617 34.0181C10.6519 33.9716 10.6176 33.9201 10.5515 33.936C10.3323 34.0426 10.2552 33.8834 10.0275 33.8075C9.92339 33.7793 9.89278 33.5761 10.0936 33.4279C10.4095 33.2332 10.576 32.9479 10.5638 32.4068C10.5772 31.6488 11.0082 31.7382 11.3792 31.8301C11.547 32.0137 11.4159 32.2623 11.1809 32.4704C11.1417 32.5047 11.2078 32.5292 11.269 32.49C11.498 32.3345 11.6082 32.146 11.7159 31.8925C12.049 31.1811 12.8424 31.1468 13.4632 31.5582C13.7815 31.5203 14.1623 31.6035 14.346 31.8337C14.5639 31.7052 14.8982 31.6599 15.3096 31.819C15.5924 31.6672 15.5581 31.4627 15.5973 31.3427C15.6389 31.2117 15.7908 31.1028 15.983 31.0844C16.1495 31.0611 16.2438 31.1603 16.3626 31.2044C16.5046 31.2595 16.676 31.3489 16.8634 31.3268C17.0262 31.1126 17.1315 31.0697 17.4033 31.0844C17.4596 30.0375 18.7085 30.0669 19.3085 29.4192C19.3673 29.4229 19.4726 29.5098 19.4554 29.5624C19.2632 30.133 18.5212 30.7085 18.7147 31.2289C18.8689 31.2338 19.1677 31.3476 19.3232 31.4676C19.2326 30.4967 21.0129 30.4722 21.6263 29.6898C21.7047 29.5894 21.8883 29.6126 21.8871 29.7914C21.7353 31.0587 21.0484 30.9938 20.9431 31.6599C20.888 32.0027 20.7962 32.1937 20.506 32.3982C21.51 33.2614 20.6407 34.3952 21.0178 35.3515C21.057 35.4555 20.9774 35.5437 20.8733 35.5253C20.7117 35.4629 20.3774 35.2462 20.228 34.9854C19.9146 35.6196 19.9024 36.32 20.3223 36.8759C20.2893 36.9726 20.0456 37.0326 19.9097 36.9922C19.8179 37.4611 19.8485 37.8554 19.9893 38.2668C20.3493 37.9387 20.9725 38.4235 20.7607 38.9806C20.6468 39.2696 20.3566 39.5218 19.9599 39.3969C19.7591 39.3296 19.6428 39.2696 19.5436 39.1361C19.3036 40.1708 18.8396 41.0732 18.4882 41.8323Z" fill="#FEFEFE" stroke="#2B2A29" strokeWidth="0.45" strokeMiterlimit="22.9256"/>
<path fillRule="evenodd" clipRule="evenodd" d="M16.6061 31.2974C16.7641 31.4174 16.7469 31.6782 16.4323 31.7591C16.3723 31.7811 16.3882 31.8778 16.469 31.8901C16.6416 31.9182 16.818 31.5901 17.0481 31.4738C17.2281 31.344 17.5379 31.2766 17.7975 31.4444C17.9554 31.5485 18.1403 31.7566 18.2983 31.7884C18.4893 31.8288 18.4305 31.4444 18.3289 31.3721C18.2297 31.306 17.9958 31.3121 17.8342 31.2779C17.6763 31.235 17.5771 31.1175 17.4032 31.0844C17.1314 31.0697 17.0261 31.1126 16.8633 31.3268C16.7727 31.3366 16.6869 31.3219 16.6061 31.2974Z" fill="#1C1B17" stroke="#2B2A29" strokeWidth="0.45" strokeMiterlimit="22.9256"/>
<path fillRule="evenodd" clipRule="evenodd" d="M13.4631 31.5584C14.2443 31.7837 15.0683 33.1073 15.8716 33.0828C16.0062 33.0656 15.9683 32.8661 15.8311 32.8661C15.0659 32.8281 14.6447 32.2012 14.5871 32.0898C14.5137 31.9845 14.6631 31.7873 15.1822 31.8853C15.4002 31.9355 15.5006 32.0653 15.6108 32.1608C15.6352 32.0432 15.7369 32.0298 15.9083 32.0641C16.2474 32.1204 16.4862 32.2306 16.665 32.413C16.6699 32.2551 16.7715 32.1828 16.9135 32.1339C16.4972 32.2379 16.0883 31.8596 15.6108 31.9563C15.4528 31.982 15.4528 31.7506 15.5201 31.6233C15.4834 31.6918 15.421 31.7592 15.3095 31.8192C14.8981 31.66 14.5639 31.7053 14.3459 31.8339C14.1623 31.6037 13.7815 31.5204 13.4631 31.5584Z" fill="#1C1B17" stroke="#2B2A29" strokeWidth="0.45" strokeMiterlimit="22.9256"/>
<path fillRule="evenodd" clipRule="evenodd" d="M18.9117 33.9373C17.8379 34.465 17.0335 33.81 16.6527 33.2443C16.6307 33.1745 16.7445 33.1145 16.796 33.2051C17.4804 33.9263 18.2481 34.0047 18.8897 33.4365C19.2607 33.1108 18.9277 32.626 19.426 33.1329C20.0994 33.8553 19.2338 35.5744 19.5019 36.6861C19.5215 36.7731 19.415 36.7853 19.3893 36.6898C19.1689 36.0482 19.3464 34.3536 19.2081 33.9508C19.1603 33.8271 19.0244 33.8724 18.9117 33.9373Z" fill="#1C1B17" stroke="#2B2A29" strokeWidth="0.45" strokeMiterlimit="22.9256"/>
<path fillRule="evenodd" clipRule="evenodd" d="M13.4668 32.1631C13.6358 32.19 13.6505 32.2794 13.7411 32.337C13.8378 32.408 13.9444 32.2843 13.8427 32.1925C13.517 31.9084 12.9771 31.8778 12.7273 32.2941C12.2657 32.4141 12.3759 33.0667 12.8473 33.0936C13.173 33.1096 13.2966 32.9994 13.3003 32.8512C13.3077 32.6027 13.0579 32.7202 13.0064 32.5818C12.9562 32.4129 13.0726 32.3357 13.2268 32.3492C13.184 32.2304 13.2501 32.1386 13.4668 32.1631Z" fill="#1C1B17" stroke="#2B2A29" strokeWidth="0.45" strokeMiterlimit="22.9256"/>
<path fillRule="evenodd" clipRule="evenodd" d="M17.5942 33.2333C17.4901 32.7411 17.2159 32.6468 16.9122 32.5097C16.9036 32.4264 16.7812 32.4179 16.8547 32.3285C17.0102 32.1485 17.2244 32.3346 17.3946 32.2771C18.3754 31.9526 18.1856 32.7582 18.5284 33.0093C18.2811 33.2101 17.937 33.3227 17.5942 33.2333Z" fill="#1C1B17" stroke="#2B2A29" strokeWidth="0.45" strokeMiterlimit="22.9256"/>
<path d="M17.5993 32.6946C17.6716 32.6946 17.7303 32.6233 17.7303 32.5354C17.7303 32.4475 17.6716 32.3762 17.5993 32.3762C17.5269 32.3762 17.4683 32.4475 17.4683 32.5354C17.4683 32.6233 17.5269 32.6946 17.5993 32.6946Z" fill="#FEFEFE" stroke="#2B2A29" strokeWidth="0.45" strokeMiterlimit="22.9256"/>
<path fillRule="evenodd" clipRule="evenodd" d="M17.6286 33.0288C17.6261 33.0252 17.6127 33.008 17.6164 32.986C17.8931 33.0129 18.138 32.8182 18.1343 32.5378C18.1686 32.5807 18.2126 32.6689 18.2298 32.7227C18.1698 32.997 17.8784 33.09 17.6286 33.0288Z" fill="#FEFEFE" stroke="#2B2A29" strokeWidth="0.45" strokeMiterlimit="22.9256"/>
<path fillRule="evenodd" clipRule="evenodd" d="M19.4553 29.5625C19.4577 29.5637 19.4651 29.5735 19.4651 29.5796C19.3867 30.2971 18.5186 30.8726 19.323 31.3318C19.323 31.3342 19.3206 31.4493 19.323 31.4677C19.1675 31.3477 18.8688 31.2338 18.7145 31.2289C18.5211 30.7086 19.263 30.1331 19.4553 29.5625Z" fill="#1C1B17" stroke="#2B2A29" strokeWidth="0.45" strokeMiterlimit="22.9256"/>
<path fillRule="evenodd" clipRule="evenodd" d="M21.6164 30.6621C20.7789 32.1351 21.3874 31.6514 20.9797 33.1893C20.9246 32.9114 20.7911 32.6432 20.5059 32.3983C20.796 32.1938 20.8879 32.0028 20.943 31.66C21.014 31.2057 21.3568 31.0907 21.6164 30.6621Z" fill="#1C1B17" stroke="#2B2A29" strokeWidth="0.45" strokeMiterlimit="22.9256"/>
<path fillRule="evenodd" clipRule="evenodd" d="M10.8258 54.2908C10.9801 49.5303 13.326 46.4019 15.1455 42.8499C15.5814 42.6001 16.1581 42.3429 16.7679 42.2854C14.4048 46.9492 12.7004 50.0188 12.5865 54.4573C12.5608 59.7529 14.897 66.5178 22.0108 67.1851C21.1696 67.3161 19.8754 67.2904 18.5041 66.983C13.0506 64.8575 10.7352 60.2794 10.8258 54.2908Z" fill="#FEFEFE" stroke="#2B2A29" strokeWidth="0.45" strokeMiterlimit="22.9256"/>
<path fillRule="evenodd" clipRule="evenodd" d="M13.681 54.4744C13.659 59.8594 16.638 66.0782 22.6927 66.6451C23.2167 66.7026 23.7408 66.6941 24.2648 66.6206C23.5988 66.9059 22.9204 67.0798 22.0107 67.1851C14.8969 66.5178 12.5607 59.7529 12.5864 54.4573C12.7003 50.0188 14.4046 46.9492 16.7678 42.2854C17.0739 42.4421 17.3824 42.6699 17.5159 42.9613C15.6976 46.5378 13.7888 50.3935 13.681 54.4744Z" fill="#FEFEFE" stroke="#2B2A29" strokeWidth="0.45" strokeMiterlimit="22.9256"/>
<path fillRule="evenodd" clipRule="evenodd" d="M27.9748 30.7441L33.7969 46.686C32.5345 49.2181 30.2987 50.8845 27.2328 51.8126C26.9794 51.8053 26.732 51.793 26.4896 51.7747L26.1345 31.0833C26.7798 31.0723 27.3993 30.9535 27.9748 30.7441Z" fill="#FEFEFE" stroke="#2B2A29" strokeWidth="0.45" strokeMiterlimit="22.9256"/>
<path fillRule="evenodd" clipRule="evenodd" d="M17.6348 43.7964L19.7003 39.2832C19.7701 39.3273 19.8534 39.3616 19.9599 39.3971C20.3566 39.522 20.6468 39.2698 20.7607 38.9808C20.9321 38.5278 20.5538 38.1237 20.2122 38.1629L23.687 30.574C24.2943 30.8519 24.9592 31.0258 25.6596 31.0723L24.2931 51.4184C20.4423 50.418 18.2911 47.6129 17.6348 43.7964Z" fill="#FEFEFE" stroke="#2B2A29" strokeWidth="0.45" strokeMiterlimit="22.9256"/>
<path fillRule="evenodd" clipRule="evenodd" d="M43.1491 41.0621C42.4328 40.5417 41.419 40.467 40.7663 41.2078C40.1431 41.8971 40.1872 43.9762 39.4623 45.1639C37.6037 48.3118 33.3207 48.7465 32.3865 48.7514C31.1045 50.1595 29.3707 51.1659 27.2329 51.8124C28.5357 51.8467 29.9768 51.7267 31.5588 51.4304C37.3245 50.1423 40.4284 48.1416 40.8606 43.6652C40.9904 42.2375 41.1373 41.4551 41.7447 41.0572C42.1475 40.8086 42.7376 40.8086 43.1491 41.0621Z" fill="#1C1B17" stroke="#2B2A29" strokeWidth="0.45" strokeMiterlimit="22.9256"/>
<path fillRule="evenodd" clipRule="evenodd" d="M4.38031 48.8397C8.17599 46.1827 11.3607 47.9446 14.6752 43.74C12.9463 46.9406 10.9676 49.9318 10.8256 54.2908C10.735 60.2794 13.0504 64.8574 18.5039 66.983C10.5722 66.2814 3.46934 58.0081 4.38031 48.8397Z" fill="#2B2A29" stroke="#2B2A29" strokeWidth="0.45" strokeMiterlimit="22.9256"/>
<path fillRule="evenodd" clipRule="evenodd" d="M14.0558 44.8677C10.9985 47.7353 7.87744 47.1977 4.97313 49.1837C4.90089 50.0825 4.8311 51.3473 5.10782 52.246C7.17095 50.6212 9.96506 50.1437 11.9621 49.0466C12.551 47.5761 13.304 46.2243 14.0558 44.8677Z" fill="#FEFEFE" stroke="#2B2A29" strokeWidth="0.45" strokeMiterlimit="22.9256"/>
<path fillRule="evenodd" clipRule="evenodd" d="M11.7037 49.7285C9.54015 50.8464 7.07418 51.1794 5.42612 52.4614C5.34408 53.272 5.45428 54.6213 5.7359 55.4796L6.05547 55.64C7.35457 53.8327 9.26221 53.5071 10.969 52.6634C11.1209 51.6153 11.3768 50.6456 11.7037 49.7285Z" fill="#FEFEFE" stroke="#2B2A29" strokeWidth="0.45" strokeMiterlimit="22.9256"/>
<path fillRule="evenodd" clipRule="evenodd" d="M7.2774 58.9631C6.8562 58.2873 6.24767 56.922 6.21216 56.2082C7.09129 54.3018 9.17524 54.101 10.8968 53.2415C10.8613 53.5818 10.8368 53.932 10.8257 54.2908C10.816 54.8871 10.8319 55.4687 10.8711 56.0356C9.54134 56.5731 8.48344 57.2343 7.51983 58.9937L7.2774 58.9631Z" fill="#FEFEFE" stroke="#2B2A29" strokeWidth="0.45" strokeMiterlimit="22.9256"/>
<path fillRule="evenodd" clipRule="evenodd" d="M10.9311 56.72C9.60508 57.1706 8.53005 58.0938 7.87988 59.3096C8.08803 60.3381 8.73207 61.0324 9.28673 61.6972L9.57325 61.6617C10.0202 61.1328 10.4781 60.3614 11.5348 59.6769C11.2421 58.75 11.0425 57.7619 10.9311 56.72Z" fill="#FEFEFE" stroke="#2B2A29" strokeWidth="0.45" strokeMiterlimit="22.9256"/>
<path fillRule="evenodd" clipRule="evenodd" d="M11.6695 60.0811C10.9618 60.5218 10.2271 61.3324 9.96143 61.8858C10.2418 62.4968 10.9152 63.3392 11.4087 63.7188L11.6058 63.7016C11.825 63.1776 12.1997 62.5715 12.66 62.2115C12.2645 61.5467 11.9352 60.8353 11.6695 60.0811Z" fill="#FEFEFE" stroke="#2B2A29" strokeWidth="0.45" strokeMiterlimit="22.9256"/>
<path fillRule="evenodd" clipRule="evenodd" d="M12.8496 62.5164C12.4737 62.8298 12.1811 63.2645 11.9692 63.8155C12.4284 64.326 12.8863 64.8636 13.5573 65.2199L13.7655 65.2137C13.8059 64.7754 13.9626 64.4546 14.194 64.2073C13.6859 63.6869 13.2377 63.1224 12.8496 62.5164Z" fill="#FEFEFE" stroke="#2B2A29" strokeWidth="0.45" strokeMiterlimit="22.9256"/>
<path fillRule="evenodd" clipRule="evenodd" d="M31.9066 53.517C23.1349 55.4013 18.1577 52.5105 15.0342 48.3254C15.7407 46.4766 16.6394 44.6865 17.5161 42.9613C18.2177 49.2242 22.6268 53.0994 31.5589 51.4306C37.3246 50.1425 40.4285 48.1418 40.8607 43.6653C40.9905 42.2377 41.1374 41.4553 41.7447 41.0573C42.3619 40.6778 43.4148 40.8786 43.5997 41.6793C43.7699 42.5462 43.3426 43.0458 42.8675 43.1327C42.45 43.2001 42.1121 42.8976 42.0496 42.6221C41.899 41.9156 42.5688 41.6536 42.8932 42.1152C42.9434 41.8103 42.5492 41.5532 42.281 41.6328C41.5219 41.8581 41.8611 43.238 41.9688 44.0143C42.3263 45.7456 41.3064 48.1932 39.1221 50.0249C37.054 51.591 34.6995 52.8692 31.9066 53.517Z" fill="#FEFEFE" stroke="#2B2A29" strokeWidth="0.45" strokeMiterlimit="22.9256"/>
<path fillRule="evenodd" clipRule="evenodd" d="M42.26 42.9552C43.3045 49.2474 43.0008 55.5127 36.3008 61.6495C31.5366 65.5101 28.3972 67.1508 22.0107 67.1851C22.9204 67.0798 23.5988 66.9059 24.2649 66.6206C23.7408 66.6941 23.2168 66.7026 22.6927 66.6451C16.638 66.0782 13.659 59.8594 13.681 54.4744C13.7374 52.3623 14.2749 50.309 15.034 48.3254C18.1575 52.5105 23.1347 55.4013 31.9064 53.5169C34.6993 52.8692 37.0538 51.5909 39.1219 50.0249C41.3062 48.1932 42.3262 45.7456 41.9686 44.0143C41.8609 43.238 41.5217 41.8581 42.2809 41.6328C42.549 41.5532 42.9433 41.8103 42.8931 42.1152C42.5686 41.6536 41.8988 41.9156 42.0494 42.6221C42.0752 42.7384 42.1511 42.8597 42.26 42.9552Z" fill="#1C1B17" stroke="#2B2A29" strokeWidth="0.45" strokeMiterlimit="22.9256"/>
<path fillRule="evenodd" clipRule="evenodd" d="M13.7853 53.0945C22.3843 59.9328 35.6705 57.9309 42.0496 48.9805C42.1549 49.5866 42.1537 50.2416 42.0141 50.7693C35.7427 59.5729 23.6051 61.734 13.8637 56.862C13.7388 56.0612 13.6788 55.2593 13.6812 54.4744C13.6935 54.0116 13.729 53.5512 13.7853 53.0945Z" fill="#FEFEFE" stroke="#2B2A29" strokeWidth="0.45" strokeMiterlimit="22.9256"/>
<path fillRule="evenodd" clipRule="evenodd" d="M13.9736 57.4852C22.5715 61.7866 35.1682 60.5573 41.8511 51.3179C41.7127 52.0121 41.3968 53.3761 40.9879 54.0275C34.3075 62.8518 22.6817 63.6685 14.9593 60.6148C14.5148 59.6182 14.1855 58.5591 13.9736 57.4852Z" fill="#FEFEFE" stroke="#2B2A29" strokeWidth="0.45" strokeMiterlimit="22.9256"/>
<path fillRule="evenodd" clipRule="evenodd" d="M15.2888 61.3006C24.074 64.2906 33.8301 62.4295 40.273 55.3303C40.0513 56.0062 39.8138 57.0457 39.4759 57.3151C33.9403 63.1078 25.6755 66.1456 16.9369 63.709C16.2916 62.9915 15.7419 62.176 15.2888 61.3006Z" fill="#FEFEFE" stroke="#2B2A29" strokeWidth="0.45" strokeMiterlimit="22.9256"/>
<path fillRule="evenodd" clipRule="evenodd" d="M17.5354 64.3198C25.2565 65.9495 31.8194 64.086 37.9733 59.083C37.355 59.7883 37.0991 60.1164 36.4807 60.8217C31.3088 64.9614 24.7778 66.6278 19.8067 65.8675C18.9618 65.4708 18.2052 64.9443 17.5354 64.3198Z" fill="#FEFEFE" stroke="#2B2A29" strokeWidth="0.45" strokeMiterlimit="22.9256"/>
<path fillRule="evenodd" clipRule="evenodd" d="M20.8782 66.2838C24.4988 66.3621 27.5867 65.8148 31.4889 64.1606C30.0331 65.4353 26.7835 66.5642 24.2649 66.6205C23.7409 66.694 23.2168 66.7025 22.6928 66.645C22.0536 66.5862 21.4488 66.4625 20.8782 66.2838Z" fill="#FEFEFE" stroke="#2B2A29" strokeWidth="0.45" strokeMiterlimit="22.9256"/>
<path fillRule="evenodd" clipRule="evenodd" d="M14.7599 49.076C20.4902 56.6135 33.0943 56.3772 40.4028 49.065C41.0897 48.2802 41.5941 47.4108 41.9676 46.457C42.2112 46.9505 42.248 47.8161 42.259 48.4283C36.1614 57.3127 22.5068 59.9231 13.9077 52.273C14.0963 51.1894 14.3926 50.1229 14.7599 49.076Z" fill="#FEFEFE" stroke="#2B2A29" strokeWidth="0.45" strokeMiterlimit="22.9256"/>
<path fillRule="evenodd" clipRule="evenodd" d="M10.0667 33.8221C10.227 33.9323 10.3299 34.078 10.674 34.1025C10.6691 34.0743 10.6654 34.0462 10.6617 34.018C10.6519 33.9715 10.6176 33.9201 10.5515 33.936C10.3446 34.0364 10.265 33.9005 10.0667 33.8221ZM11.3156 34.0278C11.3817 34.0229 11.4453 34.0278 11.5053 34.0511C11.7502 34.1429 12.0049 34.2274 12.2706 34.0878C12.3392 34.0425 12.4371 33.996 12.5596 33.9629C12.5449 33.8968 12.5351 33.8282 12.5326 33.7572C12.5277 33.6874 12.4408 33.6642 12.4053 33.6801C12.3098 33.7144 12.1286 33.9446 11.9118 33.9678C11.7172 33.9715 11.5445 33.7646 11.3792 33.8944C11.3511 33.9323 11.3302 33.9776 11.3156 34.0278Z" fill="#1C1B17" stroke="#2B2A29" strokeWidth="0.45" strokeMiterlimit="22.9256"/>
<path fillRule="evenodd" clipRule="evenodd" d="M20.4876 26.4856L1.28389 30.1111C1.19083 30.6755 1.11859 31.2253 1.06839 31.7628L3.06663 31.4641C3.48661 31.3869 3.52211 31.6673 3.18418 31.7983L1.01941 32.4375C0.954521 33.9055 1.05125 35.3846 1.32552 36.7266L1.72835 36.6617C2.03568 36.5992 2.20832 36.8809 1.94997 37.0094L1.44429 37.2543C1.63529 38.0294 1.88997 38.7493 2.21077 39.3836L10.7572 34.3806C10.7106 34.2692 10.6751 34.1455 10.6617 34.0182C10.6519 33.9717 10.6176 33.9202 10.5527 33.9361C10.3323 34.0427 10.2552 33.8835 10.0274 33.8076C9.92335 33.7794 9.89274 33.5762 10.0935 33.428C10.4094 33.2333 10.576 32.948 10.5637 32.4069C10.5821 31.393 11.3461 31.8938 11.7159 31.8926C12.0489 31.1812 12.8423 31.1469 13.4631 31.5583C13.7815 31.5204 14.1623 31.6049 14.3459 31.8338C14.5443 31.7175 14.8394 31.6698 15.1993 31.7812L15.5397 31.5816C15.5765 31.4922 15.5765 31.4065 15.5973 31.3428C15.6389 31.2118 15.7907 31.1029 15.983 31.0845C16.1017 31.0686 16.1838 31.1139 16.2646 31.158L21.1635 28.2904C20.8414 27.7418 20.6088 27.1333 20.4876 26.4856ZM11.3057 34.0598L11.6179 33.8774C11.5359 33.8468 11.4563 33.8345 11.3792 33.8945C11.3449 33.9398 11.3216 33.9961 11.3057 34.0598Z" fill="#FEFEFE" stroke="#2B2A29" strokeWidth="0.45" strokeMiterlimit="22.9256"/>
<path fillRule="evenodd" clipRule="evenodd" d="M26.4958 19.8088L27.5954 6.29129C29.4553 6.09661 31.1817 6.35128 32.8004 6.96227L32.6069 7.65161C32.5653 7.81446 32.8371 7.9271 32.9167 7.77405L33.1934 7.11899C33.3538 7.18633 33.513 7.25613 33.6709 7.32959L32.8285 9.8029C32.8065 9.96575 32.9987 9.98289 33.0428 9.86168L34.1068 7.54386C34.3345 7.66018 34.5586 7.78262 34.7815 7.91364L28.5602 20.3831C27.9296 20.0684 27.2329 19.8676 26.4958 19.8088Z" fill="#FEFEFE" stroke="#2B2A29" strokeWidth="0.45" strokeMiterlimit="22.9256"/>
<path fillRule="evenodd" clipRule="evenodd" d="M30.5583 22.0521L43.7073 12.2029C44.1334 12.7502 44.4824 13.3391 44.7566 13.9685L42.4303 15.3925C42.309 15.5039 42.4462 15.6398 42.5576 15.5749L44.9428 14.4313C45.3811 15.6239 45.5697 16.9512 45.5219 18.407L44.5216 18.7719C44.3489 18.8331 44.4322 19.0755 44.5742 19.0682L45.4999 18.8502C45.4766 19.2151 45.4399 19.5885 45.3872 19.9681L31.473 23.9009C31.282 23.225 30.9685 22.5994 30.5583 22.0521Z" fill="#FEFEFE" stroke="#2B2A29" strokeWidth="0.45" strokeMiterlimit="22.9256"/>
<path fillRule="evenodd" clipRule="evenodd" d="M2.76181 28.1985C2.73978 27.8434 2.72998 27.4957 2.72998 27.1565L3.61278 27.0917C3.794 27.0623 3.75481 26.8088 3.61278 26.7917L2.7361 26.7451C2.76426 25.7791 2.88671 24.8755 3.10955 24.0404L5.99549 24.2167C6.15956 24.2094 6.14242 24.0172 6.01508 23.9951L3.2124 23.6841C3.46708 22.8576 3.82705 22.1009 4.29723 21.4177L20.484 24.4102C20.4227 24.7432 20.3909 25.0873 20.3909 25.4375C20.3909 25.6628 20.4044 25.8844 20.4301 26.1023L2.76181 28.1985Z" fill="#FEFEFE" stroke="#2B2A29" strokeWidth="0.45" strokeMiterlimit="22.9256"/>
<path fillRule="evenodd" clipRule="evenodd" d="M20.4056 25.8575L20.3909 25.4375L7.02523 25.4914C6.95788 25.4926 6.9689 25.6738 7.02523 25.6726L20.4056 25.8575Z" fill="#727271" stroke="#2B2A29" strokeWidth="0.45" strokeMiterlimit="22.9256"/>
<path fillRule="evenodd" clipRule="evenodd" d="M20.6591 27.1748L20.593 26.9373L12.2413 29.2085C12.1764 29.2269 12.1972 29.2943 12.2511 29.2796L20.6591 27.1748Z" fill="#727271" stroke="#2B2A29" strokeWidth="0.45" strokeMiterlimit="22.9256"/>
<path fillRule="evenodd" clipRule="evenodd" d="M20.9223 27.8324L20.7681 27.4724L4.96824 33.5063C4.9058 33.5333 4.93641 33.5981 4.98783 33.5749L20.9223 27.8324Z" fill="#727271" stroke="#2B2A29" strokeWidth="0.45" strokeMiterlimit="22.9256"/>
<path fillRule="evenodd" clipRule="evenodd" d="M20.4008 25.0921L20.4228 24.8277L14.0387 24.333C13.8967 24.3355 13.9163 24.4628 14.0412 24.4726L20.4008 25.0921Z" fill="#727271" stroke="#2B2A29" strokeWidth="0.45" strokeMiterlimit="22.9256"/>
<path fillRule="evenodd" clipRule="evenodd" d="M26.8262 31.0293L26.5618 31.0599L27.338 37.4171C27.3699 37.5554 27.4899 37.5101 27.4752 37.3864L26.8262 31.0293Z" fill="#727271" stroke="#2B2A29" strokeWidth="0.45" strokeMiterlimit="22.9256"/>
<path fillRule="evenodd" clipRule="evenodd" d="M28.8577 20.5435L34.6663 10.4629C35.8723 10.5315 36.9633 10.7421 37.9024 11.1375L37.5057 11.8097C37.4457 12.0461 37.7371 12.0865 37.8889 11.9469L38.6236 11.4938C39.3631 11.9224 39.9827 12.4979 40.4614 13.246L30.3502 21.7924C29.9303 21.2953 29.4246 20.8716 28.8577 20.5435Z" fill="#FEFEFE" stroke="#2B2A29" strokeWidth="0.45" strokeMiterlimit="22.9256"/>
<path fillRule="evenodd" clipRule="evenodd" d="M21.363 22.2686L7.36914 12.7819C8.21399 11.577 9.25718 10.6575 10.4816 9.99509L10.8942 10.3673C11.084 10.5216 11.1783 10.3355 11.084 10.2094L10.7583 9.85183C10.9591 9.75143 11.1648 9.65838 11.3742 9.57144L12.9059 11.3028C13.0333 11.4068 13.1484 11.2526 13.0688 11.1509L11.7048 9.44043C12.2411 9.23963 12.8043 9.07923 13.3957 8.95679L22.6008 20.956C22.1221 21.3246 21.7033 21.7678 21.363 22.2686Z" fill="#FEFEFE" stroke="#2B2A29" strokeWidth="0.45" strokeMiterlimit="22.9256"/>
<path fillRule="evenodd" clipRule="evenodd" d="M42.5038 36.7841L42.2675 37.2604L41.872 37.0498C41.7116 36.9715 41.8304 36.5686 42.0324 36.6274L42.5038 36.7841Z" stroke="#2B2A29" strokeWidth="0.45" strokeMiterlimit="22.9256"/>
<path fillRule="evenodd" clipRule="evenodd" d="M6.1228 20.2876C6.28932 19.788 6.49135 19.3215 6.72521 18.8844L6.93091 18.9689C7.12927 19.0412 7.27498 18.6469 7.1207 18.5575L6.96765 18.462C7.61046 17.4127 8.45776 16.5519 9.48382 15.854L21.15 22.6079C20.8953 23.0462 20.6982 23.5213 20.5696 24.0233L6.1228 20.2876Z" fill="#FEFEFE" stroke="#1C1B17" strokeWidth="0.45" strokeMiterlimit="22.9256"/>
<path fillRule="evenodd" clipRule="evenodd" d="M30.2192 29.2332L40.6353 38.6881C40.3892 41.0071 39.3729 43.0029 37.4481 44.6167L35.6764 42.2352C35.5576 42.1042 35.2527 42.3246 35.374 42.5058L36.7698 45.1419C36.3547 45.4395 35.9054 45.7223 35.4193 45.9905L28.3838 30.5763C29.0842 30.2555 29.7074 29.7964 30.2192 29.2332Z" fill="#FEFEFE" stroke="#2B2A29" strokeWidth="0.45" strokeMiterlimit="22.9256"/>
<path fillRule="evenodd" clipRule="evenodd" d="M31.5574 24.2413L45.3871 21.2427C45.4679 21.6186 45.5279 21.9932 45.5659 22.3667L45.0859 22.5063C44.8557 22.5871 44.9831 22.8528 45.1839 22.9018L45.6124 23.0058C45.6332 23.5446 45.61 24.0796 45.5438 24.6135L42.4791 24.8229C42.1853 24.829 42.1645 24.9894 42.4657 25.0151L45.4716 25.0935C45.3234 25.9407 45.0626 26.7831 44.6917 27.6182L31.6468 26.0938C31.6712 25.8783 31.6847 25.6591 31.6847 25.4375C31.6847 25.0273 31.6406 24.627 31.5574 24.2413Z" fill="#FEFEFE" stroke="#2B2A29" strokeWidth="0.45" strokeMiterlimit="22.9256"/>
<path fillRule="evenodd" clipRule="evenodd" d="M31.5723 26.5676L43.2434 28.9516C43.2789 29.3262 43.3083 29.6972 43.3291 30.0658L41.3712 29.7731C41.0859 29.745 40.9855 30.0266 41.288 30.1245L43.3548 30.591C43.3682 30.9816 43.3731 31.3685 43.367 31.7518L41.9418 31.4506C41.6516 31.4273 41.4778 31.7273 41.7459 31.8277L43.3425 32.4668C43.2311 34.4957 42.772 36.3703 41.7361 37.9926L30.4482 28.965C30.998 28.2781 31.3898 27.4614 31.5723 26.5676Z" fill="#FEFEFE" stroke="#2B2A29" strokeWidth="0.45" strokeMiterlimit="22.9256"/>
<path fillRule="evenodd" clipRule="evenodd" d="M21.362 28.605L19.1617 30.0951C18.8923 30.4857 18.5813 30.8701 18.7148 31.2289C18.8691 31.2338 19.1678 31.3477 19.3233 31.4677C19.2327 30.4967 21.013 30.4722 21.6264 29.6898C21.7048 29.5894 21.8885 29.6127 21.8872 29.7914C21.8395 30.1943 21.7366 30.4624 21.6154 30.662H21.6166C21.2763 31.2595 21.1746 31.5362 21.1465 31.7554L22.5803 29.9029C22.1089 29.5368 21.6975 29.0984 21.362 28.605ZM13.8037 33.723L13.2 34.132C13.1094 34.3377 13.0911 34.612 13.0127 34.623C12.9454 34.6144 12.8523 34.5422 12.7666 34.4258L1.16772 42.2817C1.2767 42.6796 1.39914 43.0751 1.53382 43.4632L4.94259 41.3964C5.12993 41.2838 5.33318 41.6009 5.19604 41.7123L1.90849 44.4452C2.04196 44.7648 2.18521 45.0795 2.33704 45.388L2.63335 45.1615C2.89782 44.9852 3.05577 45.2399 2.85497 45.4456L2.52315 45.7541C2.78028 46.2426 3.06189 46.7128 3.36677 47.161L4.75281 46.1422C4.99034 45.9831 5.13237 46.3002 4.94259 46.5218L3.78674 47.7426C3.94102 47.9458 4.10264 48.1442 4.26916 48.3352L4.35365 48.2776C5.45807 47.5222 6.61759 47.0777 7.88608 46.6859C8.64399 46.4508 9.4019 46.2402 10.1402 45.9696L17.9103 35.9343C17.2614 35.5303 16.5586 35.4617 16.1068 35.8768C15.7554 36.2086 15.7835 36.4424 15.9758 36.6445C16.2219 36.8551 16.0419 37.2836 15.6501 37.2089C15.1554 37.1122 14.7195 37.1306 14.6142 37.5358C14.5653 37.8015 14.575 38.1321 14.302 38.3317C14.1183 38.448 13.9494 38.4395 13.6861 38.2962C13.4694 38.1419 13.0825 38.186 12.7445 38.2962C12.1323 38.4737 11.9989 38.1089 11.8324 37.804C11.754 37.6534 11.6218 37.3791 11.8826 37.3363C12.1079 37.2971 12.1679 37.2175 12.1581 37.0142C12.1385 36.8563 12.1507 36.669 12.2144 36.4975C12.2376 36.4327 12.3429 36.4278 12.3711 36.4743C12.5278 36.9543 12.7935 37.2212 13.1866 37.2273C13.3261 37.2138 13.5429 37.2004 13.571 37.0791C13.5808 36.9053 13.5967 36.7081 13.6739 36.5796C13.6873 36.571 13.811 36.5612 13.8147 36.5833C13.8392 36.7485 13.9077 36.9947 14.0632 36.9812C14.3853 36.9383 14.5481 35.5278 15.2803 35.5437C15.8741 35.5462 15.939 35.2021 15.6574 34.847C15.2485 34.2961 14.6559 33.8761 14.1575 33.761C14.0155 33.7304 13.9028 33.7157 13.8037 33.723Z" fill="#FEFEFE"/>
<path d="M20.5306 32.4202C20.5502 32.4386 20.5698 32.457 20.5894 32.4753M21.362 28.605L19.1617 30.0951C18.8923 30.4857 18.5813 30.8701 18.7148 31.2289C18.8691 31.2338 19.1678 31.3477 19.3233 31.4677C19.2327 30.4967 21.013 30.4722 21.6264 29.6898C21.7048 29.5894 21.8885 29.6127 21.8872 29.7914C21.8395 30.1943 21.7366 30.4624 21.6154 30.662H21.6166C21.2763 31.2595 21.1746 31.5362 21.1465 31.7554L22.5803 29.9029C22.1089 29.5368 21.6975 29.0984 21.362 28.605ZM13.8037 33.723L13.2 34.132C13.1094 34.3377 13.0911 34.612 13.0127 34.623C12.9454 34.6144 12.8523 34.5422 12.7666 34.4258L1.16772 42.2817C1.2767 42.6796 1.39914 43.0751 1.53382 43.4632L4.94259 41.3964C5.12993 41.2838 5.33318 41.6009 5.19604 41.7123L1.90849 44.4452C2.04196 44.7648 2.18521 45.0795 2.33704 45.388L2.63335 45.1615C2.89782 44.9852 3.05577 45.2399 2.85497 45.4456L2.52315 45.7541C2.78028 46.2426 3.06189 46.7128 3.36677 47.161L4.75281 46.1422C4.99034 45.9831 5.13237 46.3002 4.94259 46.5218L3.78674 47.7426C3.94102 47.9458 4.10264 48.1442 4.26916 48.3352L4.35365 48.2776C5.45807 47.5222 6.61759 47.0777 7.88608 46.6859C8.64399 46.4508 9.4019 46.2402 10.1402 45.9696L17.9103 35.9343C17.2614 35.5303 16.5586 35.4617 16.1068 35.8768C15.7554 36.2086 15.7835 36.4424 15.9758 36.6445C16.2219 36.8551 16.0419 37.2836 15.6501 37.2089C15.1554 37.1122 14.7195 37.1306 14.6142 37.5358C14.5653 37.8015 14.575 38.1321 14.302 38.3317C14.1183 38.448 13.9494 38.4395 13.6861 38.2962C13.4694 38.1419 13.0825 38.186 12.7445 38.2962C12.1323 38.4737 11.9989 38.1089 11.8324 37.804C11.754 37.6534 11.6218 37.3791 11.8826 37.3363C12.1079 37.2971 12.1679 37.2175 12.1581 37.0142C12.1385 36.8563 12.1507 36.669 12.2144 36.4975C12.2376 36.4327 12.3429 36.4278 12.3711 36.4743C12.5278 36.9543 12.7935 37.2212 13.1866 37.2273C13.3261 37.2138 13.5429 37.2004 13.571 37.0791C13.5808 36.9053 13.5967 36.7081 13.6739 36.5796C13.6873 36.571 13.811 36.5612 13.8147 36.5833C13.8392 36.7485 13.9077 36.9947 14.0632 36.9812C14.3853 36.9383 14.5481 35.5278 15.2803 35.5437C15.8741 35.5462 15.939 35.2021 15.6574 34.847C15.2485 34.2961 14.6559 33.8761 14.1575 33.761C14.0155 33.7304 13.9028 33.7157 13.8037 33.723Z" stroke="#2B2A29" strokeWidth="0.45" strokeMiterlimit="22.9256"/>
<path fillRule="evenodd" clipRule="evenodd" d="M15.1823 34.3328C14.6019 34.3573 14.384 34.7087 13.9505 35.1446C13.6053 35.4849 13.0433 35.5058 12.6098 35.2241C12.5241 35.1715 12.431 35.2425 12.4506 35.3368C12.5633 35.8755 13.2245 36.1743 13.7106 36.1951C14.0485 36.2049 14.3375 36.151 14.6093 36.0653C14.7685 35.7788 14.9754 35.5364 15.2803 35.5437C15.8741 35.5462 15.939 35.2021 15.6574 34.847C15.5166 34.6585 15.3549 34.4846 15.1823 34.3328Z" fill="#FEFEFE" stroke="#2B2A29" strokeWidth="0.45" strokeMiterlimit="22.9256"/>
<path fillRule="evenodd" clipRule="evenodd" d="M13.3236 33.9582C13.4791 33.9888 13.6664 34.0256 13.8085 34.0807C14.057 34.1896 14.1378 34.3427 13.9787 34.5729C13.8244 34.781 13.6922 35.043 13.5991 35.3626C13.7289 35.3173 13.8489 35.2439 13.9505 35.1447C14.3839 34.7088 14.6019 34.3574 15.1823 34.3329C14.8529 34.0439 14.4843 33.837 14.1574 33.7611C13.7815 33.6803 13.6162 33.7146 13.3236 33.9582ZM13.4485 36.1597C13.3603 36.5858 13.102 36.9017 12.7212 37.056C12.851 37.1662 13.0053 37.2237 13.1865 37.2274C13.3261 37.2139 13.5428 37.2005 13.5709 37.0792C13.5807 36.9054 13.5966 36.7082 13.6738 36.5797C13.6873 36.5711 13.8109 36.5613 13.8146 36.5834C13.8391 36.7487 13.9076 36.9948 14.0631 36.9813C14.2517 36.9568 14.3852 36.467 14.6092 36.0654C14.3374 36.1511 14.0485 36.205 13.7105 36.1952C13.6273 36.1915 13.5391 36.1793 13.4485 36.1597Z" fill="#1C1B17" stroke="#2B2A29" strokeWidth="0.45" strokeMiterlimit="22.9256"/>
<path fillRule="evenodd" clipRule="evenodd" d="M14.8357 34.3977C15.0475 34.3866 15.1406 34.4528 15.2079 34.5262C15.2679 34.6034 15.2349 34.6842 15.1553 34.7123C14.6337 34.8886 14.6214 35.2241 14.128 35.4286C13.9346 35.5082 13.9652 35.6257 14.2015 35.5731C14.6276 35.4433 14.8847 35.1654 15.2643 35.0307C15.4136 34.9829 15.4614 35.1482 15.3708 35.267C15.2128 35.4604 14.7953 35.3919 14.5027 36.0971C14.5382 36.0873 14.5737 36.0763 14.6092 36.0653C14.7684 35.7788 14.9753 35.5364 15.2802 35.5437C15.874 35.5462 15.9389 35.2021 15.6573 34.847C15.5165 34.6585 15.3549 34.4846 15.1822 34.3328C15.05 34.3389 14.9361 34.3609 14.8357 34.3977Z" fill="#1C1B17" stroke="#2B2A29" strokeWidth="0.45" strokeMiterlimit="22.9256"/>
<path fillRule="evenodd" clipRulee="evenodd" d="M11.8995 37.93L7.54061 41.2506C7.41572 41.34 7.32511 41.258 7.43531 41.1404L11.7379 37.5737C11.7563 37.6545 11.7991 37.7403 11.8322 37.8039C11.8542 37.8443 11.8763 37.8872 11.8995 37.93Z" fill="#727271" stroke="#2B2A29" strokeWidth="0.45" strokeMiterlimit="22.9256"/>
<path fillRule="evenodd" clipRule="evenodd" d="M24.6432 30.9106L22.449 37.569C22.3866 37.7183 22.1944 37.6375 22.2262 37.4992L24.1657 30.7661L24.6432 30.9106Z" fill="#727271" stroke="#2B2A29" strokeWidth="0.45" strokeMiterlimit="22.9256"/>
<path fillRule="evenodd" clipRule="evenodd" d="M18.4023 46.4374L19.7859 43.0972C19.852 42.9491 20.0418 43.0336 20.0063 43.1719L18.7562 47.1721C18.6289 46.9346 18.5101 46.6897 18.4023 46.4374Z" fill="#727271" stroke="#2B2A29" strokeWidth="0.45" strokeMiterlimit="22.9256"/>
<path fillRule="evenodd" clipRule="evenodd" d="M31.3947 49.6895L30.2829 44.5861C30.2756 44.4245 30.4837 44.4135 30.5143 44.5531L32.0228 49.1275C31.8232 49.3234 31.6138 49.5107 31.3947 49.6895Z" fill="#727271" stroke="#2B2A29" strokeWidth="0.45" strokeMiterlimit="22.9256"/>
<path fillRule="evenodd" clipRule="evenodd" d="M22.6487 50.8378L23.3809 47.4854C23.4213 47.3286 23.6221 47.3801 23.6111 47.5233L23.0515 51.0117C22.9156 50.9566 22.7809 50.899 22.6487 50.8378Z" fill="#727271" stroke="#2B2A29" strokeWidth="0.45" strokeMiterlimit="22.9256"/>
<path fillRule="evenodd" clipRule="evenodd" d="M25.2886 31.0353L22.5166 44.9839C22.4994 45.1369 22.3782 45.1479 22.3647 44.9875L24.9079 30.9717L25.2886 31.0353Z" fill="#1C1B17" stroke="#2B2A29" strokeWidth="0.45" strokeMiterlimit="22.9256"/>
<path fillRule="evenodd" clipRule="evenodd" d="M25.2886 31.0353L22.5166 44.9839C22.4994 45.1369 22.3782 45.1479 22.3647 44.9875L24.9079 30.9717L25.2886 31.0353Z" fill="#727271" stroke="#2B2A29" strokeWidth="0.45" strokeMiterlimit="22.9256"/>
<path fillRule="evenodd" clipRule="evenodd" d="M30.9318 28.2573L39.8272 33.4831C39.968 33.5456 39.9423 33.6656 39.7843 33.6288L30.7139 28.6051L30.9318 28.2573Z" fill="#727271" stroke="#2B2A29" strokeWidth="0.45" strokeMiterlimit="22.9256"/>
<path fillRule="evenodd" clipRule="evenodd" d="M21.6692 21.8598L21.8296 21.6725L13.3187 14.7007C13.2673 14.6554 13.2232 14.7105 13.2648 14.7472L21.6692 21.8598Z" fill="#727271" stroke="#2B2A29" strokeWidth="0.45" strokeMiterlimit="22.9256"/>
<path fillRule="evenodd" clipRule="evenodd" d="M23.4972 20.4039L23.9049 20.208L20.7349 14.0198C20.6321 13.8337 20.5047 13.9317 20.5807 14.0823L23.4972 20.4039Z" fill="#727271" stroke="#2B2A29" strokeWidth="0.45" strokeMiterlimit="22.9256"/>
<path fillRule="evenodd" clipRule="evenodd" d="M20.7326 23.4992L20.8942 23.1025L14.1832 20.7712C14.1208 20.7443 14.0938 20.8104 14.1452 20.8325L20.7326 23.4992Z" fill="#727271" stroke="#2B2A29" strokeWidth="0.45" strokeMiterlimit="22.9256"/>
<path fillRule="evenodd" clipRule="evenodd" d="M22.154 21.3405L22.3512 21.1605L17.9898 16.471C17.8833 16.3768 17.811 16.4833 17.8967 16.5751L22.154 21.3405Z" fill="#727271" stroke="#2B2A29" strokeWidth="0.45" strokeMiterlimit="22.9256"/>
<path fillRule="evenodd" clipRule="evenodd" d="M24.4878 20.0084L24.7449 19.9398L23.0552 13.7627C23.0038 13.6304 22.8911 13.6917 22.9242 13.8117L24.4878 20.0084Z" fill="#727271" stroke="#2B2A29" strokeWidth="0.45" strokeMiterlimit="22.9256"/>
<path fillRule="evenodd" clipRule="evenodd" d="M27.2734 19.9263L27.7106 20.0426L29.9035 8.31394C29.9463 8.10702 29.7859 8.09844 29.7443 8.26252L27.2734 19.9263Z" fill="#727271" stroke="#2B2A29" strokeWidth="0.45" strokeMiterlimit="22.9256"/>
<path fillRule="evenodd" clipRule="evenodd" d="M30.9685 22.6826L31.1742 23.0854L41.2389 18.0531C41.4225 17.9466 41.3209 17.8217 41.1728 17.9001L30.9685 22.6826Z" fill="#727271" stroke="#2B2A29" strokeWidth="0.45" strokeMiterlimit="22.9256"/>
<path fillRule="evenodd" clipRule="evenodd" d="M29.9353 29.5247L29.6218 29.8014L35.7304 36.1622C35.8345 36.2589 35.9447 36.134 35.8627 36.041L29.9353 29.5247Z" fill="#727271" stroke="#2B2A29" strokeWidth="0.45" strokeMiterlimit="22.9256"/>
<path fillRule="evenodd" clipRule="evenodd" d="M29.3597 30.0044L29.0144 30.2383L31.7069 33.6984C31.7963 33.8074 31.9224 33.6984 31.8526 33.5944L29.3597 30.0044Z" fill="#727271" stroke="#2B2A29" strokeWidth="0.45" strokeMiterlimit="22.9256"/>
<path fillRule="evenodd" clipRule="evenodd" d="M31.6272 24.6245L31.6713 25.0396L37.7848 24.1004C37.9244 24.0723 37.8864 23.9107 37.7627 23.9217L31.6272 24.6245Z" fill="#727271" stroke="#2B2A29" strokeWidth="0.45" strokeMiterlimit="22.9256"/>
<path fillRule="evenodd" clipRule="evenodd" d="M29.7246 21.1606L30.0307 21.4447L34.7153 16.3524C34.801 16.2397 34.6663 16.1418 34.5806 16.2324L29.7246 21.1606Z" fill="#727271" stroke="#2B2A29" strokeWidth="0.45" strokeMiterlimit="22.9256"/>
<path fillRule="evenodd" clipRule="evenodd" d="M29.1245 20.7077L29.4649 20.9489L31.3591 17.8744C31.4301 17.7519 31.2844 17.6723 31.2109 17.774L29.1245 20.7077Z" fill="#727271" stroke="#2B2A29" strokeWidth="0.45" strokeMiterlimit="22.9256"/>
<path fillRule="evenodd" clipRule="evenodd" d="M31.4252 27.1321L31.2869 27.5251L35.5099 28.7912C35.647 28.8254 35.6837 28.6626 35.5662 28.621L31.4252 27.1321Z" fill="#727271" stroke="#2B2A29" strokeWidth="0.45" strokeMiterlimit="22.9256"/>
<path fillRule="evenodd" clipRule="evenodd" d="M5.95264 47.3912L11.6609 42.0332C11.869 41.8385 12.0294 41.9218 11.8776 42.1715L7.5909 46.779C7.02522 46.9602 6.48036 47.1561 5.95264 47.3912Z" fill="#727271" stroke="#2B2A29" strokeWidth="0.45" strokeMiterlimit="22.9256"/>
<path fillRule="evenodd" clipRule="evenodd" d="M17.8013 42.2657C17.958 42.4788 17.7609 43.2452 17.516 42.9612C17.3825 42.6698 17.074 42.442 16.7679 42.2853C16.1581 42.3428 15.5814 42.6 15.1455 42.8497C14.9594 42.7334 15.0635 42.1163 15.5594 41.9314C16.365 40.1597 17.2111 36.7926 16.1165 35.8669C16.6332 35.4053 17.467 35.5633 18.1784 36.1228C19.2167 37.0069 19.1579 38.9867 17.8013 42.2657Z" fill="#1C1B17" stroke="#2B2A29" strokeWidth="0.45" strokeMiterlimit="22.9256"/>
<path fillRule="evenodd" clipRule="evenodd" d="M16.6124 38.0711C16.7324 37.896 16.8683 37.7344 17.0165 37.585C16.894 37.4699 16.7655 37.3609 16.632 37.2617C16.6259 37.1356 16.6136 37.0144 16.5965 36.8993C16.8181 37.056 17.0189 37.2103 17.2173 37.3976C17.6103 37.0585 18.0756 36.7977 18.5813 36.614C18.6253 36.6924 18.6658 36.7756 18.7 36.8626C18.2311 37.0303 17.7903 37.2679 17.4107 37.5923C17.7781 37.9805 18.0927 38.4298 18.3474 38.9061C18.5115 38.8535 18.6768 38.8094 18.8433 38.7678C18.831 38.8633 18.8164 38.9612 18.7992 39.0616C18.6902 39.0898 18.5813 39.1204 18.4735 39.1534C18.5507 39.3102 18.6205 39.4706 18.6841 39.631C18.6486 39.7828 18.6082 39.9383 18.5641 40.0999C18.4601 39.8036 18.3511 39.5232 18.2115 39.2404C17.8258 39.38 17.4768 39.5612 17.1438 39.8024C17.5577 40.275 17.8736 40.864 18.1368 41.41C18.094 41.5251 18.0499 41.6439 18.0033 41.7639C17.7328 41.1113 17.4156 40.4893 16.9344 39.9652C16.4177 40.3889 16.0786 40.8431 15.7712 41.4309C15.901 41.1027 16.0259 40.7427 16.1398 40.3668C16.321 40.1513 16.523 39.9505 16.7398 39.7693C16.6247 39.664 16.5047 39.5673 16.3773 39.484C16.3994 39.3898 16.4202 39.2943 16.4398 39.2C16.6271 39.3212 16.7863 39.4387 16.954 39.6016C17.3054 39.3432 17.6764 39.1461 18.0854 38.9955C17.8442 38.5547 17.5515 38.1384 17.2099 37.7784C16.9479 38.0405 16.73 38.3478 16.5683 38.7004L16.512 38.8253C16.5561 38.5682 16.5904 38.3159 16.6124 38.0711Z" fill="#FEFEFE" stroke="#2B2A29" strokeWidth="0.45" strokeMiterlimit="22.9256"/>
<path fillRule="evenodd" clipRule="evenodd" d="M17.1768 41.7001C17.08 41.6254 16.9062 41.5739 16.785 41.585C16.3895 41.6217 16.0515 41.7343 15.6867 41.88L15.5593 41.9315C15.5973 41.8482 15.634 41.7625 15.672 41.6743C16.0368 41.5237 16.3576 41.3499 16.7593 41.3131C16.9515 41.2948 17.1964 41.367 17.3482 41.487C17.527 41.6327 17.74 41.8225 17.9077 42.0037C17.8735 42.0894 17.838 42.1776 17.8012 42.2657C17.6286 42.0625 17.3813 41.8727 17.1768 41.7001Z" fill="#FEFEFE" stroke="#2B2A29" strokeWidth="0.45" strokeMiterlimit="22.9256"/>
<path fillRule="evenodd" clipRule="evenodd" d="M150.381 22.2214C150.376 21.6043 150.768 21.2517 151.745 21.2517H154.132C154.99 21.2517 155.212 21.8443 155.23 22.3757L154.992 34.8035C155.009 35.2272 155.198 35.3717 155.403 35.4525C155.807 35.6337 155.741 36.7185 155.739 37.3209C155.741 37.5633 155.511 37.7666 155.293 37.8229L151.512 38.4082C150.851 38.5453 150.513 38.0311 150.508 37.3944L150.462 31.5147C149.717 31.2282 149.044 30.8487 148.429 30.3907C148.439 30.998 148.449 31.8943 148.459 32.4771C148.459 33.0844 148.392 33.6281 148.059 33.5742C146.926 33.4958 146.556 33.5669 145.464 33.513C144.942 33.4689 144.704 32.891 144.626 32.5188C144.144 30.2218 143.568 27.5476 143.13 25.3682C143.049 24.9617 142.638 24.6727 142.334 24.6727C141.999 24.6727 141.881 24.5454 141.759 24.1977C141.643 23.894 141.492 23.2818 141.428 22.9194C141.301 22.2459 142.385 21.957 143.38 21.6754C144.513 21.3913 145.838 21.2517 147.114 21.2517C147.78 21.2517 148.255 21.766 148.304 22.4957C148.324 23.6614 148.343 24.8833 148.361 26.1224C148.995 27.0677 149.688 27.795 150.432 28.3313L150.381 22.2214Z" fill="white" stroke="#2B2A29" strokeWidth="0.9" strokeMiterlimit="22.9256"/>
<path fillRule="evenodd" clipRule="evenodd" d="M110.832 22.3316C111.234 23.1618 111.697 23.8793 112.079 24.7609C112.228 24.4719 112.414 24.2001 112.627 23.9454C112.828 23.654 112.887 23.5977 112.791 23.3479C112.613 22.9095 112.338 22.4614 112.045 22.0255C112.013 21.9765 111.9 21.881 111.765 21.9129C111.413 22.0059 111.07 22.2043 110.832 22.3316ZM114.934 19.9612C116.188 21.5015 116.545 22.934 116.619 24.8147C116.624 25.0768 116.553 25.378 116.271 25.4661C115.475 25.7673 114.912 26.1102 114.454 26.7885C113.426 28.341 118.162 29.8226 119.516 29.8569C120.028 29.8862 120.498 30.0895 120.623 30.4887C120.946 31.6029 121.191 32.7955 121.174 34.0566C121.171 34.1741 121.282 34.4043 121.556 34.4019C121.793 34.4019 121.987 34.5953 121.987 34.8329V36.3609C121.987 36.5985 121.793 36.7944 121.556 36.7944H110.193C109.956 36.7944 109.762 36.5985 109.762 36.3609V34.8329C109.762 34.5953 109.956 34.4019 110.193 34.4019C110.379 34.4019 110.409 34.2647 110.399 34.2011C110.005 30.8241 108.888 27.3664 107.402 24.1046C107.284 23.8474 106.966 23.703 106.638 23.8548C106.275 24.0409 105.927 23.7936 105.717 23.5046C105.516 23.2156 105.298 22.8973 105.178 22.552C105.058 22.2165 105.232 21.8321 105.572 21.7243C108.215 20.4779 110.854 19.682 113.497 19.2339C114.106 19.1579 114.662 19.6208 114.934 19.9612ZM114.214 30.8315C114.52 32.0143 114.755 33.2093 114.895 34.4019H116.44C116.408 33.5815 116.32 33.0403 116.139 32.3081C116.068 32.0241 115.74 31.7523 115.466 31.598C115.044 31.3531 114.618 31.0984 114.214 30.8315Z" fill="white" stroke="#2B2A29" strokeWidth="0.9" strokeMiterlimit="22.9256"/>
<path fillRule="evenodd" clipRule="evenodd" d="M59.8136 20.1889C59.5565 20.7741 59.7181 21.7855 59.9434 22.4099C60.056 22.6989 59.9532 22.8483 59.794 23.0515C59.4855 23.4189 59.0471 23.7788 58.67 24.0556C58.4202 24.227 58.0505 24.0507 57.8178 23.747C55.4376 21.1268 54.7225 18.2127 56.1404 14.919C56.3387 14.5443 56.6816 14.3043 57.2472 14.6031C59.6912 16.1997 62.6273 16.9613 66.0434 16.9123C66.4034 16.9221 66.5699 17.1842 66.7071 17.4511C66.9887 17.9335 67.3217 18.3914 67.7503 18.8102C68.1494 19.1946 68.098 19.6868 67.9413 20.108C67.427 21.4231 66.1291 22.9266 64.0966 24.4106C68.1837 25.3853 69.3077 28.1084 68.4482 31.8134C67.1723 37.0392 56.2579 41.4936 59.603 48.3944C59.2675 48.6883 59.2234 48.6271 58.888 48.9209C56.1942 45.9554 55.7608 42.3091 59.4634 37.3821C60.634 35.8736 63.9938 32.0975 62.38 29.8299C61.9025 29.105 60.727 28.8969 60.5066 29.7491C60.4454 29.9989 60.3548 30.1678 60.0316 30.1605C59.6544 30.1482 58.8488 30.0429 58.4888 29.9376C58.2831 29.8691 58.1607 29.7026 58.1509 29.465C58.4031 23.7372 61.5988 23.2401 63.2126 20.7423C61.8706 20.659 60.9499 20.5954 59.8136 20.1889Z" fill="white" stroke="#2B2A29" strokeWidth="0.9" strokeMiterlimit="22.9256"/>
<path fillRule="evenodd" clipRule="evenodd" d="M78.2019 34.2526C77.5799 35.3888 75.7457 36.7945 73.6667 36.7945C71.6366 36.7945 70.0865 35.8125 69.7437 33.8485C69.249 31.4977 70.5297 29.8741 71.879 28.4391C72.097 28.1942 73.1034 27.4106 74.2936 26.2596C74.4601 26.0784 74.918 25.7356 74.296 25.5568C73.9287 25.4564 73.6569 25.1185 73.6569 24.7169C73.6569 24.2369 74.0462 23.8475 74.5262 23.8475C74.5923 23.8475 74.656 23.8549 74.7148 23.8671L74.3377 22.7431H72.7214C72.3688 22.7431 72.1264 23.059 72.2072 23.37C72.4374 24.5357 72.4349 25.1552 71.8594 26.0441C71.5827 26.4457 71.0489 26.7739 70.9362 26.3919C70.2236 23.9332 68.5707 23.7006 68.316 22.3342C68.0956 20.9677 68.8792 20.3482 70.1942 20.3531H76.7644C77.744 20.3531 78.4884 20.8257 78.7357 21.7513L83.3665 35.5456C83.6285 36.2974 83.1583 36.7945 82.5608 36.7945H79.0565C78.6231 36.7945 78.1505 36.1161 78.2974 35.7758C78.3807 35.6117 78.6157 35.4942 78.5496 35.2836L78.2019 34.2526ZM76.0004 27.6946C75.5302 28.8211 74.678 29.8741 74.2372 31.003C73.8503 32.0584 74.154 33.3735 75.376 33.4053C76.0763 33.4175 77.0314 32.5849 77.4256 31.9384L76.0004 27.6946Z" fill="white" stroke="#2B2A29" strokeWidth="0.9" strokeMiterlimit="22.9256"/>
<path fillRule="evenodd" clipRule="evenodd" d="M103.897 33.9047C103.273 35.041 101.488 36.7943 99.4086 36.7943C97.3786 36.7943 95.6081 35.9078 95.2971 33.8802C94.7387 29.8739 98.1793 27.8218 99.1172 25.3877C99.2519 25.0595 99.3939 24.4057 98.7744 24.2269C98.3654 24.1094 98.1328 23.8719 98.1328 23.3894C98.1328 22.9487 98.7303 22.5177 99.0021 22.5177C99.2764 22.5177 99.1319 22.525 99.1931 22.5397C98.6544 21.4891 98.0863 20.1717 97.4545 19.1677C96.9965 18.4624 95.4807 18.193 94.8244 18.1416C94.2661 18.1269 94.08 18.1881 94.0261 18.5138C93.9845 18.8175 94.173 19.5472 94.0824 19.8607C93.9306 20.2892 93.507 20.4484 93.2621 20.0248C92.2238 17.8282 91.0949 17.8722 90.6492 16.5229C90.2819 15.3279 91.3667 15.4577 92.1381 15.5924C94.4669 15.9866 97.4741 16.6356 99.8151 17.4412C100.79 17.7571 101.392 18.2004 101.789 19.0305L108.587 34.3749C108.895 34.9381 109.135 36.7943 108.207 36.7943H104.799C104.365 36.7943 103.892 36.116 104.039 35.7756C104.123 35.6115 104.468 35.4156 104.402 35.205L103.897 33.9047ZM100.525 26.6733C100.197 27.9026 98.8381 29.7784 98.745 31.1277C98.6275 32.6191 99.367 33.4051 100.937 33.4051C101.904 33.4027 102.925 32.3791 102.994 31.6395L100.525 26.6733Z" fill="white" stroke="#2B2A29" strokeWidth="0.9" strokeMiterlimit="22.9256"/>
<path fillRule="evenodd" clipRule="evenodd" d="M89.3954 36.7944H94.2049C94.4571 36.7944 94.6653 36.5863 94.6653 36.334V34.8598C94.6653 34.6076 94.4571 34.4019 94.2049 34.4019C94.0188 34.4093 93.9453 34.3285 93.9404 34.1154L93.6931 23.2622C93.9135 23.2622 94.1339 23.2622 94.3543 23.2598C94.6506 23.2475 94.893 23.0173 94.893 22.721V21.406C94.893 21.1097 94.6506 20.8624 94.3543 20.8673C90.0517 20.9334 85.825 20.5685 81.5641 19.8314C81.2653 19.8143 80.9714 20.064 80.9714 20.3604V21.6778C80.9714 21.9741 81.2163 22.17 81.5102 22.2141C81.8236 22.2631 82.1371 22.3096 82.4505 22.3537C82.9991 25.9045 83.3101 28.3729 83.4129 31.9457C83.8537 33.0085 84.4855 35.1366 84.9091 36.2091C85.0536 36.5667 85.1785 36.7944 85.5605 36.7944H87.3261C87.6739 36.7944 87.9555 36.5079 87.9604 36.1602C88.0045 31.7449 87.6788 27.3297 87.02 22.9145C87.7473 22.9855 88.4771 23.0467 89.2044 23.0981C89.2901 26.8375 89.3758 30.5769 89.4615 34.3187C89.4615 34.3578 89.4444 34.397 89.3954 34.4019C89.1383 34.4264 88.9375 34.6076 88.9375 34.8598V36.334C88.9375 36.5863 89.1432 36.7944 89.3954 36.7944Z" fill="white" stroke="#2B2A29" strokeWidth="0.9" strokeMiterlimit="22.9256"/>
<path fillRule="evenodd" clipRule="evenodd" d="M120.199 28.3459C121.698 30.8413 124.428 32.8983 123.458 35.3936C123.417 35.5356 123.248 35.8907 123.373 36.0891C123.588 36.4319 123.559 36.2654 123.806 36.5642C123.904 36.7062 124.235 36.7944 124.472 36.7944C128.772 36.7821 132.691 33.5448 132.904 30.1507C132.918 29.3034 132.397 29.0903 131.709 29.154C130.423 29.2814 128.645 29.7221 127.286 30.7041C127.144 30.7923 127.119 31.0102 127.122 31.2012C127.132 31.5245 127.217 31.7914 127.308 32.0926C127.345 32.1979 127.44 32.2273 127.572 32.2542C127.773 32.2861 127.923 32.504 127.825 32.7122C127.536 33.3709 126.889 34.108 126.331 34.4606C126.186 34.5341 126.003 34.4655 125.998 34.3333C125.942 32.7416 125.702 31.26 125.209 30.1997C125.121 30.0454 125.151 29.8519 125.263 29.754C126.997 28.3484 128.799 27.6235 130.925 27.3101C131.153 27.2782 131.398 27.0725 131.407 26.8668C131.449 22.6622 127.92 19.8166 124.455 19.8191C121.019 19.824 117.726 23.8866 120.199 28.3459ZM124.328 23.5633C123.537 23.8719 123.272 26.0097 124.058 27.7312C124.957 26.9795 125.878 26.4064 126.796 26.0048C126.605 24.4449 125.738 23.1348 124.328 23.5633Z" fill="white" stroke="#2B2A29" strokeWidth="0.9" strokeMiterlimit="22.9256"/>
<path fillRule="evenodd" clipRule="evenodd" d="M132.316 35.014L133.484 35.0115C132.901 29.8837 135.103 29.8176 135.695 27.4128C135.859 26.7737 135.541 26.7223 135.406 26.8055C135.186 26.95 134.921 27.0357 134.635 27.0357C133.859 27.0357 133.227 26.4039 133.227 25.6252C133.227 24.8489 133.859 24.2171 134.635 24.2171C134.708 24.2171 134.782 24.222 134.85 24.2343L132.289 18.4967C132.022 17.8992 131.826 17.6102 131.513 17.6102H131.233C130.881 17.6102 130.638 17.9237 130.719 18.2347C130.949 19.4003 131.442 20.0909 130.866 20.9798C130.589 21.3789 130.056 21.7071 129.943 21.3251C129.465 19.9611 126.135 18.5971 125.609 17.2012C125.04 15.6756 126.174 15.2544 127.487 15.2177C129.71 15.2055 131.963 15.3205 134.201 15.394C135.208 15.6413 136.229 16.1115 136.65 17.2772L144.589 35.0115H147.944C148.559 35.0115 149.301 35.3519 149.338 35.9005C149.365 37.071 148.877 38.1534 147.472 39.1427C145.708 40.4798 144.053 41.4373 144.624 43.8592C144.692 44.1163 144.092 44.5914 143.828 44.3661C141.989 42.6984 141.974 40.2447 143.47 38.2734C143.808 37.7959 143.409 37.4016 142.995 37.4041H135.323C133.719 37.3869 134.456 38.6505 134.015 39.5419C133.783 39.9802 133.349 40.0096 132.926 39.3949C132.453 38.6554 131.88 38.0799 131.42 37.4432C130.736 36.5984 130.771 35.014 132.316 35.014ZM137.716 35.0115H139.677L137.238 29.5654C136.856 31.2918 136.126 32.9594 137.716 35.0115Z" fill="white" stroke="#2B2A29" strokeWidth="0.9" strokeMiterlimit="22.9256"/>
<path fillRule="evenodd" clipRule="evenodd" d="M161.508 35.4255C162.16 35.3838 162.814 35.3447 163.467 35.3128C163.389 34.4704 163.274 33.7333 163.063 32.9913C163.005 32.7881 162.882 32.5726 162.718 32.4746C162.268 32.2224 161.859 31.9212 161.508 31.5514V35.4255ZM168.96 35.1561C169.325 35.1365 169.624 35.4206 169.624 35.7879V36.8507C169.624 37.2156 169.325 37.529 168.96 37.5462C165.238 37.578 161.518 37.7665 157.798 38.0922C157.375 38.1363 157.034 37.7445 157.025 37.3184L156.645 22.1259C156.633 21.6998 157 21.428 157.419 21.3521C158.829 21.0998 160.747 20.9137 162.157 20.8305C162.583 20.8035 162.924 21.117 162.931 21.6043C162.941 21.9055 162.97 22.9585 162.794 23.1079C162.219 23.556 161.508 23.867 161.508 24.751V26.764C161.508 29.3597 164.388 30.9686 167.528 31.7155C167.765 31.7669 167.939 31.9188 168 32.1269C168.228 32.9962 168.436 33.8876 168.537 34.8182C168.554 34.9945 168.632 35.1659 168.96 35.1561Z" fill="white" stroke="#2B2A29" strokeWidth="0.9" strokeMiterlimit="22.9256"/>
<path fillRule="evenodd" clipRule="evenodd" d="M165.387 29.0757C165.084 25.8604 165.407 22.7014 166.168 19.9709C166.303 19.5375 166.661 19.4224 167.023 19.5277C168.071 19.8338 169.678 20.6836 170.726 21.6166C171.032 21.8933 171.061 22.1578 170.914 22.5961C170.726 23.032 170.532 23.4189 170.251 23.7985C169.945 24.2099 169.67 23.894 169.176 24.9861C168.451 26.6073 168.128 28.4414 167.782 30.3172C167.743 30.6111 167.525 30.7776 167.15 30.7286C166.651 30.6503 166.107 30.3662 165.752 30.114C165.463 29.8519 165.397 29.3916 165.387 29.0757Z" fill="white" stroke="#2B2A29" strokeWidth="0.9" strokeMiterlimit="22.9256"/>
<path fillRule="evenodd" clipRule="evenodd" d="M84.2407 41.4325C84.6447 42.2651 85.1149 43.345 85.4406 44.3858C85.5924 44.0968 85.8373 43.6218 86.0503 43.3671C86.2511 43.0757 86.3099 43.0193 86.2169 42.7696C86.0381 42.3312 85.7491 41.5647 85.4553 41.1264C85.4234 41.0799 85.3108 40.9844 85.1761 41.0138C84.8235 41.1093 84.4806 41.3076 84.2407 41.4325ZM88.9424 39.3608C90.1962 40.9036 89.9562 42.0374 90.0297 43.9156C90.0346 44.1801 89.9636 44.4788 89.6819 44.5695C88.8861 44.8682 88.3228 45.2111 87.8649 45.8894C86.8364 47.4419 90.3774 48.0272 91.7292 48.0615C92.241 48.0909 92.7136 48.2941 92.8385 48.6957C93.1617 49.8075 93.4066 51.0001 93.387 52.2612C93.387 52.3812 93.4948 52.609 93.7715 52.6065C94.009 52.6065 94.2025 52.8024 94.2025 53.0399V54.568C94.2025 54.8055 94.009 54.999 93.7715 54.999H82.4089C82.1714 54.999 81.9755 54.8055 81.9755 54.568V53.0399C81.9755 52.8024 82.1714 52.6065 82.4089 52.6065C82.595 52.6065 82.6244 52.4718 82.6146 52.4057C82.2179 49.0288 82.5975 46.4697 81.1111 43.2055C80.9935 42.9508 80.6752 42.8063 80.347 42.9581C79.9846 43.1442 79.6369 42.8969 79.4263 42.6055C79.2255 42.3165 79.0075 41.9982 78.8875 41.6553C78.7675 41.3199 78.9414 40.9354 79.2818 40.8276C81.9241 39.5812 84.8627 39.0841 87.5049 38.636C88.1147 38.56 88.6706 39.0229 88.9424 39.3608ZM86.4299 49.0361C86.736 50.2189 86.9711 51.4139 87.1107 52.6065H88.6559C88.624 51.7861 88.5359 51.2474 88.3522 50.5152C88.2837 50.2287 87.9531 49.9569 87.6813 49.8026C87.2576 49.5577 86.834 49.3055 86.4299 49.0361Z" fill="white" stroke="#2B2A29" strokeWidth="0.9" strokeMiterlimit="22.9256"/>
<path fillRule="evenodd" clipRule="evenodd" d="M150.858 52.6971C150.234 53.8358 148.4 55.239 146.323 55.239C144.293 55.239 142.741 54.2595 142.4 52.2931C141.903 49.9422 143.184 48.3186 144.536 46.8836C144.751 46.6387 145.758 45.8551 146.948 44.7042C147.114 44.523 147.572 44.1801 146.953 44.0014H146.95C146.583 43.901 146.311 43.563 146.311 43.1614C146.311 42.6814 146.7 42.2921 147.18 42.2921C147.246 42.2921 147.31 42.2994 147.371 42.3117L147.087 41.528C146.864 40.9305 147.271 40.2008 148.101 40.093C148.997 39.9975 151.919 39.9681 152.044 40.6954L152.041 41.266C152.039 41.5525 151.887 41.7901 152.036 42.1231L156.023 53.9926C156.283 54.7419 155.812 55.239 155.215 55.239H151.711C151.28 55.239 150.805 54.5607 150.952 54.2203C151.035 54.0562 151.27 53.9411 151.204 53.7281L150.858 52.6971ZM148.655 46.1392C148.187 47.2656 147.332 48.3186 146.891 49.4475C146.504 50.503 146.808 51.818 148.03 51.8498C148.73 51.8645 149.688 51.0295 150.08 50.3854L148.655 46.1392Z" fill="white" stroke="#2B2A29" strokeWidth="0.9" strokeMiterlimit="22.9256"/>
<path fillRule="evenodd" clipRule="evenodd" d="M96.5508 38.7486C97.31 38.6849 98.0691 38.6213 98.8307 38.5576C99.0731 38.5576 99.2715 38.756 99.2715 39.0009L99.2396 40.1591C99.2396 40.404 99.0192 40.5044 98.7989 40.6024C98.5687 40.7322 98.3777 41.124 98.767 41.3958C100.013 42.3484 102.183 44.3075 103.217 46.2886C104.999 49.3153 102.467 54.999 98.2601 54.999H95.9827C95.7378 54.999 95.5395 54.8007 95.5395 54.5558V53.3657C95.5395 53.1208 95.7819 53.0596 95.9827 52.9224C96.1419 52.8 96.208 52.6408 96.208 52.4547C96.137 50.3879 94.413 49.379 92.5127 46.2249C90.73 43.1957 92.7405 39.16 96.5508 38.7486ZM97.4398 42.9018C94.6628 45.4094 98.0275 47.5497 98.1671 51.3968C100.893 49.1243 100.312 45.4584 97.4398 42.9018Z" fill="white" stroke="#2B2A29" strokeWidth="0.9" strokeMiterlimit="22.9256"/>
<path fillRule="evenodd" clipRule="evenodd" d="M109.162 38.5649C112.556 38.5649 114.373 40.6293 114.897 43.2716C115.003 43.7956 115.321 43.874 115.319 44.2609V45.3972C115.309 45.909 115.108 46.0632 114.675 46.0535L110.869 46.0657C110.257 46.0657 109.956 45.7865 109.914 45.2723L109.912 44.8094C109.914 44.4274 110.095 44.2413 110.321 44.1776C110.698 44.0895 110.925 43.4381 110.83 42.9973C110.712 42.3239 110.414 41.3566 109.346 41.3542C107.394 41.3566 107.274 43.4748 108.413 46.2224C109.187 48.2305 109.165 50.312 108.146 52.2196C109.588 51.7788 110.468 50.978 110.622 49.5112C110.71 48.8304 110.012 48.9308 109.973 48.4386L109.978 47.8533C109.985 47.4738 110.438 47.2338 110.881 47.2338H114.489C114.964 47.2338 115.404 47.6476 115.284 48.4215C114.586 52.1461 110.323 54.999 105.692 54.999C105.447 54.999 105.249 54.8007 105.249 54.5558V53.0081C105.249 52.7657 105.479 52.5967 105.692 52.5673C105.91 52.533 106.067 52.3665 106.14 52.1682C106.738 50.5079 106.089 48.8427 104.607 46.6901C103.168 44.2193 103.513 41.8978 104.825 40.3967C105.859 39.2114 107.526 38.5649 109.162 38.5649Z" fill="white" stroke="#2B2A29" strokeWidth="0.9" strokeMiterlimit="22.9256"/>
<path fillRule="evenodd" clipRule="evenodd" d="M115.936 39.2336C119.849 39.214 123.777 39.2164 127.69 38.7756C128.021 38.7585 128.29 39.045 128.29 39.3756C128.29 41.0114 127.022 43.0929 126.995 43.8668C126.995 44.2463 126.488 44.4275 126.14 44.0798C125.738 43.6513 125.736 42.8211 125.574 42.226C125.479 41.8808 125.41 41.751 124.928 41.7485C124.433 41.773 124.068 41.942 124.044 42.3289L124.639 52.9078C124.683 53.4294 124.494 53.7967 124.019 53.9461C122.526 54.3624 121.558 54.9991 120.05 54.9991C119.479 54.9991 119.288 54.4653 119.296 53.858L119.668 42.297C119.653 41.9371 119.092 41.9812 119.053 42.3338C119.075 43.6782 118.605 44.6602 117.743 45.6666C117.403 46.0217 116.619 46.3695 116.619 45.3654C116.675 42.8995 115.767 42.2873 115.363 40.5021C115.235 40.0907 115.399 39.2556 115.936 39.2336Z" fill="white" stroke="#2B2A29" strokeWidth="0.9" strokeMiterlimit="22.9256"/>
<path fillRule="evenodd" clipRule="evenodd" d="M133.376 41.6016C132.97 41.1902 132.683 40.8743 132.262 40.4163C131.824 39.9192 131.307 39.7649 130.585 40.3527C129.292 41.4326 128.221 44.4447 127.041 46.4894C126.914 46.7294 126.924 47.1433 127.168 47.3441C127.526 47.5963 127.803 47.7947 128.172 48.015C128.498 48.1228 128.846 48.0004 129.066 47.6281C129.172 47.3955 129.152 47.4371 129.257 47.2045C129.399 46.9155 129.63 47.0796 129.691 47.4396C130.864 53.5837 130.276 60.3179 126.977 67.8138C126.713 68.426 127.269 68.9109 127.8 68.4456C130.739 65.725 133.342 60.5898 134.571 54.1469C135.781 55.8782 137.958 55.9199 139.601 54.4775C140.674 53.4441 141.661 50.9928 141.474 48.9872C141.119 45.7474 138.984 43.4333 136.802 41.222C135.911 40.3502 135.252 40.311 134.625 40.9918C134.466 41.1779 134.179 41.5183 133.993 41.7118C133.829 41.9028 133.562 41.7681 133.376 41.6016ZM135.703 50.1896C135.179 49.8517 134.86 49.3619 134.721 48.8305C134.659 47.6159 134.539 46.3596 134.444 45.1034C134.397 44.7238 134.586 44.5744 134.88 44.3687C135.063 44.2341 135.34 44.2585 135.48 44.4006C136.738 45.5736 137.5 47.0135 137.285 48.9872C137.174 49.8002 136.418 50.6573 135.703 50.1896Z" fill="white" stroke="#2B2A29" strokeWidth="0.9" strokeMiterlimit="22.9256"/>
<path fillRule="evenodd" clipRule="evenodd" d="M154.172 43.3572C153.797 43.2372 153.751 42.9042 153.729 42.4071C153.729 42.0275 153.729 41.648 153.729 41.2684C153.741 40.7297 154.066 40.6244 154.853 40.5876C156.919 40.5705 158.913 41.0015 161.021 42.123C161.433 42.3483 161.577 42.505 161.401 43.1907C160.801 45.3922 160.335 47.5031 160.198 50.1258C160.215 50.4515 160.602 50.618 160.801 50.7135C162.934 45.7816 164.67 42.1867 165.791 40.8031C167.102 39.4685 168.395 40.595 168.505 41.6724C168.789 44.1654 168.789 46.8591 168.916 49.5577C168.926 49.8246 168.75 49.9593 168.537 50.0009C168.321 50.018 168.061 50.0425 167.714 50.0156C167.361 50.0034 167.231 49.6213 167.143 49.3691C167.038 48.9455 167.082 48.7765 166.977 48.3553C166.886 47.9292 166.46 47.9512 166.178 48.3871C162.089 55.043 159.189 61.1651 157.967 68.1614C157.801 68.7148 157.316 68.6659 157.208 68.1443C156.721 63.0605 157.708 58.8559 159.434 53.9386C159.576 53.5566 159.231 53.3166 159.045 53.2285C158.499 52.9615 158.085 52.746 157.536 52.4914C156.9 52.1877 156.55 51.5241 156.385 50.3168C156.089 48.2622 156.148 46.4477 156.062 44.4004C155.932 43.9352 155.646 43.847 154.172 43.3572Z" fill="white" stroke="#2B2A29" strokeWidth="0.9" strokeMiterlimit="22.9256"/>
<path fillRule="evenodd" clipRule="evenodd" d="M163.639 38.516C162.297 40.3722 161.467 39.6351 160.458 38.5037C160.267 38.1633 159.684 39.0008 159.814 39.3265C161.768 42.9851 163.543 41.9933 164.795 40.2644C165.204 39.6889 163.984 38.0629 163.639 38.516Z" fill="white" stroke="#2B2A29" strokeWidth="0.9" strokeMiterlimit="22.9256"/>
</svg>
